<?xml version="1.0" encoding="UTF-8"?>
<svg id="Layer_1" data-name="Layer 1" xmlns="http://www.w3.org/2000/svg" width="787.77" height="330.33" viewBox="0 0 787.77 330.33">
  <defs>
    <style>
      .cls-1 {
        fill: #8567a8;
      }

      .cls-1, .cls-2, .cls-3, .cls-4 {
        stroke-width: 0px;
      }

      .cls-5, .cls-6, .cls-7, .cls-8, .cls-9, .cls-10 {
        fill: #000;
      }

      .cls-5, .cls-6, .cls-10 {
        font-family: Rubik-Regular, Rubik;
      }

      .cls-5, .cls-7, .cls-9 {
        font-size: 8px;
      }

      .cls-6 {
        font-size: 6px;
      }

      .cls-6, .cls-9 {
        isolation: isolate;
      }

      .cls-2 {
        fill: #f3c55a;
      }

      .cls-7, .cls-9 {
        font-family: Rubik-Medium, Rubik;
        font-weight: 500;
      }

      .cls-11 {
        fill: none;
        stroke: #000;
      }

      .cls-8 {
        font-family: Rubik-SemiBold, Rubik;
        font-size: 12px;
        font-weight: 600;
      }

      .cls-3 {
        fill: #d67199;
      }

      .cls-4 {
        fill: #5ea642;
      }

      .cls-10 {
        font-size: 5.71px;
      }
    </style>
  </defs>
  <g>
    <g id="viz">
      <g id="IUCN_based" data-name="IUCN based">
        <g>
          <g>
            <rect id="IUCN_based_-_WH" data-name="IUCN_based - WH" class="cls-2" x="205.82" y="251.62" width="38.97" height="31.54"/>
            <rect id="IUCN_based_-_DG" data-name="IUCN_based - DG" class="cls-4" x="65.87" y="248.19" width="38.97" height="34.97"/>
            <rect id="IUCN_based_-_FT" data-name="IUCN_based - FT" class="cls-3" x="112.52" y="251.96" width="38.97" height="31.2"/>
            <rect id="IUCN_based_-_UNC" data-name="IUCN_based - UNC" class="cls-1" x="159.17" y="145.33" width="38.97" height="137.83"/>
          </g>
          <g id="xAxis">
            <path class="cls-11" d="M58.19,283.16h194.29"/>
            <g>
              <line class="cls-11" x1="85.35" y1="283.16" x2="85.35" y2="286.59"/>
              <text class="cls-5" transform="translate(79.59 296.36)"><tspan x="0" y="0">DG</tspan></text>
            </g>
            <g>
              <line class="cls-11" x1="132" y1="283.16" x2="132" y2="286.59"/>
              <text class="cls-5" transform="translate(127.86 296.36)"><tspan x="0" y="0">FT</tspan></text>
            </g>
            <g>
              <line class="cls-11" x1="178.66" y1="283.16" x2="178.66" y2="286.59"/>
              <text class="cls-5" transform="translate(168.22 296.36)"><tspan x="0" y="0">UNC</tspan></text>
            </g>
            <g>
              <line class="cls-11" x1="225.31" y1="283.16" x2="225.31" y2="286.59"/>
              <text class="cls-5" transform="translate(218.49 296.36)"><tspan x="0" y="0">WH</tspan></text>
            </g>
          </g>
          <g id="yAxis">
            <path class="cls-11" d="M54.76,283.16h3.43V77.44h-3.43"/>
            <g>
              <line class="cls-11" x1="58.19" y1="283.16" x2="54.76" y2="283.16"/>
              <text class="cls-10" transform="translate(49.87 284.99)"><tspan x="0" y="0">0</tspan></text>
            </g>
            <g>
              <line class="cls-11" x1="58.19" y1="266.02" x2="54.76" y2="266.02"/>
              <text class="cls-10" transform="translate(49.87 267.84)"><tspan x="0" y="0">5</tspan></text>
            </g>
            <g>
              <line class="cls-11" x1="58.19" y1="248.87" x2="54.76" y2="248.87"/>
              <text class="cls-10" transform="translate(46.69 250.7)"><tspan x="0" y="0">10</tspan></text>
            </g>
            <g>
              <line class="cls-11" x1="58.19" y1="231.73" x2="54.76" y2="231.73"/>
              <text class="cls-10" transform="translate(46.69 233.56)"><tspan x="0" y="0">15</tspan></text>
            </g>
            <g>
              <line class="cls-11" x1="58.19" y1="214.59" x2="54.76" y2="214.59"/>
              <text class="cls-10" transform="translate(46.69 216.42)"><tspan x="0" y="0">20</tspan></text>
            </g>
            <g>
              <line class="cls-11" x1="58.19" y1="197.44" x2="54.76" y2="197.44"/>
              <text class="cls-10" transform="translate(46.69 199.27)"><tspan x="0" y="0">25</tspan></text>
            </g>
            <g>
              <line class="cls-11" x1="58.19" y1="180.3" x2="54.76" y2="180.3"/>
              <text class="cls-10" transform="translate(46.69 182.13)"><tspan x="0" y="0">30</tspan></text>
            </g>
            <g>
              <line class="cls-11" x1="58.19" y1="163.16" x2="54.76" y2="163.16"/>
              <text class="cls-10" transform="translate(46.69 164.99)"><tspan x="0" y="0">35</tspan></text>
            </g>
            <g>
              <line class="cls-11" x1="58.19" y1="146.02" x2="54.76" y2="146.02"/>
              <text class="cls-10" transform="translate(46.69 147.84)"><tspan x="0" y="0">40</tspan></text>
            </g>
            <g>
              <line class="cls-11" x1="58.19" y1="128.87" x2="54.76" y2="128.87"/>
              <text class="cls-10" transform="translate(46.69 130.7)"><tspan x="0" y="0">45</tspan></text>
            </g>
            <g>
              <line class="cls-11" x1="58.19" y1="111.73" x2="54.76" y2="111.73"/>
              <text class="cls-10" transform="translate(46.69 113.56)"><tspan x="0" y="0">50</tspan></text>
            </g>
            <g>
              <line class="cls-11" x1="58.19" y1="94.59" x2="54.76" y2="94.59"/>
              <text class="cls-10" transform="translate(46.69 96.42)"><tspan x="0" y="0">55</tspan></text>
            </g>
            <g>
              <line class="cls-11" x1="58.19" y1="77.44" x2="54.76" y2="77.44"/>
              <text class="cls-10" transform="translate(46.69 79.27)"><tspan x="0" y="0">60</tspan></text>
            </g>
          </g>
        </g>
        <text class="cls-7" transform="translate(35.9 59.18)"><tspan x="0" y="0">IUCN based</tspan></text>
      </g>
      <g id="Inst_based" data-name="Inst based">
        <g>
          <g>
            <rect id="Inst_based_-_WH" data-name="Inst_based - WH" class="cls-2" x="434.39" y="246.82" width="38.97" height="36.34"/>
            <rect id="Inst_based_-_DG" data-name="Inst_based - DG" class="cls-4" x="294.44" y="231.39" width="38.97" height="51.77"/>
            <rect id="Inst_based_-_FT" data-name="Inst_based - FT" class="cls-3" x="341.09" y="249.9" width="38.97" height="33.26"/>
            <rect id="Inst_based_-_UNC" data-name="Inst_based - UNC" class="cls-1" x="387.74" y="83.62" width="38.97" height="199.54"/>
          </g>
          <g id="xAxis-2" data-name="xAxis">
            <path class="cls-11" d="M286.76,283.16h194.29"/>
            <g>
              <line class="cls-11" x1="313.93" y1="283.16" x2="313.93" y2="286.59"/>
              <text class="cls-5" transform="translate(308.16 296.36)"><tspan x="0" y="0">DG</tspan></text>
            </g>
            <g>
              <line class="cls-11" x1="360.58" y1="283.16" x2="360.58" y2="286.59"/>
              <text class="cls-5" transform="translate(356.43 296.36)"><tspan x="0" y="0">FT</tspan></text>
            </g>
            <g>
              <line class="cls-11" x1="407.23" y1="283.16" x2="407.23" y2="286.59"/>
              <text class="cls-5" transform="translate(396.79 296.36)"><tspan x="0" y="0">UNC</tspan></text>
            </g>
            <g>
              <line class="cls-11" x1="453.88" y1="283.16" x2="453.88" y2="286.59"/>
              <text class="cls-5" transform="translate(447.06 296.36)"><tspan x="0" y="0">WH</tspan></text>
            </g>
          </g>
          <g id="yAxis-2" data-name="yAxis">
            <path class="cls-11" d="M283.33,283.16h3.43V77.44h-3.43"/>
            <g>
              <line class="cls-11" x1="286.76" y1="283.16" x2="283.33" y2="283.16"/>
              <text class="cls-10" transform="translate(278.44 284.99)"><tspan x="0" y="0">0</tspan></text>
            </g>
            <g>
              <line class="cls-11" x1="286.76" y1="266.02" x2="283.33" y2="266.02"/>
              <text class="cls-10" transform="translate(278.44 267.84)"><tspan x="0" y="0">5</tspan></text>
            </g>
            <g>
              <line class="cls-11" x1="286.76" y1="248.87" x2="283.33" y2="248.87"/>
              <text class="cls-10" transform="translate(275.26 250.7)"><tspan x="0" y="0">10</tspan></text>
            </g>
            <g>
              <line class="cls-11" x1="286.76" y1="231.73" x2="283.33" y2="231.73"/>
              <text class="cls-10" transform="translate(275.26 233.56)"><tspan x="0" y="0">15</tspan></text>
            </g>
            <g>
              <line class="cls-11" x1="286.76" y1="214.59" x2="283.33" y2="214.59"/>
              <text class="cls-10" transform="translate(275.26 216.42)"><tspan x="0" y="0">20</tspan></text>
            </g>
            <g>
              <line class="cls-11" x1="286.76" y1="197.44" x2="283.33" y2="197.44"/>
              <text class="cls-10" transform="translate(275.26 199.27)"><tspan x="0" y="0">25</tspan></text>
            </g>
            <g>
              <line class="cls-11" x1="286.76" y1="180.3" x2="283.33" y2="180.3"/>
              <text class="cls-10" transform="translate(275.26 182.13)"><tspan x="0" y="0">30</tspan></text>
            </g>
            <g>
              <line class="cls-11" x1="286.76" y1="163.16" x2="283.33" y2="163.16"/>
              <text class="cls-10" transform="translate(275.26 164.99)"><tspan x="0" y="0">35</tspan></text>
            </g>
            <g>
              <line class="cls-11" x1="286.76" y1="146.02" x2="283.33" y2="146.02"/>
              <text class="cls-10" transform="translate(275.26 147.84)"><tspan x="0" y="0">40</tspan></text>
            </g>
            <g>
              <line class="cls-11" x1="286.76" y1="128.87" x2="283.33" y2="128.87"/>
              <text class="cls-10" transform="translate(275.26 130.7)"><tspan x="0" y="0">45</tspan></text>
            </g>
            <g>
              <line class="cls-11" x1="286.76" y1="111.73" x2="283.33" y2="111.73"/>
              <text class="cls-10" transform="translate(275.26 113.56)"><tspan x="0" y="0">50</tspan></text>
            </g>
            <g>
              <line class="cls-11" x1="286.76" y1="94.59" x2="283.33" y2="94.59"/>
              <text class="cls-10" transform="translate(275.26 96.42)"><tspan x="0" y="0">55</tspan></text>
            </g>
            <g>
              <line class="cls-11" x1="286.76" y1="77.44" x2="283.33" y2="77.44"/>
              <text class="cls-10" transform="translate(275.26 79.27)"><tspan x="0" y="0">60</tspan></text>
            </g>
          </g>
        </g>
        <text class="cls-7" transform="translate(267.47 59.18)"><tspan x="0" y="0">Inst based</tspan></text>
      </g>
      <g id="SS_Total" data-name="SS Total">
        <g>
          <g>
            <rect id="SS_Total_-_WH" data-name="SS_Total - WH" class="cls-2" x="662.96" y="251.62" width="38.97" height="31.54"/>
            <rect id="SS_Total_-_DG" data-name="SS_Total - DG" class="cls-4" x="523.01" y="248.19" width="38.97" height="34.97"/>
            <rect id="SS_Total_-_FT" data-name="SS_Total - FT" class="cls-3" x="569.66" y="251.96" width="38.97" height="31.2"/>
            <rect id="SS_Total_-_UNC" data-name="SS_Total - UNC" class="cls-1" x="616.31" y="145.33" width="38.97" height="137.83"/>
          </g>
          <g id="xAxis-3" data-name="xAxis">
            <path class="cls-11" d="M515.33,283.16h194.29"/>
            <g>
              <line class="cls-11" x1="542.5" y1="283.16" x2="542.5" y2="286.59"/>
              <text class="cls-5" transform="translate(536.73 296.36)"><tspan x="0" y="0">DG</tspan></text>
            </g>
            <g>
              <line class="cls-11" x1="589.15" y1="283.16" x2="589.15" y2="286.59"/>
              <text class="cls-5" transform="translate(585.01 296.36)"><tspan x="0" y="0">FT</tspan></text>
            </g>
            <g>
              <line class="cls-11" x1="635.8" y1="283.16" x2="635.8" y2="286.59"/>
              <text class="cls-5" transform="translate(625.36 296.36)"><tspan x="0" y="0">UNC</tspan></text>
            </g>
            <g>
              <line class="cls-11" x1="682.45" y1="283.16" x2="682.45" y2="286.59"/>
              <text class="cls-5" transform="translate(675.63 296.36)"><tspan x="0" y="0">WH</tspan></text>
            </g>
          </g>
          <g id="yAxis-3" data-name="yAxis">
            <path class="cls-11" d="M511.9,283.16h3.43V77.44h-3.43"/>
            <g>
              <line class="cls-11" x1="515.33" y1="283.16" x2="511.9" y2="283.16"/>
              <text class="cls-10" transform="translate(507.01 284.99)"><tspan x="0" y="0">0</tspan></text>
            </g>
            <g>
              <line class="cls-11" x1="515.33" y1="266.02" x2="511.9" y2="266.02"/>
              <text class="cls-10" transform="translate(507.01 267.84)"><tspan x="0" y="0">5</tspan></text>
            </g>
            <g>
              <line class="cls-11" x1="515.33" y1="248.87" x2="511.9" y2="248.87"/>
              <text class="cls-10" transform="translate(503.83 250.7)"><tspan x="0" y="0">10</tspan></text>
            </g>
            <g>
              <line class="cls-11" x1="515.33" y1="231.73" x2="511.9" y2="231.73"/>
              <text class="cls-10" transform="translate(503.83 233.56)"><tspan x="0" y="0">15</tspan></text>
            </g>
            <g>
              <line class="cls-11" x1="515.33" y1="214.59" x2="511.9" y2="214.59"/>
              <text class="cls-10" transform="translate(503.83 216.42)"><tspan x="0" y="0">20</tspan></text>
            </g>
            <g>
              <line class="cls-11" x1="515.33" y1="197.44" x2="511.9" y2="197.44"/>
              <text class="cls-10" transform="translate(503.83 199.27)"><tspan x="0" y="0">25</tspan></text>
            </g>
            <g>
              <line class="cls-11" x1="515.33" y1="180.3" x2="511.9" y2="180.3"/>
              <text class="cls-10" transform="translate(503.83 182.13)"><tspan x="0" y="0">30</tspan></text>
            </g>
            <g>
              <line class="cls-11" x1="515.33" y1="163.16" x2="511.9" y2="163.16"/>
              <text class="cls-10" transform="translate(503.83 164.99)"><tspan x="0" y="0">35</tspan></text>
            </g>
            <g>
              <line class="cls-11" x1="515.33" y1="146.02" x2="511.9" y2="146.02"/>
              <text class="cls-10" transform="translate(503.83 147.84)"><tspan x="0" y="0">40</tspan></text>
            </g>
            <g>
              <line class="cls-11" x1="515.33" y1="128.87" x2="511.9" y2="128.87"/>
              <text class="cls-10" transform="translate(503.83 130.7)"><tspan x="0" y="0">45</tspan></text>
            </g>
            <g>
              <line class="cls-11" x1="515.33" y1="111.73" x2="511.9" y2="111.73"/>
              <text class="cls-10" transform="translate(503.83 113.56)"><tspan x="0" y="0">50</tspan></text>
            </g>
            <g>
              <line class="cls-11" x1="515.33" y1="94.59" x2="511.9" y2="94.59"/>
              <text class="cls-10" transform="translate(503.83 96.42)"><tspan x="0" y="0">55</tspan></text>
            </g>
            <g>
              <line class="cls-11" x1="515.33" y1="77.44" x2="511.9" y2="77.44"/>
              <text class="cls-10" transform="translate(503.83 79.27)"><tspan x="0" y="0">60</tspan></text>
            </g>
          </g>
        </g>
        <text class="cls-7" transform="translate(499.04 59.18)"><tspan x="0" y="0">SS Total</tspan></text>
      </g>
    </g>
    <g id="legend">
      <g>
        <g>
          <g>
            <rect class="cls-4" x="687.05" y="65.39" width="8.57" height="8.57"/>
            <text class="cls-6" transform="translate(699.48 72.53)"><tspan x="0" y="0">Data Generalization </tspan></text>
          </g>
          <g>
            <rect class="cls-3" x="687.05" y="76.82" width="8.57" height="8.57"/>
            <text class="cls-6" transform="translate(699.48 83.96)"><tspan x="0" y="0">Footprint WKT </tspan></text>
          </g>
          <g>
            <rect class="cls-1" x="687.05" y="88.25" width="8.57" height="8.57"/>
            <text class="cls-6" transform="translate(699.48 95.39)"><tspan x="0" y="0">Coordinate Uncertainty</tspan></text>
          </g>
          <g>
            <rect class="cls-2" x="687.05" y="99.68" width="8.57" height="8.57"/>
            <text class="cls-6" transform="translate(699.48 106.82)"><tspan x="0" y="0">Information Withheld </tspan></text>
          </g>
        </g>
        <text class="cls-9" transform="translate(687.05 57.74)"><tspan x="0" y="0">Generalization</tspan></text>
      </g>
    </g>
  </g>
  <text class="cls-8" transform="translate(36.53 33.46)"><tspan x="0" y="0">B</tspan></text>
</svg>