<?xml version="1.0" encoding="UTF-8"?>
<svg id="Layer_1" data-name="Layer 1" xmlns="http://www.w3.org/2000/svg" width="787.77" height="330.33" viewBox="0 0 787.77 330.33">
  <defs>
    <style>
      .cls-1 {
        fill: #8567a8;
      }

      .cls-1, .cls-2, .cls-3, .cls-4, .cls-5 {
        stroke-width: 0px;
      }

      .cls-2 {
        fill: #f3c55a;
      }

      .cls-3 {
        fill: #000;
      }

      .cls-6 {
        fill: none;
        stroke: #000;
        stroke-miterlimit: 10;
      }

      .cls-4 {
        fill: #d67199;
      }

      .cls-7 {
        isolation: isolate;
      }

      .cls-5 {
        fill: #5ea642;
      }
    </style>
  </defs>
  <g>
    <rect id="Not_Repatriated_-_DG" data-name="Not_Repatriated - DG" class="cls-5" x="222.58" y="106.38" width="46.31" height="19.09"/>
    <rect id="Repatriated_-_DG" data-name="Repatriated - DG" class="cls-5" x="334.81" y="106.38" width="167.8" height="19.09"/>
    <g class="cls-7">
      <path class="cls-3" d="M295.26,119c-.07,0-.13-.02-.18-.07s-.07-.11-.07-.18v-6.83c0-.08.02-.14.07-.19.05-.05.11-.07.18-.07h2.56c.71,0,1.29.11,1.75.33s.8.54,1.04.96c.23.43.36.95.36,1.56.01.31.02.58.02.82s0,.51-.02.81c-.01.65-.13,1.19-.36,1.61-.22.42-.56.74-1.01.94-.45.21-1.03.31-1.73.31h-2.61ZM296.47,117.79h1.35c.39,0,.71-.06.95-.17s.42-.29.54-.54c.12-.25.18-.57.18-.98,0-.21.01-.39.02-.55,0-.16,0-.31,0-.47,0-.16,0-.34-.02-.54-.01-.57-.16-1-.43-1.27-.27-.27-.71-.41-1.3-.41h-1.3v4.93Z"/>
      <path class="cls-3" d="M305.24,119.1c-.64,0-1.19-.11-1.64-.34-.45-.22-.8-.55-1.05-.97-.25-.42-.38-.93-.4-1.52,0-.3-.01-.62-.01-.97s0-.67.01-.98c.02-.58.16-1.08.4-1.49s.6-.73,1.06-.95,1-.34,1.63-.34c.51,0,.96.07,1.34.2s.71.31.96.52c.26.21.45.44.58.69.13.25.2.47.2.68,0,.06,0,.12-.05.16s-.1.06-.17.06h-1.08c-.07,0-.12-.01-.16-.04s-.07-.07-.09-.13c-.06-.15-.14-.29-.26-.44-.12-.14-.28-.26-.48-.36-.2-.1-.46-.15-.79-.15-.48,0-.85.13-1.14.38-.28.25-.44.67-.46,1.25-.02.61-.02,1.22,0,1.85.02.59.18,1.02.47,1.28.29.26.67.39,1.15.39.31,0,.6-.06.84-.17.25-.11.44-.29.59-.52.14-.24.21-.54.21-.91v-.33h-1.28c-.07,0-.13-.02-.18-.07s-.07-.11-.07-.19v-.56c0-.08.02-.14.07-.19.05-.05.11-.07.18-.07h2.51c.08,0,.14.02.18.07.05.05.07.11.07.19v1.1c0,.59-.13,1.09-.38,1.52-.26.43-.62.75-1.09.99-.47.23-1.03.35-1.67.35Z"/>
    </g>
    <g class="cls-7">
      <path class="cls-3" d="M518.33,119.1c-.49,0-.91-.06-1.27-.18-.36-.12-.65-.27-.89-.47s-.41-.4-.53-.63c-.12-.23-.18-.45-.19-.68,0-.06.02-.11.07-.15.05-.04.1-.06.16-.06h.94c.07,0,.13.01.18.04.05.03.09.08.13.17.06.19.17.34.31.45s.31.19.5.24.39.07.6.07c.42,0,.75-.1,1-.3.25-.2.37-.48.37-.85s-.12-.64-.35-.8c-.23-.16-.55-.25-.96-.25h-1.08c-.08,0-.14-.02-.19-.07s-.07-.11-.07-.18v-.44c0-.07.02-.13.05-.18.03-.05.06-.1.1-.13l1.88-1.84h-3c-.08,0-.14-.02-.18-.07-.05-.05-.07-.11-.07-.18v-.69c0-.08.02-.14.07-.19.04-.05.11-.07.18-.07h4.5c.08,0,.14.02.19.07.05.05.07.11.07.19v.63c0,.06-.01.12-.04.17-.03.05-.06.09-.09.13l-1.81,1.87h.12c.43.05.81.14,1.14.3s.59.39.78.69c.18.3.28.68.28,1.13s-.12.88-.37,1.22-.59.6-1.02.78c-.43.18-.93.27-1.49.27Z"/>
      <path class="cls-3" d="M524.93,119.1c-.49,0-.91-.06-1.27-.18-.36-.12-.65-.27-.89-.47s-.41-.4-.53-.63c-.12-.23-.18-.45-.19-.68,0-.06.02-.11.07-.15.05-.04.1-.06.16-.06h.94c.07,0,.13.01.18.04.05.03.09.08.13.17.06.19.17.34.31.45s.31.19.5.24.39.07.6.07c.42,0,.75-.1,1-.3.25-.2.37-.48.37-.85s-.12-.64-.35-.8c-.23-.16-.55-.25-.96-.25h-1.08c-.08,0-.14-.02-.19-.07s-.07-.11-.07-.18v-.44c0-.07.02-.13.05-.18.03-.05.06-.1.1-.13l1.88-1.84h-3c-.08,0-.14-.02-.18-.07-.05-.05-.07-.11-.07-.18v-.69c0-.08.02-.14.07-.19.04-.05.11-.07.18-.07h4.5c.08,0,.14.02.19.07.05.05.07.11.07.19v.63c0,.06-.01.12-.04.17-.03.05-.06.09-.09.13l-1.81,1.87h.12c.43.05.81.14,1.14.3s.59.39.78.69c.18.3.28.68.28,1.13s-.12.88-.37,1.22-.59.6-1.02.78c-.43.18-.93.27-1.49.27Z"/>
      <path class="cls-3" d="M528.91,119.79c-.06,0-.11-.02-.15-.06s-.05-.09-.04-.16l.28-1.78c.01-.09.05-.17.1-.24s.13-.1.24-.1h.96c.06,0,.1.02.14.06.03.04.05.09.05.14,0,.05,0,.09-.03.14l-.67,1.74c-.03.07-.07.13-.12.18-.05.05-.13.08-.23.08h-.54Z"/>
      <path class="cls-3" d="M532.25,119c-.06,0-.12-.02-.16-.07-.04-.05-.06-.1-.06-.16,0-.03,0-.06.02-.09l2.53-5.77h-3.29c-.08,0-.14-.02-.18-.07-.04-.05-.07-.11-.07-.18v-.73c0-.08.02-.14.07-.19.05-.05.11-.07.18-.07h4.61c.08,0,.14.02.18.07.04.05.07.11.07.19v.65c0,.1,0,.18-.03.25-.02.07-.04.13-.07.2l-2.51,5.73s-.06.1-.11.16c-.05.06-.13.09-.23.09h-.96Z"/>
    </g>
    <g class="cls-7">
      <path class="cls-3" d="M193.81,119c-.06,0-.12-.02-.16-.07-.04-.05-.06-.1-.06-.16,0-.03,0-.06.02-.08.01-.02.02-.04.03-.05l1.54-2.13c-.13.04-.28.05-.43.04-.36,0-.69-.08-.99-.2-.3-.13-.57-.3-.8-.52s-.41-.48-.54-.77c-.13-.29-.19-.61-.19-.95,0-.31.06-.62.18-.93s.3-.58.53-.82c.23-.24.53-.44.88-.58.35-.14.77-.22,1.24-.22s.88.07,1.24.2c.36.13.66.32.9.55.24.23.42.5.55.8s.18.62.18.95c0,.3-.05.58-.15.84-.1.26-.22.5-.36.71-.14.21-.29.42-.42.62l-1.85,2.56s-.07.08-.12.13c-.05.05-.13.08-.24.08h-.98ZM195.06,115.43c.25,0,.48-.05.69-.16s.37-.26.49-.46c.12-.2.18-.44.18-.71s-.06-.52-.18-.72c-.12-.2-.29-.35-.5-.46-.21-.11-.44-.16-.68-.16s-.48.05-.69.16-.37.26-.49.46-.18.44-.18.72.06.51.18.71c.12.2.29.35.49.46s.44.16.69.16Z"/>
      <path class="cls-3" d="M198.37,119.79c-.06,0-.11-.02-.15-.06s-.05-.09-.04-.16l.28-1.78c.01-.09.05-.17.1-.24s.13-.1.24-.1h.96c.06,0,.1.02.14.06.03.04.05.09.05.14,0,.05,0,.09-.03.14l-.67,1.74c-.03.07-.07.13-.12.18-.05.05-.13.08-.23.08h-.54Z"/>
      <path class="cls-3" d="M203.77,119.1c-.49,0-.91-.06-1.27-.18-.36-.12-.65-.27-.89-.47s-.41-.4-.53-.63c-.12-.23-.18-.45-.19-.68,0-.06.02-.11.07-.15.05-.04.1-.06.16-.06h.94c.07,0,.13.01.18.04.05.03.09.08.13.17.06.19.17.34.31.45s.31.19.5.24.39.07.6.07c.42,0,.75-.1,1-.3.25-.2.37-.48.37-.85s-.12-.64-.35-.8c-.23-.16-.55-.25-.96-.25h-1.08c-.08,0-.14-.02-.19-.07s-.07-.11-.07-.18v-.44c0-.07.02-.13.05-.18.03-.05.06-.1.1-.13l1.88-1.84h-3c-.08,0-.14-.02-.18-.07-.05-.05-.07-.11-.07-.18v-.69c0-.08.02-.14.07-.19.04-.05.11-.07.18-.07h4.5c.08,0,.14.02.19.07.05.05.07.11.07.19v.63c0,.06-.01.12-.04.17-.03.05-.06.09-.09.13l-1.81,1.87h.12c.43.05.81.14,1.14.3s.59.39.78.69c.18.3.28.68.28,1.13s-.12.88-.37,1.22-.59.6-1.02.78c-.43.18-.93.27-1.49.27Z"/>
    </g>
  </g>
  <g>
    <rect id="Not_Repatriated_-_FT" data-name="Not_Repatriated - FT" class="cls-4" x="215.11" y="155.72" width="53.77" height="19.09"/>
    <rect id="Repatriated_-_FT" data-name="Repatriated - FT" class="cls-4" x="334.81" y="155.72" width="30.37" height="19.09"/>
    <g class="cls-7">
      <path class="cls-3" d="M382.1,168.44c-.6,0-1.12-.11-1.55-.34-.43-.23-.77-.54-1.01-.92-.24-.39-.36-.82-.36-1.31,0-.22.03-.43.08-.63.06-.2.13-.4.22-.58.09-.18.18-.34.27-.49.09-.14.17-.26.24-.34l1.92-2.63s.07-.08.13-.13c.06-.05.13-.08.23-.08h.98c.06,0,.12.02.16.07s.06.1.06.16c0,.03,0,.05-.02.08-.01.02-.02.04-.04.06l-1.47,2.04c.06-.02.14-.04.22-.04s.16-.01.23-.01c.35,0,.68.08,1,.2.31.13.59.31.83.53.24.22.42.49.56.79.14.3.2.63.2.99,0,.46-.12.89-.35,1.28-.23.4-.56.71-.99.95-.43.24-.95.36-1.55.36ZM382.09,167.23c.25,0,.48-.05.7-.16s.39-.26.52-.46.2-.45.2-.76-.07-.54-.2-.74-.31-.36-.52-.46c-.21-.1-.45-.16-.7-.16s-.48.05-.7.16c-.21.1-.39.26-.52.46s-.2.45-.2.74.07.55.2.76.31.36.52.46c.21.1.45.16.7.16Z"/>
      <path class="cls-3" d="M385.96,169.12c-.06,0-.11-.02-.15-.06s-.05-.09-.04-.16l.28-1.78c.01-.09.05-.17.1-.24s.13-.1.24-.1h.96c.06,0,.1.02.14.06.03.04.05.09.05.14,0,.05,0,.09-.03.14l-.67,1.74c-.03.07-.07.13-.12.18-.05.05-.13.08-.23.08h-.54Z"/>
      <path class="cls-3" d="M390.31,168.33c-.08,0-.14-.02-.18-.07-.04-.05-.07-.11-.07-.18v-5.43l-1.59,1.23c-.06.04-.13.06-.19.05-.06-.01-.12-.05-.17-.11l-.44-.57c-.04-.06-.06-.13-.05-.2s.05-.13.11-.17l2.35-1.81s.08-.06.13-.06c.04,0,.09-.01.14-.01h.92c.07,0,.13.02.18.07.05.05.07.11.07.18v6.84c0,.07-.03.13-.07.18s-.11.07-.18.07h-.96Z"/>
    </g>
    <g class="cls-7">
      <path class="cls-3" d="M296.3,168.33c-.07,0-.13-.02-.18-.07s-.07-.11-.07-.18v-6.83c0-.08.02-.14.07-.19.05-.05.11-.07.18-.07h4.55c.08,0,.14.02.19.07.05.05.07.11.07.19v.73c0,.08-.02.14-.07.18s-.11.07-.19.07h-3.37v1.99h3.16c.08,0,.14.02.19.07s.07.11.07.19v.73c0,.07-.02.13-.07.18-.05.05-.11.07-.19.07h-3.16v2.6c0,.07-.02.13-.07.18s-.11.07-.19.07h-.92Z"/>
      <path class="cls-3" d="M304.22,168.33c-.07,0-.13-.02-.18-.07s-.07-.11-.07-.18v-5.8h-1.94c-.07,0-.13-.02-.18-.07s-.07-.11-.07-.18v-.78c0-.08.02-.14.07-.19.05-.05.11-.07.18-.07h5.35c.08,0,.14.02.19.07.05.05.07.11.07.19v.78c0,.07-.02.13-.07.18s-.11.07-.19.07h-1.93v5.8c0,.07-.03.13-.07.18s-.11.07-.19.07h-.96Z"/>
    </g>
    <g class="cls-7">
      <path class="cls-3" d="M184.62,168.33c-.08,0-.14-.02-.18-.07-.04-.05-.07-.11-.07-.18v-5.43l-1.59,1.23c-.06.04-.13.06-.19.05-.06-.01-.12-.05-.17-.11l-.44-.57c-.04-.06-.06-.13-.05-.2s.05-.13.11-.17l2.35-1.81s.08-.06.13-.06c.04,0,.09-.01.14-.01h.92c.07,0,.13.02.18.07.05.05.07.11.07.18v6.84c0,.07-.03.13-.07.18s-.11.07-.18.07h-.96Z"/>
      <path class="cls-3" d="M190.01,168.44c-.5,0-.92-.07-1.27-.22-.35-.15-.64-.35-.86-.61-.22-.26-.39-.56-.5-.9s-.18-.7-.2-1.09c0-.19-.01-.4-.02-.62,0-.23,0-.46,0-.69,0-.23,0-.44.02-.64.01-.38.08-.75.2-1.09.12-.34.29-.63.52-.89.23-.25.52-.45.87-.6.35-.15.77-.22,1.25-.22s.91.07,1.26.22c.35.15.64.35.87.6.23.25.4.55.51.89.12.34.18.7.19,1.09.01.2.02.41.02.64v.69c0,.23,0,.44-.02.62-.01.38-.08.75-.19,1.09-.11.34-.28.64-.5.9s-.51.46-.87.61c-.35.15-.78.22-1.27.22ZM190.01,167.23c.46,0,.79-.15,1-.45.21-.3.32-.7.33-1.21.01-.2.02-.41.02-.61v-.62c0-.21,0-.41-.02-.6,0-.5-.12-.9-.33-1.2-.21-.3-.55-.46-1-.46s-.78.15-.99.46-.33.7-.34,1.2c0,.19,0,.39,0,.6,0,.21,0,.42,0,.62,0,.21,0,.41,0,.61.01.51.13.91.35,1.21.22.3.55.45.99.45Z"/>
      <path class="cls-3" d="M193.97,169.12c-.06,0-.11-.02-.15-.06s-.05-.09-.04-.16l.28-1.78c.01-.09.05-.17.1-.24s.13-.1.24-.1h.96c.06,0,.1.02.14.06.03.04.05.09.05.14,0,.05,0,.09-.03.14l-.67,1.74c-.03.07-.07.13-.12.18-.05.05-.13.08-.23.08h-.54Z"/>
      <path class="cls-3" d="M199.48,168.44c-.46,0-.87-.06-1.24-.17-.36-.11-.67-.27-.92-.47-.25-.2-.44-.44-.57-.71-.13-.27-.19-.58-.19-.91,0-.41.1-.76.3-1.05.2-.3.46-.53.78-.69-.26-.16-.46-.37-.6-.62-.14-.25-.21-.55-.21-.88,0-.41.1-.76.31-1.06.21-.3.51-.54.9-.72.4-.17.88-.26,1.44-.26s1.05.09,1.44.26.69.41.89.71c.2.3.3.66.3,1.06,0,.34-.07.63-.21.88-.14.25-.33.46-.59.63.33.15.59.38.79.69.2.3.29.66.29,1.06,0,.44-.11.83-.34,1.17-.23.34-.56.6-1,.8-.44.19-.96.29-1.58.29ZM199.48,167.35c.27,0,.52-.05.74-.14.22-.09.4-.23.52-.4.13-.17.19-.38.19-.62s-.06-.45-.19-.62c-.13-.17-.3-.3-.52-.4-.22-.09-.47-.14-.74-.14s-.52.05-.74.14c-.22.09-.4.23-.52.4-.13.17-.19.38-.19.62s.06.44.19.62c.13.17.3.31.52.4.22.09.47.14.74.14ZM199.48,163.98c.23,0,.44-.05.63-.14.19-.08.35-.2.46-.35.12-.15.17-.32.17-.51s-.05-.38-.16-.53-.26-.27-.45-.35-.41-.13-.66-.13-.46.04-.66.13-.34.2-.45.35-.16.33-.16.53.05.38.16.52.26.26.45.35.41.13.66.13Z"/>
    </g>
  </g>
  <g>
    <rect id="Not_Repatriated_-_UNC" data-name="Not_Repatriated - UNC" class="cls-1" x="82.17" y="205.05" width="186.72" height="19.09"/>
    <rect id="Repatriated_-_UNC" data-name="Repatriated - UNC" class="cls-1" x="334.81" y="205.05" width="375.92" height="19.09"/>
    <g class="cls-7">
      <path class="cls-3" d="M294.26,217.77c-.61,0-1.14-.1-1.58-.31-.45-.21-.79-.52-1.04-.95-.24-.43-.37-.98-.37-1.65v-4.27c0-.08.02-.14.07-.19.05-.05.11-.07.18-.07h.96c.08,0,.14.02.18.07.04.05.07.11.07.19v4.27c0,.57.14,1,.41,1.27.27.28.65.41,1.12.41s.85-.14,1.12-.41c.27-.28.4-.7.4-1.27v-4.27c0-.08.02-.14.07-.19.05-.05.11-.07.19-.07h.94c.08,0,.14.02.18.07.05.05.07.11.07.19v4.27c0,.67-.12,1.22-.36,1.65s-.58.75-1.03.95-.97.31-1.59.31Z"/>
      <path class="cls-3" d="M299.07,217.67c-.07,0-.13-.02-.18-.07s-.07-.11-.07-.18v-6.83c0-.08.02-.14.07-.19.05-.05.11-.07.18-.07h.81c.1,0,.17.02.21.07.04.05.08.08.09.1l3.02,4.7v-4.6c0-.08.02-.14.07-.19.04-.05.11-.07.18-.07h.88c.08,0,.14.02.19.07.05.05.07.11.07.19v6.82c0,.08-.02.14-.07.19s-.11.07-.18.07h-.82c-.1,0-.17-.02-.21-.07s-.07-.08-.09-.09l-3.01-4.59v4.51c0,.07-.02.13-.07.18s-.11.07-.19.07h-.88Z"/>
      <path class="cls-3" d="M309.06,217.77c-.65,0-1.2-.11-1.65-.34-.45-.23-.79-.55-1.03-.98-.24-.42-.37-.93-.4-1.53,0-.29-.01-.59-.01-.92s0-.64.01-.94c.03-.59.16-1.09.4-1.52.24-.43.59-.75,1.04-.98.45-.23,1-.34,1.64-.34.48,0,.9.06,1.28.19.38.13.7.3.97.52.27.22.47.48.62.77.15.29.22.61.23.95,0,.06-.01.12-.06.16-.05.04-.1.06-.16.06h-1c-.08,0-.14-.02-.19-.06-.05-.04-.08-.1-.1-.19-.11-.46-.3-.78-.58-.94-.27-.17-.61-.25-1.02-.25-.47,0-.84.13-1.12.39-.28.26-.43.69-.45,1.3-.02.57-.02,1.16,0,1.76.02.6.17,1.03.45,1.3.28.26.65.39,1.12.39.41,0,.75-.09,1.02-.26.28-.17.47-.48.57-.94.02-.1.06-.16.1-.2.05-.03.11-.05.19-.05h1c.06,0,.12.02.16.06.04.04.06.09.06.16,0,.34-.08.66-.23.95-.15.29-.35.55-.62.77-.27.22-.59.39-.97.52-.38.13-.8.19-1.28.19Z"/>
    </g>
    <g class="cls-7">
      <path class="cls-3" d="M727.99,217.67c-.06,0-.12-.02-.16-.07-.04-.05-.06-.1-.06-.16,0-.03,0-.06.02-.09l2.53-5.77h-3.29c-.08,0-.14-.02-.18-.07-.04-.05-.07-.11-.07-.18v-.73c0-.08.02-.14.07-.19.05-.05.11-.07.18-.07h4.61c.08,0,.14.02.18.07.04.05.07.11.07.19v.65c0,.1,0,.18-.03.25-.02.07-.04.13-.07.2l-2.51,5.73s-.06.1-.11.16c-.05.06-.13.09-.23.09h-.96Z"/>
      <path class="cls-3" d="M735.37,217.78c-.6,0-1.11-.1-1.52-.3-.41-.2-.73-.46-.94-.78-.21-.32-.33-.66-.34-1.03,0-.06.01-.11.06-.15.04-.04.1-.06.16-.06h.98c.08,0,.14.02.19.05.05.03.09.09.12.16.07.21.17.38.3.51.13.13.28.23.45.29.17.06.35.09.54.09.25,0,.48-.05.69-.15.21-.1.37-.25.5-.46s.19-.45.19-.74c0-.26-.06-.48-.18-.67-.12-.19-.28-.34-.49-.45s-.44-.16-.71-.16c-.2,0-.36.02-.48.07s-.23.1-.32.17c-.09.06-.16.12-.23.17-.07.05-.14.07-.23.07h-.96c-.06,0-.12-.02-.16-.07-.04-.05-.07-.1-.07-.16l.37-3.59c0-.09.04-.16.09-.21.06-.05.12-.07.2-.07h3.94c.07,0,.13.02.18.07.05.05.07.11.07.18v.7c0,.07-.03.13-.07.18-.05.05-.11.07-.18.07h-3.03l-.17,1.71c.13-.08.29-.16.5-.24.21-.08.5-.12.87-.12.34,0,.66.05.96.16.3.11.58.27.81.47.24.21.42.45.56.74.14.29.2.62.2.99,0,.51-.12.95-.36,1.33-.24.38-.57.67-1,.88-.43.21-.93.31-1.51.31Z"/>
      <path class="cls-3" d="M739.22,218.45c-.06,0-.11-.02-.15-.06s-.05-.09-.04-.16l.28-1.78c.01-.09.05-.17.1-.24s.13-.1.24-.1h.96c.06,0,.1.02.14.06.03.04.05.09.05.14,0,.05,0,.09-.03.14l-.67,1.74c-.03.07-.07.13-.12.18-.05.05-.13.08-.23.08h-.54Z"/>
      <path class="cls-3" d="M744.57,217.78c-.6,0-1.11-.1-1.52-.3-.41-.2-.73-.46-.94-.78-.21-.32-.33-.66-.34-1.03,0-.06.01-.11.06-.15.04-.04.1-.06.16-.06h.98c.08,0,.14.02.19.05.05.03.09.09.12.16.07.21.17.38.3.51.13.13.28.23.45.29.17.06.35.09.54.09.25,0,.48-.05.69-.15.21-.1.37-.25.5-.46s.19-.45.19-.74c0-.26-.06-.48-.18-.67-.12-.19-.28-.34-.49-.45s-.44-.16-.71-.16c-.2,0-.36.02-.48.07s-.23.1-.32.17c-.09.06-.16.12-.23.17-.07.05-.14.07-.23.07h-.96c-.06,0-.12-.02-.16-.07-.04-.05-.07-.1-.07-.16l.37-3.59c0-.09.04-.16.09-.21.06-.05.12-.07.2-.07h3.94c.07,0,.13.02.18.07.05.05.07.11.07.18v.7c0,.07-.03.13-.07.18-.05.05-.11.07-.18.07h-3.03l-.17,1.71c.13-.08.29-.16.5-.24.21-.08.5-.12.87-.12.34,0,.66.05.96.16.3.11.58.27.81.47.24.21.42.45.56.74.14.29.2.62.2.99,0,.51-.12.95-.36,1.33-.24.38-.57.67-1,.88-.43.21-.93.31-1.51.31Z"/>
    </g>
    <g class="cls-7">
      <path class="cls-3" d="M49.36,217.77c-.49,0-.91-.06-1.27-.18-.36-.12-.65-.27-.89-.47s-.41-.4-.53-.63c-.12-.23-.18-.45-.19-.68,0-.06.02-.11.07-.15.05-.04.1-.06.16-.06h.94c.07,0,.13.01.18.04.05.03.09.08.13.17.06.19.17.34.31.45s.31.19.5.24.39.07.6.07c.42,0,.75-.1,1-.3.25-.2.37-.48.37-.85s-.12-.64-.35-.8c-.23-.16-.55-.25-.96-.25h-1.08c-.08,0-.14-.02-.19-.07s-.07-.11-.07-.18v-.44c0-.07.02-.13.05-.18.03-.05.06-.1.1-.13l1.88-1.84h-3c-.08,0-.14-.02-.18-.07-.05-.05-.07-.11-.07-.18v-.69c0-.08.02-.14.07-.19.04-.05.11-.07.18-.07h4.5c.08,0,.14.02.19.07.05.05.07.11.07.19v.63c0,.06-.01.12-.04.17-.03.05-.06.09-.09.13l-1.81,1.87h.12c.43.05.81.14,1.14.3s.59.39.78.69c.18.3.28.68.28,1.13s-.12.88-.37,1.22-.59.6-1.02.78c-.43.18-.93.27-1.49.27Z"/>
      <path class="cls-3" d="M54.23,217.67c-.06,0-.12-.02-.16-.07-.04-.05-.06-.1-.06-.16,0-.03,0-.06.02-.09l2.53-5.77h-3.29c-.08,0-.14-.02-.18-.07-.04-.05-.07-.11-.07-.18v-.73c0-.08.02-.14.07-.19.05-.05.11-.07.18-.07h4.61c.08,0,.14.02.18.07.04.05.07.11.07.19v.65c0,.1,0,.18-.03.25-.02.07-.04.13-.07.2l-2.51,5.73s-.06.1-.11.16c-.05.06-.13.09-.23.09h-.96Z"/>
      <path class="cls-3" d="M58.39,218.45c-.06,0-.11-.02-.15-.06s-.05-.09-.04-.16l.28-1.78c.01-.09.05-.17.1-.24s.13-.1.24-.1h.96c.06,0,.1.02.14.06.03.04.05.09.05.14,0,.05,0,.09-.03.14l-.67,1.74c-.03.07-.07.13-.12.18-.05.05-.13.08-.23.08h-.54Z"/>
      <path class="cls-3" d="M63.75,217.78c-.6,0-1.11-.1-1.52-.3-.41-.2-.73-.46-.94-.78-.21-.32-.33-.66-.34-1.03,0-.06.01-.11.06-.15.04-.04.1-.06.16-.06h.98c.08,0,.14.02.19.05.05.03.09.09.12.16.07.21.17.38.3.51.13.13.28.23.45.29.17.06.35.09.54.09.25,0,.48-.05.69-.15.21-.1.37-.25.5-.46s.19-.45.19-.74c0-.26-.06-.48-.18-.67-.12-.19-.28-.34-.49-.45s-.44-.16-.71-.16c-.2,0-.36.02-.48.07s-.23.1-.32.17c-.09.06-.16.12-.23.17-.07.05-.14.07-.23.07h-.96c-.06,0-.12-.02-.16-.07-.04-.05-.07-.1-.07-.16l.37-3.59c0-.09.04-.16.09-.21.06-.05.12-.07.2-.07h3.94c.07,0,.13.02.18.07.05.05.07.11.07.18v.7c0,.07-.03.13-.07.18-.05.05-.11.07-.18.07h-3.03l-.17,1.71c.13-.08.29-.16.5-.24.21-.08.5-.12.87-.12.34,0,.66.05.96.16.3.11.58.27.81.47.24.21.42.45.56.74.14.29.2.62.2.99,0,.51-.12.95-.36,1.33-.24.38-.57.67-1,.88-.43.21-.93.31-1.51.31Z"/>
    </g>
  </g>
  <g>
    <rect id="Not_Repatriated_-_WH" data-name="Not_Repatriated - WH" class="cls-2" x="209.64" y="254.38" width="59.25" height="19.09"/>
    <rect id="Repatriated_-_WH" data-name="Repatriated - WH" class="cls-2" x="334.81" y="254.38" width="274.85" height="19.09"/>
    <g class="cls-7">
      <path class="cls-3" d="M295.47,267c-.1,0-.19-.03-.25-.09-.06-.06-.1-.13-.12-.23l-1.25-6.72s0-.04,0-.05c0-.01,0-.02,0-.03,0-.06.02-.12.07-.16.04-.04.1-.06.15-.06h.92c.17,0,.27.07.29.21l.87,4.75.94-3.07c.02-.06.06-.11.11-.17.05-.06.13-.09.24-.09h.57c.11,0,.19.03.24.09.05.06.08.12.09.17l.96,3.06.87-4.74c.02-.14.12-.21.29-.21h.92c.06,0,.11.02.15.06.04.04.06.09.06.16v.03s0,.03-.01.05l-1.25,6.72c-.01.09-.05.17-.12.23-.06.06-.15.09-.25.09h-.7c-.1,0-.19-.03-.25-.08s-.1-.12-.12-.18l-1.18-3.5-1.17,3.5c-.03.06-.07.12-.12.18-.06.06-.14.08-.25.08h-.7Z"/>
      <path class="cls-3" d="M303.08,267c-.07,0-.13-.02-.18-.07-.05-.04-.07-.11-.07-.18v-6.83c0-.08.02-.14.07-.19s.11-.07.18-.07h.95c.08,0,.14.02.18.07s.07.11.07.19v2.71h3.09v-2.71c0-.08.02-.14.07-.19s.11-.07.18-.07h.94c.08,0,.14.02.19.07s.07.11.07.19v6.83c0,.07-.03.13-.07.18s-.11.07-.19.07h-.94c-.07,0-.13-.02-.18-.07s-.07-.11-.07-.18v-2.81h-3.09v2.81c0,.07-.02.13-.07.18s-.11.07-.18.07h-.95Z"/>
    </g>
    <g class="cls-7">
      <path class="cls-3" d="M177.88,267c-.08,0-.14-.02-.18-.07-.04-.05-.07-.11-.07-.18v-5.43l-1.59,1.23c-.06.04-.13.06-.19.05-.06,0-.12-.05-.17-.11l-.44-.57c-.04-.06-.06-.13-.05-.2.01-.07.05-.13.11-.17l2.35-1.81s.08-.06.13-.06.09-.01.14-.01h.92c.07,0,.13.02.18.07s.07.11.07.18v6.84c0,.07-.03.13-.07.18s-.11.07-.18.07h-.96Z"/>
      <path class="cls-3" d="M182.74,267c-.08,0-.14-.02-.18-.07-.04-.05-.07-.11-.07-.18v-5.43l-1.59,1.23c-.06.04-.13.06-.19.05-.06,0-.12-.05-.17-.11l-.44-.57c-.04-.06-.06-.13-.05-.2.01-.07.05-.13.11-.17l2.35-1.81s.08-.06.13-.06.09-.01.14-.01h.92c.07,0,.13.02.18.07s.07.11.07.18v6.84c0,.07-.03.13-.07.18s-.11.07-.18.07h-.96Z"/>
      <path class="cls-3" d="M185.32,267.79c-.06,0-.11-.02-.15-.06s-.05-.09-.04-.16l.28-1.78c.01-.09.05-.17.1-.24s.13-.1.24-.1h.96c.06,0,.1.02.14.06.03.04.05.09.05.14,0,.05,0,.09-.03.14l-.67,1.74c-.03.07-.07.13-.12.18-.05.05-.13.08-.23.08h-.54Z"/>
      <path class="cls-3" d="M188.94,267c-.06,0-.12-.02-.16-.07-.04-.04-.06-.1-.06-.16,0-.04,0-.06.02-.08l.03-.05,1.54-2.13c-.13.03-.28.05-.43.04-.36,0-.69-.08-.99-.21-.3-.13-.57-.3-.8-.52s-.41-.48-.54-.77c-.13-.29-.19-.61-.19-.95,0-.31.06-.62.18-.93.12-.3.3-.58.53-.82.23-.25.53-.44.88-.58.35-.14.77-.21,1.24-.21s.88.07,1.24.2.66.32.9.55c.24.23.42.5.55.8.12.3.18.62.18.96,0,.3-.05.58-.15.84-.1.26-.22.5-.36.71-.14.21-.29.42-.42.62l-1.85,2.56s-.07.08-.12.13c-.05.05-.13.08-.24.08h-.98ZM190.2,263.43c.25,0,.48-.05.69-.16.21-.11.37-.26.49-.46.12-.2.18-.44.18-.71s-.06-.52-.18-.72c-.12-.2-.29-.35-.5-.46-.21-.11-.44-.16-.68-.16s-.48.05-.69.16-.37.26-.49.46-.18.44-.18.72.06.51.18.71.29.35.49.46c.21.11.44.16.69.16Z"/>
    </g>
    <g class="cls-7">
      <path class="cls-3" d="M626.17,267.11c-.6,0-1.11-.1-1.52-.3-.41-.2-.73-.46-.94-.78-.21-.32-.33-.66-.34-1.03,0-.06.01-.11.06-.15.04-.04.1-.06.16-.06h.98c.08,0,.14.02.19.05.05.03.09.08.12.16.07.21.17.38.3.51.13.13.28.23.45.29.17.06.35.09.54.09.25,0,.48-.05.69-.15.21-.1.37-.25.5-.46s.19-.45.19-.75c0-.26-.06-.48-.18-.67-.12-.19-.28-.34-.49-.45s-.44-.16-.71-.16c-.2,0-.36.02-.48.07s-.23.1-.32.17c-.09.06-.16.12-.23.17s-.14.07-.23.07h-.96c-.06,0-.12-.02-.16-.07s-.07-.1-.07-.16l.37-3.59c0-.09.04-.16.09-.21s.12-.07.2-.07h3.94c.07,0,.13.02.18.07s.07.11.07.18v.7c0,.07-.03.13-.07.18s-.11.07-.18.07h-3.03l-.17,1.71c.13-.08.29-.16.5-.24s.5-.12.87-.12c.34,0,.66.05.96.16.3.11.58.27.81.47s.42.45.56.74c.14.29.2.62.2.99,0,.51-.12.96-.36,1.33-.24.38-.57.67-1,.88-.43.21-.93.31-1.51.31Z"/>
      <path class="cls-3" d="M632.67,267.11c-.6,0-1.11-.1-1.52-.3-.41-.2-.73-.46-.94-.78-.21-.32-.33-.66-.34-1.03,0-.06.01-.11.06-.15.04-.04.1-.06.16-.06h.98c.08,0,.14.02.19.05.05.03.09.08.12.16.07.21.17.38.3.51.13.13.28.23.45.29.17.06.35.09.54.09.25,0,.48-.05.69-.15.21-.1.37-.25.5-.46s.19-.45.19-.75c0-.26-.06-.48-.18-.67-.12-.19-.28-.34-.49-.45s-.44-.16-.71-.16c-.2,0-.36.02-.48.07s-.23.1-.32.17c-.09.06-.16.12-.23.17s-.14.07-.23.07h-.96c-.06,0-.12-.02-.16-.07s-.07-.1-.07-.16l.37-3.59c0-.09.04-.16.09-.21s.12-.07.2-.07h3.94c.07,0,.13.02.18.07s.07.11.07.18v.7c0,.07-.03.13-.07.18s-.11.07-.18.07h-3.03l-.17,1.71c.13-.08.29-.16.5-.24s.5-.12.87-.12c.34,0,.66.05.96.16.3.11.58.27.81.47s.42.45.56.74c.14.29.2.62.2.99,0,.51-.12.96-.36,1.33-.24.38-.57.67-1,.88-.43.21-.93.31-1.51.31Z"/>
      <path class="cls-3" d="M636.52,267.79c-.06,0-.11-.02-.15-.06s-.05-.09-.04-.16l.28-1.78c.01-.09.05-.17.1-.24s.13-.1.24-.1h.96c.06,0,.1.02.14.06.03.04.05.09.05.14,0,.05,0,.09-.03.14l-.67,1.74c-.03.07-.07.13-.12.18-.05.05-.13.08-.23.08h-.54Z"/>
      <path class="cls-3" d="M639.38,267c-.07,0-.13-.02-.18-.07-.05-.05-.07-.11-.07-.18v-.54c0-.06.02-.14.05-.23.03-.09.1-.18.21-.27l1.66-1.65c.46-.36.83-.67,1.12-.93.28-.26.49-.49.62-.7.13-.21.19-.42.19-.63,0-.31-.08-.57-.26-.77-.17-.2-.44-.29-.81-.29-.25,0-.45.05-.62.15s-.3.24-.39.4c-.09.17-.16.35-.19.56-.01.09-.05.15-.12.19-.06.04-.12.05-.19.05h-.93c-.06,0-.12-.02-.16-.06s-.06-.09-.06-.15c0-.3.07-.59.19-.88s.29-.54.52-.75c.23-.22.5-.4.83-.53.33-.13.7-.2,1.11-.2.58,0,1.06.1,1.44.29s.67.46.86.8c.19.34.29.71.29,1.13,0,.33-.06.63-.19.91-.13.28-.31.54-.55.8-.24.25-.52.52-.86.78l-1.49,1.51h2.99c.08,0,.14.02.18.07.05.04.07.11.07.18v.74c0,.07-.02.13-.07.18-.04.05-.11.07-.18.07h-5.01Z"/>
    </g>
  </g>
  <g>
    <path class="cls-3" d="M335.88,65.3c-.07,0-.13-.02-.18-.07s-.07-.11-.07-.18v-6.83c0-.08.02-.14.07-.19.05-.05.11-.07.18-.07h2.72c.85,0,1.51.2,2,.59s.73.96.73,1.71c0,.52-.13.95-.38,1.29-.25.34-.6.59-1.02.74l1.53,2.68s.03.08.03.12c0,.06-.02.12-.07.16-.04.04-.1.06-.15.06h-.96c-.12,0-.21-.03-.27-.09-.06-.06-.11-.13-.15-.19l-1.35-2.49h-1.46v2.52c0,.07-.02.13-.07.18s-.11.07-.18.07h-.95ZM337.09,61.35h1.48c.43,0,.75-.1.96-.29.21-.19.31-.46.31-.81s-.1-.62-.31-.82-.53-.3-.96-.3h-1.48v2.22Z"/>
    <path class="cls-3" d="M344.91,65.41c-.78,0-1.39-.22-1.85-.67-.46-.45-.7-1.08-.73-1.91,0-.07-.01-.16-.01-.27s0-.19.01-.26c.03-.53.15-.99.36-1.37.21-.38.51-.67.89-.88.38-.21.82-.31,1.33-.31.57,0,1.04.12,1.43.35s.67.56.87.98c.2.42.29.9.29,1.44v.22c0,.07-.02.13-.07.18s-.11.07-.19.07h-3.48v.08c0,.25.05.47.14.68.09.21.22.37.39.5.17.13.38.19.61.19.2,0,.36-.03.49-.09.13-.06.24-.13.33-.2.08-.08.14-.14.18-.19.06-.08.11-.13.15-.15.04-.02.1-.03.17-.03h.9c.07,0,.13.02.17.06.04.04.06.09.06.16,0,.11-.07.25-.17.41-.11.16-.26.32-.47.47-.2.15-.46.28-.76.38-.3.1-.65.15-1.04.15ZM343.76,62.1h2.32v-.03c0-.27-.04-.51-.14-.72-.09-.21-.22-.37-.4-.48-.17-.12-.38-.17-.63-.17s-.46.06-.63.17c-.18.12-.31.28-.39.48-.09.21-.13.45-.13.72v.03Z"/>
    <path class="cls-3" d="M348.88,67.3c-.07,0-.13-.02-.18-.07s-.07-.11-.07-.18v-6.94c0-.07.02-.13.07-.18.05-.05.11-.07.18-.07h.83c.08,0,.14.02.18.07.04.05.07.11.07.18v.42c.17-.22.39-.41.66-.56.27-.15.61-.22,1.02-.22.37,0,.69.06.97.18.27.12.5.29.68.51s.32.48.42.78c.1.3.15.63.17,1,0,.12.01.24.01.37s0,.25-.01.38c0,.35-.06.67-.16.97s-.24.56-.42.78-.41.39-.69.52c-.27.13-.59.19-.97.19s-.7-.07-.96-.2-.48-.32-.65-.54v2.38c0,.07-.02.13-.07.18-.04.05-.11.07-.18.07h-.89ZM351.25,64.28c.3,0,.54-.06.7-.19s.29-.3.37-.51c.08-.21.12-.44.14-.69,0-.21,0-.42,0-.63-.01-.25-.06-.48-.14-.69-.08-.21-.2-.38-.37-.51s-.4-.19-.7-.19-.52.07-.7.2c-.18.13-.31.3-.39.51-.08.21-.13.42-.14.63,0,.13,0,.26,0,.4s0,.28,0,.41c0,.21.06.41.15.6s.22.35.4.48c.17.13.4.19.68.19Z"/>
    <path class="cls-3" d="M356.64,65.41c-.36,0-.69-.07-.99-.22-.29-.14-.53-.34-.7-.58-.17-.24-.26-.51-.26-.81,0-.49.2-.88.6-1.17s.92-.48,1.56-.58l1.44-.21v-.22c0-.29-.07-.52-.22-.68-.15-.16-.4-.24-.75-.24-.25,0-.46.05-.61.15-.16.1-.27.24-.35.4-.06.09-.14.14-.24.14h-.83c-.08,0-.13-.02-.17-.06s-.06-.1-.06-.17c0-.11.05-.25.14-.41.09-.16.22-.32.4-.47.18-.15.41-.28.7-.38.29-.1.63-.16,1.04-.16.44,0,.81.05,1.12.16.3.11.55.25.73.44.18.18.32.4.4.64.08.25.13.5.13.78v3.29c0,.07-.02.13-.07.18s-.11.07-.18.07h-.85c-.08,0-.14-.02-.18-.07-.05-.05-.07-.11-.07-.18v-.41c-.09.13-.21.25-.37.37-.15.12-.34.22-.56.29-.22.07-.48.11-.78.11ZM357,64.41c.25,0,.47-.05.67-.16s.36-.27.47-.49c.12-.22.17-.5.17-.83v-.22l-1.05.17c-.41.06-.72.16-.92.3-.2.14-.3.31-.3.51,0,.15.05.29.14.39s.21.19.36.24c.15.05.3.08.46.08Z"/>
    <path class="cls-3" d="M363.51,65.3c-.42,0-.77-.07-1.06-.22-.29-.15-.5-.37-.64-.66-.14-.29-.21-.65-.21-1.09v-2.38h-.83c-.07,0-.13-.02-.18-.07s-.07-.11-.07-.19v-.6c0-.07.02-.13.07-.18.05-.05.11-.07.18-.07h.83v-1.74c0-.07.02-.13.07-.18s.11-.07.18-.07h.85c.07,0,.13.02.18.07.05.05.07.11.07.18v1.74h1.31c.07,0,.13.02.18.07.05.05.07.11.07.18v.6c0,.08-.02.14-.07.19s-.11.07-.18.07h-1.31v2.28c0,.29.05.51.15.67.1.16.28.24.53.24h.72c.07,0,.13.02.18.07.05.05.07.11.07.18v.65c0,.07-.02.13-.07.18s-.11.07-.18.07h-.85Z"/>
    <path class="cls-3" d="M365.8,65.3c-.07,0-.13-.02-.18-.07s-.07-.11-.07-.18v-4.94c0-.08.02-.14.07-.19.05-.05.11-.07.18-.07h.85c.07,0,.13.02.18.07.05.05.08.11.08.19v.43c.16-.22.37-.4.62-.51.26-.12.55-.18.89-.18h.43c.08,0,.14.02.18.07.05.05.07.11.07.18v.75c0,.07-.02.13-.07.18-.04.05-.11.07-.18.07h-.82c-.34,0-.6.09-.78.28-.18.19-.28.45-.28.78v2.88c0,.07-.02.13-.07.18-.05.05-.11.07-.19.07h-.91Z"/>
    <path class="cls-3" d="M370.13,58.95c-.07,0-.13-.02-.18-.07s-.07-.11-.07-.18v-.76c0-.07.02-.13.07-.18s.11-.07.18-.07h.95c.08,0,.14.02.19.07.05.05.07.11.07.18v.76c0,.07-.02.13-.07.18-.05.05-.11.07-.19.07h-.95ZM370.17,65.3c-.07,0-.13-.02-.18-.07s-.07-.11-.07-.18v-4.95c0-.07.02-.13.07-.18.05-.05.11-.07.18-.07h.87c.08,0,.14.02.18.07.05.05.07.11.07.18v4.95c0,.07-.02.13-.07.18-.04.05-.11.07-.18.07h-.87Z"/>
    <path class="cls-3" d="M374.27,65.41c-.36,0-.69-.07-.99-.22-.29-.14-.53-.34-.7-.58-.17-.24-.26-.51-.26-.81,0-.49.2-.88.6-1.17s.92-.48,1.56-.58l1.44-.21v-.22c0-.29-.07-.52-.22-.68-.15-.16-.4-.24-.75-.24-.25,0-.46.05-.61.15-.16.1-.27.24-.35.4-.06.09-.14.14-.24.14h-.83c-.08,0-.13-.02-.17-.06s-.06-.1-.06-.17c0-.11.05-.25.14-.41.09-.16.22-.32.4-.47.18-.15.41-.28.7-.38.29-.1.63-.16,1.04-.16.44,0,.81.05,1.12.16.3.11.55.25.73.44.18.18.32.4.4.64.08.25.13.5.13.78v3.29c0,.07-.02.13-.07.18s-.11.07-.18.07h-.85c-.08,0-.14-.02-.18-.07-.05-.05-.07-.11-.07-.18v-.41c-.09.13-.21.25-.37.37-.15.12-.34.22-.56.29-.22.07-.48.11-.78.11ZM374.63,64.41c.25,0,.47-.05.67-.16s.36-.27.47-.49c.12-.22.17-.5.17-.83v-.22l-1.05.17c-.41.06-.72.16-.92.3-.2.14-.3.31-.3.51,0,.15.05.29.14.39s.21.19.36.24c.15.05.3.08.46.08Z"/>
    <path class="cls-3" d="M381.14,65.3c-.42,0-.77-.07-1.06-.22-.29-.15-.5-.37-.64-.66-.14-.29-.21-.65-.21-1.09v-2.38h-.83c-.07,0-.13-.02-.18-.07s-.07-.11-.07-.19v-.6c0-.07.02-.13.07-.18.05-.05.11-.07.18-.07h.83v-1.74c0-.07.02-.13.07-.18s.11-.07.18-.07h.85c.07,0,.13.02.18.07.05.05.07.11.07.18v1.74h1.31c.07,0,.13.02.18.07.05.05.07.11.07.18v.6c0,.08-.02.14-.07.19s-.11.07-.18.07h-1.31v2.28c0,.29.05.51.15.67.1.16.28.24.53.24h.72c.07,0,.13.02.18.07.05.05.07.11.07.18v.65c0,.07-.02.13-.07.18s-.11.07-.18.07h-.85Z"/>
    <path class="cls-3" d="M385.53,65.41c-.78,0-1.39-.22-1.85-.67-.46-.45-.7-1.08-.73-1.91,0-.07-.01-.16-.01-.27s0-.19.01-.26c.03-.53.15-.99.36-1.37.21-.38.51-.67.89-.88.38-.21.82-.31,1.33-.31.57,0,1.04.12,1.43.35s.67.56.87.98c.2.42.29.9.29,1.44v.22c0,.07-.02.13-.07.18s-.11.07-.19.07h-3.48v.08c0,.25.05.47.14.68.09.21.22.37.39.5.17.13.38.19.61.19.2,0,.36-.03.49-.09.13-.06.24-.13.33-.2.08-.08.14-.14.18-.19.06-.08.11-.13.15-.15.04-.02.1-.03.17-.03h.9c.07,0,.13.02.17.06.04.04.06.09.06.16,0,.11-.07.25-.17.41-.11.16-.26.32-.47.47-.2.15-.46.28-.76.38-.3.1-.65.15-1.04.15ZM384.37,62.1h2.32v-.03c0-.27-.04-.51-.14-.72-.09-.21-.22-.37-.4-.48-.17-.12-.38-.17-.63-.17s-.46.06-.63.17c-.18.12-.31.28-.39.48-.09.21-.13.45-.13.72v.03Z"/>
    <path class="cls-3" d="M391.25,65.41c-.36,0-.68-.06-.96-.18-.28-.12-.5-.3-.69-.52-.18-.22-.32-.49-.42-.79s-.15-.64-.17-1c0-.13-.01-.24-.01-.34s0-.22.01-.34c.01-.35.07-.67.16-.98.09-.3.23-.56.42-.79.19-.23.42-.4.69-.53s.6-.19.96-.19.7.06.96.19c.26.13.48.3.66.5v-2.33c0-.07.02-.13.07-.18.04-.05.11-.07.18-.07h.89c.07,0,.13.02.18.07.05.05.07.11.07.18v6.94c0,.07-.02.13-.07.18-.05.05-.11.07-.18.07h-.83c-.08,0-.14-.02-.18-.07-.04-.05-.07-.11-.07-.18v-.39c-.17.22-.4.4-.67.53-.27.14-.61.21-1.01.21ZM391.64,64.28c.29,0,.53-.07.7-.2s.3-.3.39-.51c.08-.21.13-.42.14-.63,0-.13.01-.26.01-.4s0-.28-.01-.4c0-.21-.06-.41-.15-.6s-.22-.35-.4-.48c-.17-.13-.4-.19-.68-.19s-.53.06-.7.19c-.17.13-.29.3-.37.51s-.12.44-.14.69c0,.21,0,.42,0,.63.01.25.06.48.14.69.08.21.2.38.37.51.17.13.4.19.7.19Z"/>
  </g>
  <g>
    <path class="cls-3" d="M191.96,65.3c-.07,0-.13-.02-.18-.07s-.07-.11-.07-.18v-6.83c0-.08.02-.14.07-.19.05-.05.11-.07.18-.07h.81c.1,0,.17.02.21.07.04.05.08.08.09.1l3.02,4.7v-4.6c0-.08.02-.14.07-.19.04-.05.11-.07.18-.07h.88c.08,0,.14.02.19.07.05.05.07.11.07.19v6.82c0,.08-.02.14-.07.19s-.11.07-.18.07h-.82c-.1,0-.17-.02-.21-.07s-.07-.08-.09-.09l-3.01-4.59v4.51c0,.07-.02.13-.07.18s-.11.07-.19.07h-.88Z"/>
    <path class="cls-3" d="M201.41,65.41c-.56,0-1.03-.1-1.41-.29-.38-.2-.67-.47-.87-.83-.2-.36-.31-.77-.34-1.25,0-.13-.01-.28-.01-.46s0-.34.01-.46c.03-.48.15-.9.35-1.25s.5-.63.88-.82.84-.29,1.39-.29,1.01.1,1.39.29c.38.2.67.47.88.82s.32.77.35,1.25c0,.13.01.28.01.46s0,.34-.01.46c-.03.48-.14.89-.34,1.25-.2.36-.49.63-.87.83-.38.2-.85.29-1.41.29ZM201.41,64.37c.37,0,.66-.12.86-.35.2-.23.31-.58.34-1.03,0-.1.01-.24.01-.41s0-.3-.01-.41c-.02-.45-.13-.8-.34-1.03s-.49-.35-.86-.35-.66.12-.86.35c-.2.23-.32.58-.34,1.03,0,.1-.01.24-.01.41s0,.3.01.41c.02.45.13.8.34,1.03.2.23.49.35.86.35Z"/>
    <path class="cls-3" d="M207.67,65.3c-.42,0-.77-.07-1.06-.22-.29-.15-.5-.37-.64-.66-.14-.29-.21-.65-.21-1.09v-2.38h-.83c-.07,0-.13-.02-.18-.07s-.07-.11-.07-.19v-.6c0-.07.02-.13.07-.18.05-.05.11-.07.18-.07h.83v-1.74c0-.07.02-.13.07-.18s.11-.07.18-.07h.85c.07,0,.13.02.18.07.05.05.07.11.07.18v1.74h1.31c.07,0,.13.02.18.07.05.05.07.11.07.18v.6c0,.08-.02.14-.07.19s-.11.07-.18.07h-1.31v2.28c0,.29.05.51.15.67.1.16.28.24.53.24h.72c.07,0,.13.02.18.07.05.05.07.11.07.18v.65c0,.07-.02.13-.07.18s-.11.07-.18.07h-.85Z"/>
    <path class="cls-3" d="M212.36,65.3c-.07,0-.13-.02-.18-.07s-.07-.11-.07-.18v-4.94c0-.08.02-.14.07-.19.05-.05.11-.07.18-.07h.85c.07,0,.13.02.18.07.05.05.08.11.08.19v.43c.16-.22.37-.4.62-.51.26-.12.55-.18.89-.18h.43c.08,0,.14.02.18.07.05.05.07.11.07.18v.75c0,.07-.02.13-.07.18-.04.05-.11.07-.18.07h-.82c-.34,0-.6.09-.78.28-.18.19-.28.45-.28.78v2.88c0,.07-.02.13-.07.18-.05.05-.11.07-.19.07h-.91Z"/>
    <path class="cls-3" d="M218.83,65.41c-.78,0-1.39-.22-1.85-.67-.46-.45-.7-1.08-.73-1.91,0-.07-.01-.16-.01-.27s0-.19.01-.26c.03-.53.15-.99.36-1.37.21-.38.51-.67.89-.88.38-.21.82-.31,1.33-.31.57,0,1.04.12,1.43.35s.67.56.87.98c.2.42.29.9.29,1.44v.22c0,.07-.02.13-.07.18s-.11.07-.19.07h-3.48v.08c0,.25.05.47.14.68.09.21.22.37.39.5.17.13.38.19.61.19.2,0,.36-.03.49-.09.13-.06.24-.13.33-.2.08-.08.14-.14.18-.19.06-.08.11-.13.15-.15.04-.02.1-.03.17-.03h.9c.07,0,.13.02.17.06.04.04.06.09.06.16,0,.11-.07.25-.17.41-.11.16-.26.32-.47.47-.2.15-.46.28-.76.38-.3.1-.65.15-1.04.15ZM217.68,62.1h2.32v-.03c0-.27-.04-.51-.14-.72-.09-.21-.22-.37-.4-.48-.17-.12-.38-.17-.63-.17s-.46.06-.63.17c-.18.12-.31.28-.39.48-.09.21-.13.45-.13.72v.03Z"/>
    <path class="cls-3" d="M222.8,67.3c-.07,0-.13-.02-.18-.07s-.07-.11-.07-.18v-6.94c0-.07.02-.13.07-.18.05-.05.11-.07.18-.07h.83c.08,0,.14.02.18.07.04.05.07.11.07.18v.42c.17-.22.39-.41.66-.56.27-.15.61-.22,1.02-.22.37,0,.69.06.97.18.27.12.5.29.68.51s.32.48.42.78c.1.3.15.63.17,1,0,.12.01.24.01.37s0,.25-.01.38c0,.35-.06.67-.16.97s-.24.56-.42.78-.41.39-.69.52c-.27.13-.59.19-.97.19s-.7-.07-.96-.2-.48-.32-.65-.54v2.38c0,.07-.02.13-.07.18-.04.05-.11.07-.18.07h-.89ZM225.17,64.28c.3,0,.54-.06.7-.19s.29-.3.37-.51c.08-.21.12-.44.14-.69,0-.21,0-.42,0-.63-.01-.25-.06-.48-.14-.69-.08-.21-.2-.38-.37-.51s-.4-.19-.7-.19-.52.07-.7.2c-.18.13-.31.3-.39.51-.08.21-.13.42-.14.63,0,.13,0,.26,0,.4s0,.28,0,.41c0,.21.06.41.15.6s.22.35.4.48c.17.13.4.19.68.19Z"/>
    <path class="cls-3" d="M230.56,65.41c-.36,0-.69-.07-.99-.22-.29-.14-.53-.34-.7-.58-.17-.24-.26-.51-.26-.81,0-.49.2-.88.6-1.17s.92-.48,1.56-.58l1.44-.21v-.22c0-.29-.07-.52-.22-.68-.15-.16-.4-.24-.75-.24-.25,0-.46.05-.61.15-.16.1-.27.24-.35.4-.06.09-.14.14-.24.14h-.83c-.08,0-.13-.02-.17-.06s-.06-.1-.06-.17c0-.11.05-.25.14-.41.09-.16.22-.32.4-.47.18-.15.41-.28.7-.38.29-.1.63-.16,1.04-.16.44,0,.81.05,1.12.16.3.11.55.25.73.44.18.18.32.4.4.64.08.25.13.5.13.78v3.29c0,.07-.02.13-.07.18s-.11.07-.18.07h-.85c-.08,0-.14-.02-.18-.07-.05-.05-.07-.11-.07-.18v-.41c-.09.13-.21.25-.37.37-.15.12-.34.22-.56.29-.22.07-.48.11-.78.11ZM230.92,64.41c.25,0,.47-.05.67-.16s.36-.27.47-.49c.12-.22.17-.5.17-.83v-.22l-1.05.17c-.41.06-.72.16-.92.3-.2.14-.3.31-.3.51,0,.15.05.29.14.39s.21.19.36.24c.15.05.3.08.46.08Z"/>
    <path class="cls-3" d="M237.43,65.3c-.42,0-.77-.07-1.06-.22-.29-.15-.5-.37-.64-.66-.14-.29-.21-.65-.21-1.09v-2.38h-.83c-.07,0-.13-.02-.18-.07s-.07-.11-.07-.19v-.6c0-.07.02-.13.07-.18.05-.05.11-.07.18-.07h.83v-1.74c0-.07.02-.13.07-.18s.11-.07.18-.07h.85c.07,0,.13.02.18.07.05.05.07.11.07.18v1.74h1.31c.07,0,.13.02.18.07.05.05.07.11.07.18v.6c0,.08-.02.14-.07.19s-.11.07-.18.07h-1.31v2.28c0,.29.05.51.15.67.1.16.28.24.53.24h.72c.07,0,.13.02.18.07.05.05.07.11.07.18v.65c0,.07-.02.13-.07.18s-.11.07-.18.07h-.85Z"/>
    <path class="cls-3" d="M239.72,65.3c-.07,0-.13-.02-.18-.07s-.07-.11-.07-.18v-4.94c0-.08.02-.14.07-.19.05-.05.11-.07.18-.07h.85c.07,0,.13.02.18.07.05.05.08.11.08.19v.43c.16-.22.37-.4.62-.51.26-.12.55-.18.89-.18h.43c.08,0,.14.02.18.07.05.05.07.11.07.18v.75c0,.07-.02.13-.07.18-.04.05-.11.07-.18.07h-.82c-.34,0-.6.09-.78.28-.18.19-.28.45-.28.78v2.88c0,.07-.02.13-.07.18-.05.05-.11.07-.19.07h-.91Z"/>
    <path class="cls-3" d="M244.05,58.95c-.07,0-.13-.02-.18-.07s-.07-.11-.07-.18v-.76c0-.07.02-.13.07-.18s.11-.07.18-.07h.95c.08,0,.14.02.19.07.05.05.07.11.07.18v.76c0,.07-.02.13-.07.18-.05.05-.11.07-.19.07h-.95ZM244.09,65.3c-.07,0-.13-.02-.18-.07s-.07-.11-.07-.18v-4.95c0-.07.02-.13.07-.18.05-.05.11-.07.18-.07h.87c.08,0,.14.02.18.07.05.05.07.11.07.18v4.95c0,.07-.02.13-.07.18-.04.05-.11.07-.18.07h-.87Z"/>
    <path class="cls-3" d="M248.19,65.41c-.36,0-.69-.07-.99-.22-.29-.14-.53-.34-.7-.58-.17-.24-.26-.51-.26-.81,0-.49.2-.88.6-1.17s.92-.48,1.56-.58l1.44-.21v-.22c0-.29-.07-.52-.22-.68-.15-.16-.4-.24-.75-.24-.25,0-.46.05-.61.15-.16.1-.27.24-.35.4-.06.09-.14.14-.24.14h-.83c-.08,0-.13-.02-.17-.06s-.06-.1-.06-.17c0-.11.05-.25.14-.41.09-.16.22-.32.4-.47.18-.15.41-.28.7-.38.29-.1.63-.16,1.04-.16.44,0,.81.05,1.12.16.3.11.55.25.73.44.18.18.32.4.4.64.08.25.13.5.13.78v3.29c0,.07-.02.13-.07.18s-.11.07-.18.07h-.85c-.08,0-.14-.02-.18-.07-.05-.05-.07-.11-.07-.18v-.41c-.09.13-.21.25-.37.37-.15.12-.34.22-.56.29-.22.07-.48.11-.78.11ZM248.55,64.41c.25,0,.47-.05.67-.16s.36-.27.47-.49c.12-.22.17-.5.17-.83v-.22l-1.05.17c-.41.06-.72.16-.92.3-.2.14-.3.31-.3.51,0,.15.05.29.14.39s.21.19.36.24c.15.05.3.08.46.08Z"/>
    <path class="cls-3" d="M255.06,65.3c-.42,0-.77-.07-1.06-.22-.29-.15-.5-.37-.64-.66-.14-.29-.21-.65-.21-1.09v-2.38h-.83c-.07,0-.13-.02-.18-.07s-.07-.11-.07-.19v-.6c0-.07.02-.13.07-.18.05-.05.11-.07.18-.07h.83v-1.74c0-.07.02-.13.07-.18s.11-.07.18-.07h.85c.07,0,.13.02.18.07.05.05.07.11.07.18v1.74h1.31c.07,0,.13.02.18.07.05.05.07.11.07.18v.6c0,.08-.02.14-.07.19s-.11.07-.18.07h-1.31v2.28c0,.29.05.51.15.67.1.16.28.24.53.24h.72c.07,0,.13.02.18.07.05.05.07.11.07.18v.65c0,.07-.02.13-.07.18s-.11.07-.18.07h-.85Z"/>
    <path class="cls-3" d="M259.45,65.41c-.78,0-1.39-.22-1.85-.67-.46-.45-.7-1.08-.73-1.91,0-.07-.01-.16-.01-.27s0-.19.01-.26c.03-.53.15-.99.36-1.37.21-.38.51-.67.89-.88.38-.21.82-.31,1.33-.31.57,0,1.04.12,1.43.35s.67.56.87.98c.2.42.29.9.29,1.44v.22c0,.07-.02.13-.07.18s-.11.07-.19.07h-3.48v.08c0,.25.05.47.14.68.09.21.22.37.39.5.17.13.38.19.61.19.2,0,.36-.03.49-.09.13-.06.24-.13.33-.2.08-.08.14-.14.18-.19.06-.08.11-.13.15-.15.04-.02.1-.03.17-.03h.9c.07,0,.13.02.17.06.04.04.06.09.06.16,0,.11-.07.25-.17.41-.11.16-.26.32-.47.47-.2.15-.46.28-.76.38-.3.1-.65.15-1.04.15ZM258.29,62.1h2.32v-.03c0-.27-.04-.51-.14-.72-.09-.21-.22-.37-.4-.48-.17-.12-.38-.17-.63-.17s-.46.06-.63.17c-.18.12-.31.28-.39.48-.09.21-.13.45-.13.72v.03Z"/>
    <path class="cls-3" d="M265.18,65.41c-.36,0-.68-.06-.96-.18-.28-.12-.5-.3-.69-.52-.18-.22-.32-.49-.42-.79s-.15-.64-.17-1c0-.13-.01-.24-.01-.34s0-.22.01-.34c.01-.35.07-.67.16-.98.09-.3.23-.56.42-.79.19-.23.42-.4.69-.53s.6-.19.96-.19.7.06.96.19c.26.13.48.3.66.5v-2.33c0-.07.02-.13.07-.18.04-.05.11-.07.18-.07h.89c.07,0,.13.02.18.07.05.05.07.11.07.18v6.94c0,.07-.02.13-.07.18-.05.05-.11.07-.18.07h-.83c-.08,0-.14-.02-.18-.07-.04-.05-.07-.11-.07-.18v-.39c-.17.22-.4.4-.67.53-.27.14-.61.21-1.01.21ZM265.56,64.28c.29,0,.53-.07.7-.2s.3-.3.39-.51c.08-.21.13-.42.14-.63,0-.13.01-.26.01-.4s0-.28-.01-.4c0-.21-.06-.41-.15-.6s-.22-.35-.4-.48c-.17-.13-.4-.19-.68-.19s-.53.06-.7.19c-.17.13-.29.3-.37.51s-.12.44-.14.69c0,.21,0,.42,0,.63.01.25.06.48.14.69.08.21.2.38.37.51.17.13.4.19.7.19Z"/>
  </g>
  <line class="cls-6" x1="334.81" y1="77.6" x2="710.73" y2="77.6"/>
  <line class="cls-6" x1="82.17" y1="77.6" x2="268.18" y2="77.6"/>
</svg>