<?xml version="1.0" encoding="UTF-8"?>
<svg id="Layer_1" data-name="Layer 1" xmlns="http://www.w3.org/2000/svg" width="1200" height="503.18" viewBox="0 0 1200 503.18">
  <defs>
    <style>
      .cls-1 {
        fill: #0078b4;
      }

      .cls-1, .cls-2, .cls-3 {
        stroke-width: 0px;
      }

      .cls-2 {
        fill: #000;
      }

      .cls-3 {
        fill: #e37c72;
      }

      .cls-4 {
        fill: none;
        stroke: #000;
      }

      .cls-5 {
        isolation: isolate;
      }
    </style>
  </defs>
  <g>
    <g id="viz">
      <g>
        <g>
          <rect id="undefined_-_Rhinos" data-name="undefined - Rhinos" class="cls-1" x="272.76" y="115.4" width="40" height="322.8"/>
          <rect id="undefined_-_Orchideas" data-name="undefined - Orchideas" class="cls-3" x="322.33" y="349.8" width="40" height="88.4"/>
          <rect id="undefined_-_Rhinos-2" data-name="undefined - Rhinos" class="cls-1" x="512.94" y="400.6" width="40" height="37.6"/>
          <rect id="undefined_-_Orchideas-2" data-name="undefined - Orchideas" class="cls-3" x="562.51" y="252.6" width="40" height="185.6"/>
          <rect id="undefined_-_Rhinos-3" data-name="undefined - Rhinos" class="cls-1" x="753.11" y="400.2" width="40" height="38"/>
          <rect id="undefined_-_Orchideas-3" data-name="undefined - Orchideas" class="cls-3" x="802.68" y="312.2" width="40" height="126"/>
        </g>
        <g id="xAxis">
          <path class="cls-4" d="M187.72,438.2h740"/>
          <g>
            <line class="cls-4" x1="317.55" y1="438.2" x2="317.55" y2="444.2"/>
            <g>
              <path class="cls-2" d="M311.14,461.3c-.1,0-.17-.03-.23-.08-.05-.05-.09-.12-.12-.22l-1.42-7.06s-.01-.05-.01-.08v-.04c0-.06.02-.11.07-.15.04-.04.1-.07.15-.07h.57c.15,0,.24.06.26.19l1.12,5.68,1.19-3.89c.02-.07.06-.13.12-.18.05-.06.13-.08.24-.08h.41c.11,0,.19.03.24.08.05.05.08.12.1.18l1.2,3.89,1.11-5.68c.02-.12.11-.19.28-.19h.57c.06,0,.11.02.15.07.04.04.07.09.07.15,0,0,0,.02,0,.04,0,.02,0,.05,0,.08l-1.42,7.06c-.02.1-.06.17-.12.22-.06.05-.13.08-.23.08h-.43c-.1,0-.18-.03-.24-.08-.06-.05-.1-.12-.12-.2l-1.37-4.19-1.35,4.19c-.03.08-.07.15-.13.2-.05.05-.13.08-.24.08h-.43Z"/>
              <path class="cls-2" d="M318.91,461.3c-.08,0-.14-.02-.19-.07s-.07-.11-.07-.18v-7.18c0-.08.02-.15.07-.19.04-.05.11-.07.19-.07h.56c.08,0,.14.02.19.07.05.05.07.11.07.19v3.04h3.78v-3.04c0-.08.02-.15.07-.19.05-.05.11-.07.18-.07h.56c.08,0,.14.02.19.07.05.05.07.11.07.19v7.18c0,.07-.02.13-.07.18s-.11.07-.19.07h-.56c-.07,0-.13-.02-.18-.07-.05-.05-.07-.11-.07-.18v-3.16h-3.78v3.16c0,.07-.02.13-.07.18s-.11.07-.19.07h-.56Z"/>
            </g>
          </g>
          <g>
            <line class="cls-4" x1="557.72" y1="438.2" x2="557.72" y2="444.2"/>
            <g>
              <path class="cls-2" d="M551.9,461.3c-.08,0-.14-.02-.19-.07-.04-.05-.07-.11-.07-.18v-7.18c0-.08.02-.15.07-.19.04-.05.11-.07.19-.07h2.5c.75,0,1.36.11,1.83.34.46.23.8.56,1.01,1.01s.32.99.33,1.63c0,.33.01.62.01.87s0,.54-.01.86c-.01.67-.13,1.23-.33,1.68s-.54.77-.99.99c-.45.22-1.05.32-1.79.32h-2.55ZM552.72,460.37h1.67c.51,0,.91-.07,1.21-.21.3-.14.52-.36.65-.67.14-.31.21-.71.21-1.22.01-.22.02-.41.02-.58v-.5c0-.17,0-.35-.02-.57-.02-.71-.18-1.24-.51-1.58-.32-.34-.87-.51-1.63-.51h-1.62v5.83Z"/>
              <path class="cls-2" d="M562.03,461.41c-.65,0-1.2-.12-1.66-.36s-.8-.58-1.03-1.02c-.24-.44-.37-.96-.4-1.55,0-.32-.01-.67-.01-1.03s0-.71.01-1.04c.03-.59.16-1.11.4-1.55s.58-.77,1.04-1.01c.46-.24,1.01-.36,1.65-.36.51,0,.96.07,1.34.22.38.15.7.33.94.56.25.22.43.46.55.7.12.24.18.46.19.64,0,.07-.01.12-.05.16-.04.04-.1.06-.18.06h-.65c-.07,0-.13-.01-.16-.04-.03-.03-.06-.08-.09-.15-.07-.19-.17-.38-.32-.56-.15-.18-.35-.33-.61-.46s-.57-.18-.96-.18c-.59,0-1.06.16-1.41.47-.36.32-.55.84-.58,1.56-.02.65-.02,1.31,0,1.96.03.73.22,1.26.58,1.58.36.32.83.48,1.41.48.39,0,.74-.07,1.04-.22.3-.15.54-.37.72-.67.18-.3.26-.68.26-1.14v-.46h-1.65c-.07,0-.13-.02-.18-.07-.05-.05-.07-.11-.07-.19v-.35c0-.08.02-.14.07-.19.05-.05.11-.07.18-.07h2.49c.08,0,.14.02.19.07.04.05.07.11.07.19v1.06c0,.6-.12,1.13-.37,1.57-.25.45-.6.79-1.07,1.04-.47.25-1.03.37-1.67.37Z"/>
            </g>
          </g>
          <g>
            <line class="cls-4" x1="797.9" y1="438.2" x2="797.9" y2="444.2"/>
            <g>
              <path class="cls-2" d="M754.49,461.3c-.08,0-.14-.02-.19-.07s-.07-.11-.07-.18v-7.18c0-.08.02-.15.07-.19.04-.05.11-.07.19-.07h.51c.09,0,.15.02.2.06.04.04.07.07.08.09l3.65,5.61v-5.5c0-.08.02-.15.07-.19.04-.05.11-.07.19-.07h.53c.08,0,.14.02.19.07.05.05.07.11.07.19v7.17c0,.07-.02.14-.07.19-.05.05-.11.08-.18.08h-.53c-.08,0-.14-.02-.18-.07-.04-.04-.07-.07-.08-.09l-3.64-5.55v5.46c0,.07-.02.13-.07.18-.05.05-.11.07-.19.07h-.53Z"/>
              <path class="cls-2" d="M764.08,461.41c-.56,0-1.02-.11-1.4-.32-.37-.21-.66-.51-.86-.89-.2-.38-.31-.81-.33-1.29,0-.12-.01-.28-.01-.48s0-.35.01-.47c.02-.49.13-.92.34-1.3.2-.37.49-.67.86-.88.37-.21.84-.32,1.39-.32s1.01.11,1.39.32.66.51.86.88.31.81.34,1.3c0,.12.01.27.01.47s0,.35-.01.48c-.02.48-.13.92-.33,1.29-.2.38-.48.67-.86.89-.38.21-.84.32-1.4.32ZM764.08,460.56c.45,0,.82-.14,1.09-.43.27-.29.42-.71.44-1.27,0-.11.01-.25.01-.42s0-.31-.01-.42c-.02-.56-.17-.98-.44-1.27-.27-.29-.63-.43-1.09-.43s-.82.15-1.09.43c-.28.29-.42.71-.43,1.27,0,.11-.01.25-.01.42s0,.31.01.42c.01.56.16.98.43,1.27.28.29.64.43,1.09.43Z"/>
              <path class="cls-2" d="M773.09,463.72c-.5,0-.91-.07-1.23-.2-.32-.13-.57-.29-.75-.48-.18-.19-.31-.37-.38-.56-.08-.19-.12-.34-.13-.45,0-.07.02-.14.07-.19.05-.05.12-.08.18-.08h.53c.07,0,.12.01.17.04s.08.09.11.19c.04.11.11.23.2.37s.22.25.41.35c.18.1.44.15.77.15s.63-.05.87-.14c.23-.09.41-.26.53-.48.12-.23.18-.54.18-.95v-.75c-.18.23-.41.42-.69.57-.29.15-.65.23-1.08.23-.41,0-.76-.07-1.06-.21-.29-.14-.53-.34-.72-.58-.19-.25-.33-.53-.42-.84-.09-.32-.15-.65-.16-.99,0-.21,0-.41,0-.61.01-.34.07-.67.16-.99.09-.32.23-.6.42-.85.19-.25.43-.45.72-.59.29-.14.65-.21,1.06-.21.44,0,.8.08,1.09.24.29.16.53.36.71.6v-.47c0-.07.02-.14.07-.19.05-.05.11-.08.18-.08h.51c.07,0,.14.03.19.08.05.05.08.11.08.19v5.33c0,.49-.08.93-.25,1.31-.17.38-.44.68-.81.9-.38.22-.89.33-1.52.33ZM773.07,460.46c.37,0,.66-.08.89-.25s.39-.38.5-.64c.11-.26.16-.52.17-.78,0-.1,0-.23,0-.38s0-.28,0-.38c0-.26-.06-.52-.17-.78s-.27-.47-.5-.64c-.22-.17-.52-.25-.89-.25s-.66.08-.88.25c-.22.17-.38.38-.47.65-.1.27-.15.56-.17.86,0,.19,0,.38,0,.58.01.31.07.6.17.86s.25.48.47.65c.22.17.51.25.88.25Z"/>
              <path class="cls-2" d="M779.6,461.41c-.76,0-1.37-.23-1.81-.7-.45-.46-.69-1.1-.74-1.91,0-.09,0-.22,0-.37s0-.27,0-.37c.03-.52.15-.98.36-1.37s.5-.69.88-.91c.37-.21.8-.32,1.3-.32.56,0,1.03.12,1.4.35.38.23.67.57.86,1s.3.94.3,1.52v.19c0,.08-.02.14-.07.19-.05.04-.11.07-.18.07h-3.81v.1c.01.3.08.58.2.84.12.26.29.47.51.63.22.16.48.24.79.24.26,0,.48-.04.66-.12.18-.08.32-.17.43-.27.11-.1.18-.18.22-.24.07-.09.12-.14.15-.16.04-.02.09-.03.18-.03h.54c.07,0,.12.02.17.06.05.04.07.1.06.17,0,.11-.07.24-.18.4-.11.16-.27.31-.47.47-.2.15-.45.28-.75.38-.3.1-.63.15-1.01.15ZM778.1,458.02h3.01v-.03c0-.33-.06-.62-.18-.88-.12-.26-.3-.46-.52-.61-.23-.15-.5-.23-.81-.23s-.58.08-.81.23-.39.35-.51.61c-.12.26-.18.55-.18.88v.03Z"/>
              <path class="cls-2" d="M783.73,461.3c-.07,0-.13-.02-.18-.07-.05-.05-.07-.11-.07-.18v-5.21c0-.07.02-.13.07-.18.05-.05.11-.07.18-.07h.52c.07,0,.13.02.18.07s.07.11.07.18v.48c.19-.25.43-.45.72-.61.29-.16.66-.24,1.12-.24.48,0,.88.1,1.22.31s.59.5.76.87.26.8.26,1.29v3.1c0,.07-.02.13-.07.18-.05.05-.11.07-.18.07h-.55c-.07,0-.13-.02-.18-.07-.05-.05-.07-.11-.07-.18v-3.05c0-.51-.12-.92-.37-1.21-.25-.29-.62-.43-1.1-.43-.45,0-.82.15-1.09.43-.28.29-.41.69-.41,1.21v3.05c0,.07-.02.13-.07.18-.05.05-.11.07-.18.07h-.55Z"/>
              <path class="cls-2" d="M792.43,461.41c-.76,0-1.37-.23-1.82-.7-.45-.46-.69-1.1-.74-1.91,0-.09-.01-.22-.01-.37s0-.27.01-.37c.03-.52.15-.98.36-1.37s.5-.69.88-.91c.37-.21.8-.32,1.3-.32.56,0,1.03.12,1.4.35.38.23.67.57.86,1,.2.43.3.94.3,1.52v.19c0,.08-.02.14-.07.19-.05.04-.11.07-.18.07h-3.81v.1c.01.3.08.58.2.84.12.26.29.47.51.63.22.16.49.24.79.24.26,0,.48-.04.66-.12.18-.08.32-.17.43-.27.11-.1.18-.18.22-.24.07-.09.12-.14.15-.16s.1-.03.18-.03h.54c.07,0,.12.02.17.06.05.04.07.1.06.17,0,.11-.07.24-.18.4-.11.16-.27.31-.47.47s-.45.28-.75.38c-.3.1-.63.15-1.01.15ZM790.92,458.02h3.01v-.03c0-.33-.06-.62-.18-.88-.12-.26-.3-.46-.52-.61-.23-.15-.5-.23-.81-.23s-.58.08-.81.23c-.22.15-.39.35-.51.61-.12.26-.18.55-.18.88v.03Z"/>
              <path class="cls-2" d="M796.56,461.3c-.07,0-.13-.02-.18-.07-.05-.05-.07-.11-.07-.18v-5.2c0-.07.02-.14.07-.19.05-.05.11-.08.18-.08h.51c.07,0,.13.03.19.08.05.05.08.11.08.19v.48c.15-.25.35-.44.61-.56.26-.12.57-.19.93-.19h.43c.07,0,.13.02.18.07.05.05.07.11.07.18v.45c0,.07-.02.13-.07.18-.05.04-.11.07-.18.07h-.66c-.4,0-.71.12-.93.35-.23.23-.34.54-.34.94v3.23c0,.07-.03.13-.08.18s-.11.07-.19.07h-.54Z"/>
              <path class="cls-2" d="M802.08,461.41c-.37,0-.7-.07-1-.22-.3-.15-.54-.34-.73-.59-.18-.25-.28-.53-.28-.85,0-.51.21-.91.62-1.21.41-.3.95-.5,1.61-.59l1.64-.23v-.32c0-.35-.1-.63-.3-.83-.2-.2-.53-.3-.98-.3-.32,0-.59.07-.79.2s-.35.3-.43.51c-.04.11-.12.17-.23.17h-.49c-.08,0-.14-.02-.18-.07-.04-.05-.06-.1-.06-.17,0-.11.04-.25.13-.41.08-.16.21-.32.39-.47.18-.15.4-.28.68-.39.28-.11.61-.16,1.01-.16.44,0,.81.06,1.11.17.3.11.54.27.71.46s.3.41.37.65.12.49.12.74v3.56c0,.07-.02.13-.07.18s-.11.07-.18.07h-.51c-.08,0-.14-.02-.19-.07-.04-.05-.07-.11-.07-.18v-.47c-.1.13-.22.26-.38.39-.16.13-.36.24-.61.32s-.54.13-.89.13ZM802.31,460.58c.3,0,.58-.06.83-.19.25-.13.45-.33.59-.6s.21-.61.21-1.02v-.31l-1.28.19c-.52.07-.91.2-1.18.37-.26.17-.4.39-.4.65,0,.21.06.38.18.51s.28.24.46.3c.19.07.38.1.58.1Z"/>
              <path class="cls-2" d="M806.82,461.3c-.07,0-.13-.02-.18-.07-.05-.05-.07-.11-.07-.18v-7.3c0-.07.02-.13.07-.18.05-.05.11-.07.18-.07h.52c.08,0,.14.02.19.07.04.05.07.11.07.18v7.3c0,.07-.02.13-.07.18-.04.05-.11.07-.19.07h-.52Z"/>
              <path class="cls-2" d="M809.39,454.51c-.07,0-.13-.02-.18-.07s-.07-.11-.07-.18v-.59c0-.07.02-.14.07-.19.05-.05.11-.08.18-.08h.69c.07,0,.13.03.19.08.05.05.08.11.08.19v.59c0,.07-.03.13-.08.18s-.11.07-.19.07h-.69ZM809.48,461.3c-.07,0-.13-.02-.18-.07-.05-.05-.07-.11-.07-.18v-5.21c0-.07.02-.13.07-.18.05-.05.11-.07.18-.07h.53c.07,0,.13.02.18.07.05.05.07.11.07.18v5.21c0,.07-.02.13-.07.18-.05.05-.11.07-.18.07h-.53Z"/>
              <path class="cls-2" d="M811.78,461.3c-.07,0-.13-.02-.18-.07-.05-.05-.07-.11-.07-.18v-.38c0-.07.02-.13.05-.19s.07-.11.1-.17l3.04-3.86h-2.84c-.07,0-.13-.02-.18-.07-.05-.04-.07-.11-.07-.19v-.36c0-.07.02-.13.07-.18.05-.05.11-.07.18-.07h3.92c.07,0,.13.02.18.07.05.05.07.11.07.18v.41c0,.07-.02.12-.05.18-.03.05-.07.11-.1.17l-3,3.85h3.12c.08,0,.14.02.19.07.04.04.07.11.07.19v.36c0,.07-.02.13-.07.18-.04.05-.11.07-.19.07h-4.24Z"/>
              <path class="cls-2" d="M819.08,461.41c-.37,0-.7-.07-1-.22s-.54-.34-.73-.59c-.18-.25-.27-.53-.27-.85,0-.51.21-.91.62-1.21s.95-.5,1.61-.59l1.64-.23v-.32c0-.35-.1-.63-.3-.83-.2-.2-.53-.3-.98-.3-.32,0-.59.07-.79.2s-.35.3-.43.51c-.04.11-.12.17-.23.17h-.49c-.08,0-.14-.02-.18-.07-.04-.05-.06-.1-.06-.17,0-.11.04-.25.13-.41s.21-.32.39-.47c.18-.15.4-.28.68-.39.28-.11.61-.16,1.01-.16.44,0,.81.06,1.11.17.3.11.54.27.71.46.17.19.3.41.38.65.08.24.12.49.12.74v3.56c0,.07-.02.13-.07.18-.05.05-.11.07-.18.07h-.51c-.08,0-.14-.02-.19-.07s-.07-.11-.07-.18v-.47c-.1.13-.22.26-.39.39-.16.13-.36.24-.6.32s-.54.13-.89.13ZM819.31,460.58c.3,0,.58-.06.82-.19.25-.13.45-.33.59-.6.14-.27.21-.61.21-1.02v-.31l-1.28.19c-.52.07-.91.2-1.18.37-.26.17-.4.39-.4.65,0,.21.06.38.18.51s.27.24.46.3c.19.07.38.1.58.1Z"/>
              <path class="cls-2" d="M825.79,461.3c-.41,0-.74-.08-1-.24-.26-.16-.44-.38-.56-.67-.12-.29-.18-.63-.18-1.03v-2.9h-.86c-.07,0-.13-.02-.18-.07-.05-.05-.07-.11-.07-.18v-.37c0-.07.02-.13.07-.18.05-.05.11-.07.18-.07h.86v-1.84c0-.07.02-.13.07-.18s.11-.07.18-.07h.52c.07,0,.13.02.18.07.05.05.07.11.07.18v1.84h1.36c.08,0,.14.02.19.07.04.05.07.11.07.18v.37c0,.07-.02.13-.07.18-.04.05-.11.07-.19.07h-1.36v2.83c0,.34.06.62.18.81s.33.3.63.3h.67c.07,0,.13.02.18.07s.07.11.07.18v.4c0,.07-.02.13-.07.18-.05.05-.11.07-.18.07h-.76Z"/>
              <path class="cls-2" d="M828.03,454.51c-.07,0-.13-.02-.18-.07s-.07-.11-.07-.18v-.59c0-.07.02-.14.07-.19.05-.05.11-.08.18-.08h.69c.07,0,.14.03.19.08.05.05.08.11.08.19v.59c0,.07-.03.13-.08.18s-.11.07-.19.07h-.69ZM828.11,461.3c-.07,0-.13-.02-.18-.07-.05-.05-.07-.11-.07-.18v-5.21c0-.07.02-.13.07-.18.05-.05.11-.07.18-.07h.53c.07,0,.13.02.18.07.05.05.07.11.07.18v5.21c0,.07-.02.13-.07.18-.05.05-.11.07-.18.07h-.53Z"/>
              <path class="cls-2" d="M832.87,461.41c-.56,0-1.02-.11-1.4-.32-.37-.21-.66-.51-.86-.89-.2-.38-.31-.81-.33-1.29,0-.12-.01-.28-.01-.48s0-.35.01-.47c.02-.49.13-.92.34-1.3.2-.37.49-.67.86-.88.37-.21.84-.32,1.39-.32s1.01.11,1.39.32.66.51.86.88.31.81.34,1.3c0,.12.01.27.01.47s0,.35-.01.48c-.02.48-.13.92-.33,1.29-.2.38-.48.67-.86.89-.38.21-.84.32-1.4.32ZM832.87,460.56c.45,0,.82-.14,1.09-.43.27-.29.42-.71.44-1.27,0-.11.01-.25.01-.42s0-.31-.01-.42c-.02-.56-.17-.98-.44-1.27-.27-.29-.63-.43-1.09-.43s-.82.15-1.09.43c-.28.29-.42.71-.43,1.27,0,.11-.01.25-.01.42s0,.31.01.42c.01.56.16.98.43,1.27.28.29.64.43,1.09.43Z"/>
              <path class="cls-2" d="M837.09,461.3c-.07,0-.13-.02-.18-.07-.05-.05-.07-.11-.07-.18v-5.21c0-.07.02-.13.07-.18.05-.05.11-.07.18-.07h.52c.07,0,.13.02.18.07.05.05.07.11.07.18v.48c.19-.25.43-.45.72-.61.29-.16.66-.24,1.12-.24s.88.1,1.21.31.59.5.76.87c.17.37.26.8.26,1.29v3.1c0,.07-.02.13-.07.18s-.11.07-.18.07h-.55c-.07,0-.13-.02-.18-.07s-.07-.11-.07-.18v-3.05c0-.51-.12-.92-.37-1.21-.25-.29-.62-.43-1.1-.43-.46,0-.82.15-1.09.43-.28.29-.41.69-.41,1.21v3.05c0,.07-.02.13-.07.18s-.11.07-.18.07h-.55Z"/>
            </g>
          </g>
        </g>
        <g id="yAxis">
          <path class="cls-4" d="M187.72,438.2V78.2"/>
          <g>
            <line class="cls-4" x1="187.72" y1="438.2" x2="181.72" y2="438.2"/>
            <path class="cls-2" d="M173.16,441.51c-.51,0-.93-.08-1.28-.24-.35-.16-.63-.38-.85-.65-.22-.28-.38-.6-.48-.96s-.16-.74-.17-1.14c0-.2-.01-.41-.02-.63,0-.22,0-.44,0-.67,0-.23,0-.44.02-.65,0-.4.06-.78.17-1.14s.27-.68.49-.95c.22-.27.5-.49.85-.65.35-.16.77-.24,1.27-.24s.93.08,1.28.24c.35.16.63.37.85.65.22.28.38.59.49.95.11.36.16.74.17,1.14,0,.21.01.42.02.65s0,.45,0,.67,0,.43-.02.63c0,.4-.06.78-.17,1.14-.11.36-.27.68-.48.96-.22.28-.5.5-.85.65-.35.16-.78.24-1.29.24ZM173.16,440.56c.57,0,1-.19,1.27-.56.28-.37.42-.89.42-1.54.01-.21.02-.42.02-.62v-.6c0-.2,0-.4-.02-.6,0-.64-.15-1.15-.42-1.54-.27-.38-.7-.58-1.27-.58s-.98.19-1.26.58c-.27.39-.42.9-.43,1.54,0,.2,0,.4,0,.6,0,.2,0,.4,0,.6,0,.2,0,.41,0,.62.01.65.16,1.17.44,1.54s.7.56,1.25.56Z"/>
          </g>
          <g>
            <line class="cls-4" x1="187.72" y1="398.2" x2="181.72" y2="398.2"/>
            <g>
              <path class="cls-2" d="M164.79,401.4c-.07,0-.13-.02-.18-.07s-.07-.11-.07-.18v-6.16l-1.83,1.41c-.06.04-.12.06-.19.05-.07,0-.12-.04-.16-.1l-.29-.36c-.04-.07-.06-.13-.05-.2.01-.07.05-.12.1-.17l2.4-1.85c.05-.04.1-.06.14-.07.04,0,.09-.01.14-.01h.56c.07,0,.13.02.18.07.05.05.07.11.07.18v7.19c0,.07-.02.13-.07.18-.05.05-.11.07-.18.07h-.58Z"/>
              <path class="cls-2" d="M169.95,401.51c-.51,0-.93-.08-1.28-.24-.35-.16-.63-.38-.85-.65-.22-.28-.38-.6-.48-.96-.1-.36-.16-.74-.17-1.14,0-.2-.01-.41-.02-.63,0-.22,0-.44,0-.67,0-.23,0-.44.02-.65,0-.4.06-.78.17-1.14.11-.36.27-.68.49-.95.22-.27.5-.49.85-.65.35-.16.77-.24,1.27-.24s.93.08,1.28.24c.35.16.63.37.85.65.22.28.38.59.49.95s.16.74.17,1.14c0,.21.01.42.02.65s0,.45,0,.67,0,.43-.02.63c0,.4-.06.78-.17,1.14s-.27.68-.48.96c-.22.28-.5.5-.85.65-.35.16-.78.24-1.29.24ZM169.95,400.56c.57,0,1-.19,1.27-.56.28-.37.42-.89.42-1.54.02-.21.02-.42.02-.62v-.6c0-.2,0-.4-.02-.6,0-.64-.15-1.15-.42-1.54-.27-.38-.7-.58-1.27-.58s-.98.19-1.26.58c-.28.39-.42.9-.43,1.54,0,.2,0,.4,0,.6,0,.2,0,.4,0,.6,0,.2,0,.41,0,.62.01.65.16,1.17.44,1.54.28.37.7.56,1.25.56Z"/>
            </g>
          </g>
          <g>
            <line class="cls-4" x1="187.72" y1="358.2" x2="181.72" y2="358.2"/>
            <g>
              <path class="cls-2" d="M161.67,361.4c-.07,0-.13-.02-.18-.07s-.07-.11-.07-.18v-.35c0-.07.02-.14.06-.22.04-.08.11-.17.22-.26l2.33-2.33c.38-.32.67-.58.89-.81.21-.22.37-.44.46-.64s.14-.42.14-.64c0-.42-.12-.75-.35-1-.23-.25-.58-.37-1.04-.37-.29,0-.55.06-.76.18-.21.12-.38.29-.5.5s-.2.45-.24.71c-.01.1-.05.16-.12.2-.06.04-.12.05-.17.05h-.57c-.07,0-.12-.02-.17-.06-.04-.04-.07-.09-.07-.15,0-.28.07-.56.18-.84.11-.28.27-.54.49-.77.22-.23.48-.42.8-.56.32-.14.69-.21,1.12-.21.58,0,1.05.1,1.43.31.37.21.64.49.82.83s.26.72.26,1.13c0,.32-.06.62-.17.89-.11.27-.27.53-.48.78-.21.25-.47.51-.78.78l-2.11,2.14h3.43c.08,0,.14.02.19.07.05.04.07.11.07.19v.45c0,.07-.02.13-.07.18-.05.05-.11.07-.19.07h-4.85Z"/>
              <path class="cls-2" d="M170.82,361.51c-.51,0-.93-.08-1.28-.24-.35-.16-.63-.38-.85-.65-.22-.28-.38-.6-.48-.96-.1-.36-.16-.74-.17-1.14,0-.2-.01-.41-.02-.63,0-.22,0-.44,0-.67,0-.23,0-.44.02-.65,0-.4.06-.78.17-1.14.11-.36.27-.68.49-.95.22-.27.5-.49.85-.65.35-.16.77-.24,1.27-.24s.93.08,1.28.24c.35.16.63.37.85.65.22.28.38.59.49.95s.16.74.17,1.14c0,.21.01.42.02.65s0,.45,0,.67,0,.43-.02.63c0,.4-.06.78-.17,1.14s-.27.68-.48.96c-.22.28-.5.5-.85.65-.35.16-.78.24-1.29.24ZM170.82,360.56c.57,0,1-.19,1.27-.56.28-.37.42-.89.42-1.54.02-.21.02-.42.02-.62v-.6c0-.2,0-.4-.02-.6,0-.64-.15-1.15-.42-1.54-.27-.38-.7-.58-1.27-.58s-.98.19-1.26.58c-.28.39-.42.9-.43,1.54,0,.2,0,.4,0,.6,0,.2,0,.4,0,.6,0,.2,0,.41,0,.62.01.65.16,1.17.44,1.54.28.37.7.56,1.25.56Z"/>
            </g>
          </g>
          <g>
            <line class="cls-4" x1="187.72" y1="318.2" x2="181.72" y2="318.2"/>
            <g>
              <path class="cls-2" d="M164.08,321.51c-.46,0-.87-.06-1.21-.17-.35-.11-.63-.27-.87-.46-.23-.19-.41-.4-.53-.63-.12-.23-.19-.46-.19-.7,0-.07.02-.12.07-.16.04-.04.1-.06.17-.06h.54c.07,0,.13.02.18.05.06.03.1.1.13.19.07.26.2.47.38.62.18.15.39.25.63.3.24.05.48.08.72.08.51,0,.92-.12,1.23-.36.32-.24.47-.6.47-1.07s-.14-.82-.43-1.02c-.29-.21-.68-.31-1.19-.31h-1.05c-.07,0-.13-.02-.18-.07s-.07-.11-.07-.19v-.3c0-.07.01-.12.04-.17s.05-.09.08-.13l2.13-2.33h-3.25c-.07,0-.13-.02-.18-.07s-.07-.11-.07-.19v-.42c0-.08.02-.15.07-.19.05-.05.11-.07.18-.07h4.39c.08,0,.14.02.19.07.05.05.07.11.07.19v.4c0,.05-.01.1-.04.14s-.05.08-.08.12l-2.12,2.37h.18c.48.03.91.11,1.27.27.36.16.64.4.85.72.2.32.3.72.3,1.21s-.12.91-.36,1.25c-.24.34-.57.61-1,.8-.42.19-.9.28-1.45.28Z"/>
              <path class="cls-2" d="M170.9,321.51c-.51,0-.93-.08-1.28-.24-.35-.16-.63-.38-.85-.65-.22-.28-.38-.6-.48-.96s-.16-.74-.17-1.14c0-.2-.01-.41-.02-.63,0-.22,0-.44,0-.67,0-.23,0-.44.02-.65,0-.4.06-.78.17-1.14s.27-.68.49-.95c.22-.27.5-.49.85-.65.35-.16.77-.24,1.27-.24s.93.08,1.28.24c.35.16.63.37.85.65.22.28.38.59.49.95.11.36.16.74.17,1.14,0,.21.01.42.02.65s0,.45,0,.67,0,.43-.02.63c0,.4-.06.78-.17,1.14-.11.36-.27.68-.48.96-.22.28-.5.5-.85.65-.35.16-.78.24-1.29.24ZM170.9,320.56c.57,0,1-.19,1.27-.56.28-.37.42-.89.42-1.54.01-.21.02-.42.02-.62v-.6c0-.2,0-.4-.02-.6,0-.64-.15-1.15-.42-1.54-.27-.38-.7-.58-1.27-.58s-.98.19-1.26.58c-.27.39-.42.9-.43,1.54,0,.2,0,.4,0,.6,0,.2,0,.4,0,.6,0,.2,0,.41,0,.62.01.65.16,1.17.44,1.54s.7.56,1.25.56Z"/>
            </g>
          </g>
          <g>
            <line class="cls-4" x1="187.72" y1="278.2" x2="181.72" y2="278.2"/>
            <g>
              <path class="cls-2" d="M165.1,281.4c-.07,0-.13-.02-.18-.07-.05-.05-.07-.11-.07-.18v-1.58h-3.56c-.07,0-.13-.02-.18-.07-.05-.05-.07-.11-.07-.18v-.44s0-.08.03-.14c.02-.06.05-.13.09-.19l3.3-4.65c.09-.12.22-.19.41-.19h.79c.07,0,.13.02.18.07.05.05.07.11.07.18v4.65h.99c.08,0,.14.02.19.07.05.05.07.11.07.18v.45c0,.07-.02.13-.07.18-.05.05-.11.07-.18.07h-1v1.58c0,.07-.02.13-.07.18-.05.05-.11.07-.18.07h-.55ZM162.21,278.63h2.65v-3.77l-2.65,3.77Z"/>
              <path class="cls-2" d="M171.01,281.51c-.51,0-.93-.08-1.28-.24-.35-.16-.63-.38-.85-.65-.22-.28-.38-.6-.48-.96s-.16-.74-.17-1.14c0-.2-.01-.41-.02-.63s0-.44,0-.67,0-.44.02-.65c0-.4.06-.78.17-1.14s.27-.68.49-.95c.22-.27.5-.49.85-.65.35-.16.77-.24,1.27-.24s.93.08,1.28.24c.35.16.63.37.85.65.22.28.38.59.49.95.11.36.16.74.17,1.14,0,.21.01.42.02.65,0,.23,0,.45,0,.67,0,.22,0,.43-.02.63,0,.4-.06.78-.17,1.14-.11.36-.27.68-.48.96-.22.28-.5.5-.85.65-.35.16-.78.24-1.29.24ZM171.01,280.56c.57,0,1-.19,1.27-.56s.42-.89.42-1.54c.01-.21.02-.42.02-.62v-.6c0-.2,0-.4-.02-.6,0-.64-.15-1.15-.42-1.54-.28-.38-.7-.58-1.27-.58s-.98.19-1.26.58c-.28.39-.42.9-.44,1.54,0,.2,0,.4,0,.6,0,.2,0,.4,0,.6,0,.2,0,.41,0,.62.02.65.16,1.17.44,1.54s.7.56,1.25.56Z"/>
            </g>
          </g>
          <g>
            <line class="cls-4" x1="187.72" y1="238.2" x2="181.72" y2="238.2"/>
            <g>
              <path class="cls-2" d="M164.05,241.51c-.58,0-1.07-.1-1.47-.3-.4-.2-.7-.46-.91-.79-.21-.32-.32-.66-.34-1.02,0-.07.01-.12.05-.16.04-.04.1-.06.17-.06h.59c.07,0,.12.02.18.05.05.03.09.1.12.19.07.27.19.49.36.67s.36.3.57.37.44.12.68.12c.32,0,.6-.06.86-.19.26-.13.47-.32.62-.57.15-.25.23-.56.23-.92,0-.33-.08-.61-.23-.85-.15-.24-.36-.42-.62-.55-.26-.13-.55-.19-.88-.19-.24,0-.44.03-.59.09s-.28.13-.39.21c-.11.08-.2.15-.29.21-.08.06-.18.09-.28.09h-.57c-.07,0-.12-.02-.18-.07-.05-.05-.07-.1-.07-.17l.35-3.67c0-.09.03-.16.08-.2s.11-.07.19-.07h3.84c.07,0,.13.02.18.07.05.05.07.11.07.18v.43c0,.08-.02.14-.07.19-.05.04-.11.07-.18.07h-3.17l-.21,2.17c.11-.07.28-.15.5-.24.22-.09.53-.14.93-.14.37,0,.71.05,1.03.17.32.11.6.27.85.48.25.21.44.47.58.78.14.3.21.66.21,1.05,0,.56-.12,1.03-.36,1.42s-.58.68-1,.89c-.43.2-.91.3-1.45.3Z"/>
              <path class="cls-2" d="M170.86,241.51c-.51,0-.93-.08-1.28-.24-.35-.16-.63-.38-.85-.65-.22-.28-.38-.6-.48-.96-.1-.36-.16-.74-.17-1.14,0-.2-.01-.41-.02-.63s0-.44,0-.67,0-.44.02-.65c0-.4.06-.78.17-1.14.11-.36.27-.68.49-.95.22-.27.5-.49.85-.65.35-.16.77-.24,1.27-.24s.93.08,1.28.24c.35.16.63.37.85.65.22.28.38.59.49.95s.16.74.17,1.14c0,.21.01.42.02.65,0,.23,0,.45,0,.67,0,.22,0,.43-.02.63,0,.4-.06.78-.17,1.14s-.27.68-.48.96c-.22.28-.5.5-.85.65-.35.16-.78.24-1.29.24ZM170.86,240.56c.57,0,1-.19,1.27-.56s.42-.89.42-1.54c.01-.21.02-.42.02-.62v-.6c0-.2,0-.4-.02-.6,0-.64-.15-1.15-.42-1.54-.28-.38-.7-.58-1.27-.58s-.98.19-1.26.58c-.27.39-.42.9-.43,1.54,0,.2,0,.4,0,.6,0,.2,0,.4,0,.6,0,.2,0,.41,0,.62.01.65.16,1.17.44,1.54.28.37.7.56,1.25.56Z"/>
            </g>
          </g>
          <g>
            <line class="cls-4" x1="187.72" y1="198.2" x2="181.72" y2="198.2"/>
            <g>
              <path class="cls-2" d="M164.18,201.51c-.61,0-1.13-.12-1.55-.37-.43-.25-.75-.57-.97-.97-.22-.4-.33-.83-.33-1.3,0-.22.03-.43.08-.63.05-.2.12-.39.21-.57s.17-.34.25-.48c.08-.14.16-.26.23-.35l2.09-2.92s.08-.08.13-.14c.05-.06.13-.08.23-.08h.58c.07,0,.12.02.16.07.04.05.06.1.06.17,0,.03,0,.06-.01.08,0,.03-.02.05-.03.06l-1.61,2.24c.09-.03.19-.05.31-.06.12-.01.22-.02.32-.02.4,0,.77.08,1.1.22.33.14.62.33.85.57s.42.51.54.83c.12.31.19.64.19,1,0,.46-.11.89-.33,1.3-.22.4-.54.73-.96.98-.42.25-.93.37-1.53.37ZM164.17,200.58c.31,0,.59-.07.86-.2.26-.13.48-.32.64-.58s.25-.57.25-.94-.08-.68-.24-.93c-.16-.25-.38-.44-.64-.57-.27-.13-.56-.19-.86-.19s-.59.06-.86.19c-.26.13-.48.32-.64.57s-.25.56-.25.93.08.69.25.94.38.45.64.58c.26.13.55.2.86.2Z"/>
              <path class="cls-2" d="M170.91,201.51c-.51,0-.93-.08-1.28-.24-.35-.16-.63-.38-.85-.65-.22-.28-.38-.6-.48-.96s-.16-.74-.17-1.14c0-.2-.01-.41-.02-.63s0-.44,0-.67,0-.44.02-.65c0-.4.06-.78.17-1.14s.27-.68.49-.95c.22-.27.5-.49.85-.65.35-.16.77-.24,1.27-.24s.93.08,1.28.24c.35.16.63.37.85.65.22.28.38.59.49.95.11.36.16.74.17,1.14,0,.21.01.42.02.65,0,.23,0,.45,0,.67,0,.22,0,.43-.02.63,0,.4-.06.78-.17,1.14-.11.36-.27.68-.48.96-.22.28-.5.5-.85.65-.35.16-.78.24-1.29.24ZM170.91,200.56c.57,0,1-.19,1.27-.56s.42-.89.42-1.54c.01-.21.02-.42.02-.62v-.6c0-.2,0-.4-.02-.6,0-.64-.15-1.15-.42-1.54-.28-.38-.7-.58-1.27-.58s-.98.19-1.26.58c-.28.39-.42.9-.44,1.54,0,.2,0,.4,0,.6,0,.2,0,.4,0,.6,0,.2,0,.41,0,.62.02.65.16,1.17.44,1.54s.7.56,1.25.56Z"/>
            </g>
          </g>
          <g>
            <line class="cls-4" x1="187.72" y1="158.2" x2="181.72" y2="158.2"/>
            <g>
              <path class="cls-2" d="M162.92,161.4c-.07,0-.12-.02-.16-.07-.04-.05-.06-.1-.06-.17,0-.02,0-.05.02-.1l2.74-6.4h-3.61c-.07,0-.13-.02-.18-.07-.05-.05-.07-.11-.07-.18v-.44c0-.08.02-.15.07-.19.05-.05.11-.07.18-.07h4.51c.09,0,.15.02.2.07.04.05.07.11.07.19v.41c0,.1,0,.17-.02.23-.02.06-.04.12-.07.2l-2.71,6.32c-.03.06-.07.12-.12.18-.05.06-.12.09-.2.09h-.59Z"/>
              <path class="cls-2" d="M170.41,161.51c-.51,0-.93-.08-1.28-.24-.35-.16-.63-.38-.85-.65-.22-.28-.38-.6-.48-.96-.1-.36-.16-.74-.17-1.14,0-.2-.01-.41-.02-.63s0-.44,0-.67,0-.44.02-.65c0-.4.06-.78.17-1.14.11-.36.27-.68.49-.95.22-.27.5-.49.85-.65.35-.16.77-.24,1.27-.24s.93.08,1.28.24c.35.16.63.37.85.65.22.28.38.59.49.95s.16.74.17,1.14c0,.21.01.42.02.65,0,.23,0,.45,0,.67,0,.22,0,.43-.02.63,0,.4-.06.78-.17,1.14s-.27.68-.48.96c-.22.28-.5.5-.85.65-.35.16-.78.24-1.29.24ZM170.41,160.56c.57,0,1-.19,1.27-.56s.42-.89.42-1.54c.01-.21.02-.42.02-.62v-.6c0-.2,0-.4-.02-.6,0-.64-.15-1.15-.42-1.54-.28-.38-.7-.58-1.27-.58s-.98.19-1.26.58c-.27.39-.42.9-.43,1.54,0,.2,0,.4,0,.6,0,.2,0,.4,0,.6,0,.2,0,.41,0,.62.01.65.16,1.17.44,1.54.28.37.7.56,1.25.56Z"/>
            </g>
          </g>
          <g>
            <line class="cls-4" x1="187.72" y1="118.2" x2="181.72" y2="118.2"/>
            <g>
              <path class="cls-2" d="M164.11,121.51c-.42,0-.82-.05-1.17-.16-.36-.11-.66-.26-.91-.47-.25-.21-.45-.45-.59-.73-.14-.28-.21-.6-.21-.96,0-.45.11-.83.32-1.16.22-.32.5-.57.86-.74-.29-.17-.51-.39-.67-.66s-.24-.59-.24-.97c0-.44.11-.81.32-1.12.22-.3.52-.54.91-.71.39-.17.85-.25,1.37-.25s.97.08,1.36.25.7.4.91.71c.22.31.33.68.33,1.11,0,.37-.08.7-.24.97-.16.28-.38.5-.66.67.36.17.65.41.86.74.22.32.32.71.32,1.16,0,.48-.12.89-.36,1.24-.24.35-.58.62-1.01.8-.43.19-.94.28-1.51.28ZM164.11,120.63c.34,0,.64-.06.91-.18.27-.12.49-.28.65-.5.16-.22.24-.47.24-.76s-.08-.56-.24-.76c-.16-.21-.38-.37-.65-.48-.27-.11-.58-.17-.91-.17s-.64.06-.92.17c-.27.11-.49.28-.65.48-.16.21-.24.46-.24.76s.08.55.24.76c.16.22.38.38.65.5.28.12.58.18.92.18ZM164.11,116.9c.28,0,.54-.05.78-.15.24-.1.43-.24.57-.42.14-.18.21-.39.21-.64s-.07-.47-.2-.65c-.14-.18-.32-.32-.56-.42-.24-.1-.5-.15-.8-.15s-.56.05-.8.15c-.24.1-.43.24-.57.42-.14.18-.21.4-.21.65s.07.47.21.65c.14.18.33.32.57.41.24.09.5.14.8.14Z"/>
              <path class="cls-2" d="M171.09,121.51c-.51,0-.93-.08-1.28-.24-.35-.16-.63-.38-.85-.65-.22-.28-.38-.6-.48-.96-.1-.36-.16-.74-.17-1.14,0-.2-.01-.41-.02-.63,0-.22,0-.44,0-.67,0-.23,0-.44.02-.65,0-.4.06-.78.17-1.14.11-.36.27-.68.49-.95.22-.27.5-.49.85-.65.35-.16.77-.24,1.27-.24s.93.08,1.28.24c.35.16.63.37.85.65.22.28.38.59.49.95s.16.74.17,1.14c0,.21.01.42.02.65s0,.45,0,.67,0,.43-.02.63c0,.4-.06.78-.17,1.14s-.27.68-.48.96c-.22.28-.5.5-.85.65-.35.16-.78.24-1.29.24ZM171.09,120.56c.57,0,1-.19,1.27-.56.28-.37.42-.89.42-1.54.02-.21.02-.42.02-.62v-.6c0-.2,0-.4-.02-.6,0-.64-.15-1.15-.42-1.54-.27-.38-.7-.58-1.27-.58s-.98.19-1.26.58c-.28.39-.42.9-.43,1.54,0,.2,0,.4,0,.6,0,.2,0,.4,0,.6,0,.2,0,.41,0,.62.01.65.16,1.17.44,1.54.28.37.7.56,1.25.56Z"/>
            </g>
          </g>
          <g>
            <line class="cls-4" x1="187.72" y1="78.2" x2="181.72" y2="78.2"/>
            <g>
              <path class="cls-2" d="M162.97,81.4c-.07,0-.12-.02-.16-.07-.04-.05-.06-.1-.06-.17,0-.04,0-.07.02-.09.01-.02.02-.04.03-.05l1.68-2.34c-.18.04-.38.07-.59.07-.4,0-.77-.08-1.09-.22s-.6-.33-.83-.57c-.23-.24-.4-.51-.52-.81-.12-.3-.18-.62-.18-.95s.06-.64.17-.95c.11-.31.29-.59.52-.84.23-.25.52-.45.87-.6.35-.15.75-.22,1.22-.22s.87.07,1.21.21c.35.14.64.34.88.58.24.25.41.52.53.83.11.31.17.63.17.96,0,.3-.04.58-.13.82-.09.25-.19.47-.31.67-.12.2-.24.38-.35.55l-2.12,2.96s-.07.08-.12.14c-.05.05-.13.08-.23.08h-.59ZM164.04,77.85c.31,0,.59-.07.85-.2.26-.14.47-.33.62-.57.15-.25.23-.54.23-.89s-.08-.64-.23-.89c-.15-.25-.36-.44-.62-.57-.26-.13-.54-.2-.85-.2s-.58.07-.84.2c-.26.14-.46.33-.62.57-.15.25-.23.54-.23.89s.08.64.23.89c.15.25.36.44.62.57.26.14.54.2.84.2Z"/>
              <path class="cls-2" d="M170.86,81.51c-.51,0-.93-.08-1.28-.24-.35-.16-.63-.38-.85-.65-.22-.28-.38-.6-.48-.96s-.16-.74-.17-1.14c0-.2-.01-.41-.02-.63s0-.44,0-.67,0-.44.02-.65c0-.4.06-.78.17-1.14s.27-.68.49-.95c.22-.27.5-.49.85-.65.35-.16.77-.24,1.27-.24s.93.08,1.28.24c.35.16.63.37.85.65.22.28.38.59.49.95.11.36.16.74.17,1.14,0,.21.01.42.02.65,0,.23,0,.45,0,.67,0,.22,0,.43-.02.63,0,.4-.06.78-.17,1.14-.11.36-.27.68-.48.96-.22.28-.5.5-.85.65-.35.16-.78.24-1.29.24ZM170.86,80.56c.57,0,1-.19,1.27-.56s.42-.89.42-1.54c.01-.21.02-.42.02-.62v-.6c0-.2,0-.4-.02-.6,0-.64-.15-1.15-.42-1.54-.28-.38-.7-.58-1.27-.58s-.98.19-1.26.58c-.28.39-.42.9-.44,1.54,0,.2,0,.4,0,.6,0,.2,0,.4,0,.6,0,.2,0,.41,0,.62.02.65.16,1.17.44,1.54s.7.56,1.25.56Z"/>
            </g>
          </g>
        </g>
      </g>
    </g>
    <g id="legend">
      <g>
        <g>
          <rect class="cls-3" x="942.72" y="91.59" width="15" height="15"/>
          <g class="cls-5">
            <path class="cls-2" d="M968.45,104.2c-.63,0-1.17-.11-1.62-.33-.45-.22-.79-.55-1.03-1-.24-.45-.38-1.02-.41-1.7,0-.32-.01-.63-.01-.93s0-.61.01-.93c.03-.67.17-1.24.42-1.69.25-.45.61-.79,1.06-1.01.45-.22.98-.33,1.58-.33s1.12.11,1.57.33c.45.22.8.56,1.06,1.01.26.45.4,1.01.42,1.69.01.32.02.63.02.93s0,.61-.02.93c-.02.68-.16,1.25-.4,1.7-.25.45-.59.79-1.04,1-.45.22-.98.33-1.61.33ZM968.45,103.27c.56,0,1.01-.17,1.37-.51.36-.34.55-.88.58-1.64.01-.33.02-.62.02-.89s0-.55-.02-.88c-.01-.51-.11-.92-.28-1.23s-.4-.55-.69-.69c-.29-.15-.61-.22-.98-.22s-.69.07-.98.22c-.29.15-.51.38-.69.69s-.27.73-.29,1.23c0,.32-.01.62-.01.88s0,.56.01.89c.03.75.22,1.3.58,1.64.36.34.82.51,1.38.51Z"/>
            <path class="cls-2" d="M973.24,104.09c-.07,0-.13-.02-.18-.07-.05-.05-.07-.11-.07-.18v-5.2c0-.07.02-.14.07-.19.05-.05.11-.08.18-.08h.51c.07,0,.13.03.19.08.05.05.08.11.08.19v.48c.15-.25.35-.44.6-.56.26-.12.57-.19.93-.19h.43c.07,0,.13.02.18.07.05.05.07.11.07.18v.45c0,.07-.02.13-.07.18-.05.04-.11.07-.18.07h-.66c-.4,0-.71.12-.94.35-.23.23-.34.54-.34.94v3.23c0,.07-.03.13-.08.18-.05.05-.11.07-.19.07h-.54Z"/>
            <path class="cls-2" d="M979.47,104.2c-.52,0-.97-.1-1.35-.3-.38-.2-.67-.49-.88-.87-.21-.38-.31-.83-.33-1.36,0-.11,0-.26,0-.44s0-.33,0-.44c.02-.53.12-.98.33-1.36.21-.38.5-.67.88-.87.38-.2.83-.3,1.35-.3.43,0,.79.06,1.09.18.3.12.56.27.75.45.2.18.35.38.45.59.1.21.15.42.16.61,0,.07-.02.13-.07.18s-.11.07-.19.07h-.53c-.07,0-.13-.02-.17-.05s-.07-.09-.11-.17c-.13-.36-.31-.61-.54-.76-.23-.15-.51-.22-.85-.22-.44,0-.8.14-1.07.41s-.42.71-.45,1.31c0,.26,0,.52,0,.77.02.61.17,1.05.45,1.31s.63.4,1.07.4c.34,0,.62-.07.85-.22.23-.15.41-.4.54-.76.04-.08.07-.14.11-.18.04-.04.09-.05.17-.05h.53c.07,0,.14.02.19.07s.07.11.07.18c0,.15-.04.31-.1.47s-.15.32-.28.49-.29.31-.48.44c-.19.13-.42.23-.68.31-.26.08-.57.12-.91.12Z"/>
            <path class="cls-2" d="M983.5,104.09c-.07,0-.13-.02-.18-.07-.05-.05-.07-.11-.07-.18v-7.3c0-.07.02-.13.07-.18.05-.05.11-.07.18-.07h.55c.08,0,.14.02.19.07s.07.11.07.18v2.56c.2-.25.44-.45.73-.6.29-.15.65-.23,1.09-.23.48,0,.88.1,1.22.31s.59.5.76.87.26.8.26,1.29v3.1c0,.07-.02.13-.07.18-.04.05-.11.07-.19.07h-.55c-.07,0-.13-.02-.18-.07-.05-.05-.07-.11-.07-.18v-3.05c0-.51-.12-.92-.37-1.21-.25-.29-.62-.43-1.1-.43-.45,0-.82.15-1.1.43-.28.29-.42.69-.42,1.21v3.05c0,.07-.02.13-.07.18s-.11.07-.19.07h-.55Z"/>
            <path class="cls-2" d="M990.1,97.3c-.07,0-.13-.02-.18-.07-.05-.05-.07-.11-.07-.18v-.59c0-.07.02-.14.07-.19.05-.05.11-.08.18-.08h.69c.07,0,.14.03.19.08.05.05.08.11.08.19v.59c0,.07-.03.13-.08.18-.05.05-.11.07-.19.07h-.69ZM990.19,104.09c-.07,0-.13-.02-.18-.07s-.07-.11-.07-.18v-5.21c0-.07.02-.13.07-.18s.11-.07.18-.07h.53c.07,0,.13.02.18.07s.07.11.07.18v5.21c0,.07-.02.13-.07.18s-.11.07-.18.07h-.53Z"/>
            <path class="cls-2" d="M994.69,104.2c-.4,0-.75-.07-1.04-.21-.29-.14-.53-.34-.72-.58s-.33-.53-.42-.84c-.09-.31-.14-.65-.16-1,0-.12-.01-.23-.01-.33s0-.21.01-.33c.02-.34.07-.67.16-.99s.23-.6.42-.85c.19-.25.43-.45.72-.59.29-.14.64-.21,1.04-.21.43,0,.79.08,1.08.23.29.15.52.34.7.57v-2.53c0-.07.02-.13.07-.18.05-.05.11-.07.18-.07h.53c.07,0,.13.02.18.07s.07.11.07.18v7.3c0,.07-.02.13-.07.18s-.11.07-.18.07h-.49c-.08,0-.14-.02-.19-.07s-.07-.11-.07-.18v-.46c-.18.23-.42.43-.71.59-.29.16-.66.24-1.1.24ZM994.92,103.31c.37,0,.66-.08.88-.25.22-.17.38-.38.49-.64.11-.26.17-.53.18-.8,0-.12.01-.26.01-.42s0-.31-.01-.42c0-.26-.07-.51-.18-.76-.11-.25-.28-.45-.51-.62-.22-.16-.51-.24-.86-.24-.37,0-.67.08-.89.25-.22.17-.38.38-.47.65-.1.27-.15.56-.17.86,0,.21,0,.42,0,.64.02.31.07.6.17.86.09.27.25.48.47.65.22.17.52.25.89.25Z"/>
            <path class="cls-2" d="M1001.12,104.2c-.41,0-.76-.05-1.06-.15s-.53-.23-.71-.37c-.18-.15-.32-.29-.41-.44-.09-.15-.14-.26-.15-.35,0-.08.02-.14.08-.19.06-.04.12-.07.18-.07h.5s.07,0,.09.02c.03.01.06.04.1.09.1.1.2.21.32.31s.26.19.44.25c.17.07.39.1.64.1.38,0,.68-.07.92-.21.24-.14.36-.35.36-.63,0-.18-.05-.33-.15-.44-.1-.11-.28-.21-.53-.3-.25-.09-.6-.18-1.04-.27-.44-.1-.79-.23-1.04-.38s-.44-.33-.55-.54c-.11-.21-.17-.45-.17-.71s.08-.53.24-.79c.16-.25.4-.46.71-.62s.7-.24,1.17-.24c.38,0,.71.05.98.14.27.09.5.21.67.36.18.14.31.28.4.42.09.14.13.26.14.35,0,.07-.01.13-.07.18-.05.05-.11.07-.18.07h-.46c-.05,0-.09-.01-.13-.03s-.06-.05-.09-.08c-.07-.09-.16-.19-.26-.29-.1-.09-.23-.17-.39-.24s-.36-.09-.62-.09c-.37,0-.64.08-.82.23s-.28.35-.28.58c0,.14.04.26.12.37.08.11.23.21.46.3.23.09.56.18,1.01.29.48.1.87.22,1.14.38s.48.35.59.56c.12.21.18.46.18.74,0,.31-.09.59-.26.85-.18.26-.44.46-.79.61s-.79.23-1.3.23Z"/>
          </g>
        </g>
        <g>
          <rect class="cls-1" x="942.72" y="111.59" width="15" height="15"/>
          <g class="cls-5">
            <path class="cls-2" d="M965.93,124.09c-.08,0-.14-.02-.19-.07-.04-.05-.07-.11-.07-.18v-7.18c0-.08.02-.15.07-.19.04-.05.11-.07.19-.07h2.68c.83,0,1.49.19,1.97.58.48.39.73.96.73,1.73,0,.56-.14,1.02-.42,1.38-.28.36-.67.6-1.15.74l1.69,2.93s.03.08.03.12c0,.06-.02.11-.07.15-.05.04-.1.07-.16.07h-.53c-.12,0-.22-.03-.27-.1-.06-.07-.11-.13-.15-.2l-1.6-2.79h-1.92v2.84c0,.07-.02.13-.07.18-.05.05-.11.07-.19.07h-.56ZM966.76,120.06h1.82c.55,0,.96-.12,1.23-.35.27-.23.41-.57.41-1.03s-.13-.79-.4-1.02-.68-.35-1.24-.35h-1.82v2.75Z"/>
            <path class="cls-2" d="M973.01,124.09c-.07,0-.13-.02-.18-.07s-.07-.11-.07-.18v-7.3c0-.07.02-.13.07-.18s.11-.07.18-.07h.55c.08,0,.14.02.19.07.04.05.07.11.07.18v2.56c.2-.25.44-.45.73-.6.29-.15.65-.23,1.09-.23.48,0,.88.1,1.21.31s.59.5.76.87c.17.37.26.8.26,1.29v3.1c0,.07-.02.13-.07.18-.04.05-.11.07-.19.07h-.55c-.07,0-.13-.02-.18-.07s-.07-.11-.07-.18v-3.05c0-.51-.12-.92-.37-1.21-.25-.29-.62-.43-1.1-.43-.46,0-.82.15-1.1.43-.28.29-.42.69-.42,1.21v3.05c0,.07-.02.13-.07.18-.04.05-.11.07-.19.07h-.55Z"/>
            <path class="cls-2" d="M979.61,117.3c-.07,0-.13-.02-.18-.07s-.07-.11-.07-.18v-.59c0-.07.02-.14.07-.19.05-.05.11-.08.18-.08h.69c.07,0,.14.03.19.08.05.05.08.11.08.19v.59c0,.07-.03.13-.08.18s-.11.07-.19.07h-.69ZM979.69,124.09c-.07,0-.13-.02-.18-.07-.05-.05-.07-.11-.07-.18v-5.21c0-.07.02-.13.07-.18.05-.05.11-.07.18-.07h.53c.07,0,.13.02.18.07.05.05.07.11.07.18v5.21c0,.07-.02.13-.07.18-.05.05-.11.07-.18.07h-.53Z"/>
            <path class="cls-2" d="M982.36,124.09c-.07,0-.13-.02-.18-.07-.05-.05-.07-.11-.07-.18v-5.21c0-.07.02-.13.07-.18.05-.05.11-.07.18-.07h.52c.07,0,.13.02.18.07.05.05.07.11.07.18v.48c.19-.25.43-.45.72-.61.29-.16.66-.24,1.12-.24.48,0,.88.1,1.22.31.33.21.59.5.76.87.17.37.26.8.26,1.29v3.1c0,.07-.02.13-.07.18s-.11.07-.18.07h-.55c-.07,0-.13-.02-.18-.07s-.07-.11-.07-.18v-3.05c0-.51-.12-.92-.37-1.21-.25-.29-.62-.43-1.1-.43-.45,0-.82.15-1.09.43-.28.29-.41.69-.41,1.21v3.05c0,.07-.02.13-.07.18s-.11.07-.18.07h-.55Z"/>
            <path class="cls-2" d="M991.11,124.2c-.56,0-1.02-.11-1.4-.32-.37-.21-.66-.51-.86-.89-.2-.38-.31-.81-.33-1.29,0-.12-.01-.28-.01-.48s0-.35.01-.47c.02-.49.13-.92.34-1.3.2-.37.49-.67.86-.88.37-.21.84-.32,1.39-.32s1.01.11,1.39.32.66.51.86.88.31.81.34,1.3c0,.12.01.27.01.47s0,.35-.01.48c-.02.48-.13.92-.33,1.29-.2.38-.48.67-.86.89-.38.21-.84.32-1.4.32ZM991.11,123.35c.45,0,.82-.14,1.09-.43.27-.29.42-.71.44-1.27,0-.11.01-.25.01-.42s0-.31-.01-.42c-.02-.56-.17-.98-.44-1.27-.27-.29-.63-.43-1.09-.43s-.82.15-1.09.43c-.28.29-.42.71-.43,1.27,0,.11-.01.25-.01.42s0,.31.01.42c.01.56.16.98.43,1.27.28.29.64.43,1.09.43Z"/>
            <path class="cls-2" d="M997.06,124.2c-.41,0-.76-.05-1.06-.15-.29-.1-.53-.23-.71-.37s-.32-.29-.41-.44c-.09-.15-.14-.26-.15-.35,0-.08.02-.14.08-.19.06-.04.12-.07.18-.07h.49s.07,0,.09.02.06.04.11.09c.09.1.2.21.32.31s.26.19.43.25c.17.07.39.1.64.1.37,0,.68-.07.92-.21.24-.14.36-.35.36-.63,0-.18-.05-.33-.15-.44-.1-.11-.28-.21-.53-.3s-.6-.18-1.04-.27c-.44-.1-.79-.23-1.04-.38-.26-.15-.44-.33-.55-.54s-.17-.45-.17-.71.08-.53.24-.79.4-.46.71-.62c.31-.16.7-.24,1.17-.24.38,0,.71.05.98.14.27.09.5.21.67.36.18.14.31.28.4.42.09.14.13.26.14.35,0,.07-.02.13-.07.18-.05.05-.11.07-.18.07h-.46c-.05,0-.09-.01-.13-.03-.03-.02-.06-.05-.09-.08-.07-.09-.16-.19-.26-.29-.1-.09-.23-.17-.39-.24-.16-.06-.36-.09-.62-.09-.37,0-.64.08-.82.23-.18.15-.28.35-.28.58,0,.14.04.26.12.37.08.11.23.21.46.3s.56.18,1.01.29c.48.1.87.22,1.14.38.28.16.48.35.59.56.12.21.18.46.18.74,0,.31-.09.59-.26.85-.18.26-.44.46-.79.61s-.79.23-1.3.23Z"/>
          </g>
        </g>
      </g>
    </g>
  </g>
  <g class="cls-5">
    <path class="cls-2" d="M282.8,105.54c-.62,0-1.17-.07-1.65-.22-.49-.15-.89-.36-1.23-.63s-.58-.59-.76-.95-.26-.77-.26-1.22c0-.54.13-1.01.4-1.41.27-.4.61-.7,1.04-.92-.34-.21-.61-.49-.8-.83s-.29-.73-.29-1.18c0-.54.14-1.01.41-1.42s.68-.73,1.2-.96,1.17-.35,1.92-.35,1.4.12,1.92.34.92.55,1.19.95c.27.41.41.88.41,1.42,0,.45-.09.84-.28,1.18s-.45.62-.78.84c.44.21.79.51,1.05.92.26.41.39.88.39,1.42,0,.59-.15,1.11-.46,1.56-.3.45-.75.81-1.33,1.06-.58.26-1.29.38-2.11.38ZM282.8,104.08c.36,0,.69-.06.99-.19s.53-.31.7-.54c.17-.23.26-.51.26-.83s-.09-.6-.26-.83c-.17-.23-.41-.41-.7-.53s-.62-.19-.99-.19-.69.06-.99.19c-.29.13-.53.3-.7.53-.17.23-.26.51-.26.83s.09.59.26.83c.17.23.41.41.7.54.29.13.62.19.99.19ZM282.8,99.59c.31,0,.59-.07.85-.18.26-.11.46-.27.62-.46.15-.2.23-.42.23-.69s-.07-.51-.22-.71c-.15-.2-.35-.36-.6-.47-.26-.11-.55-.17-.88-.17s-.62.06-.88.17c-.26.11-.46.27-.6.47-.15.2-.22.44-.22.71s.07.5.22.7c.14.2.34.35.6.46.26.11.55.17.88.17Z"/>
    <path class="cls-2" d="M291.99,105.54c-.66,0-1.23-.1-1.69-.29-.47-.2-.85-.47-1.15-.81s-.52-.74-.67-1.2c-.15-.45-.24-.94-.27-1.45,0-.25-.02-.53-.02-.83,0-.3,0-.61,0-.92,0-.31.01-.59.02-.85.02-.51.11-1,.27-1.45.16-.45.39-.85.69-1.18.3-.34.69-.6,1.15-.8.47-.2,1.02-.29,1.67-.29s1.21.1,1.68.29c.47.2.85.46,1.15.8.3.34.53.73.69,1.18.15.45.24.94.26,1.45.02.26.03.55.03.85v.92c0,.3,0,.58-.03.83-.02.51-.1,1-.25,1.45-.15.45-.37.85-.67,1.2s-.68.62-1.16.81c-.47.2-1.04.29-1.7.29ZM291.99,103.93c.61,0,1.05-.2,1.34-.6.29-.4.43-.94.44-1.62.02-.27.03-.54.03-.82v-.83c0-.28,0-.55-.03-.8,0-.66-.16-1.2-.44-1.6-.28-.41-.73-.61-1.34-.61s-1.04.2-1.32.61c-.28.41-.44.94-.45,1.6,0,.25,0,.52,0,.8s0,.56,0,.83,0,.55,0,.82c.02.68.17,1.22.46,1.62.29.4.73.6,1.32.6Z"/>
    <path class="cls-2" d="M297.28,106.45c-.08,0-.15-.03-.2-.08-.05-.06-.07-.13-.06-.21l.38-2.38c.02-.12.06-.23.13-.32.07-.09.18-.13.32-.13h1.29c.07,0,.13.03.18.08.05.05.07.11.07.19,0,.07-.01.13-.04.18l-.9,2.32c-.04.09-.09.17-.16.25-.07.07-.17.1-.3.1h-.71Z"/>
    <path class="cls-2" d="M301.74,105.4c-.08,0-.15-.03-.21-.09-.06-.06-.08-.13-.08-.22,0-.04,0-.08.03-.13l3.37-7.7h-4.4c-.1,0-.18-.03-.25-.1-.06-.06-.09-.14-.09-.24v-.98c0-.1.03-.19.09-.25s.14-.1.25-.1h6.15c.1,0,.18.03.25.1s.09.15.09.25v.87c0,.13-.01.24-.03.33-.02.09-.05.18-.09.27l-3.35,7.64c-.03.07-.08.14-.15.22-.07.08-.17.12-.3.12h-1.27Z"/>
  </g>
  <g class="cls-5">
    <path class="cls-2" d="M525.27,390.2c-.08,0-.15-.03-.21-.09-.06-.06-.08-.13-.08-.22,0-.05,0-.08.02-.11.01-.03.03-.05.04-.07l2.06-2.84c-.18.05-.37.07-.57.06-.48,0-.92-.1-1.32-.27s-.76-.41-1.06-.7c-.3-.29-.54-.63-.71-1.02-.17-.39-.26-.81-.26-1.27,0-.42.08-.83.24-1.24.16-.41.39-.77.71-1.1.31-.33.7-.59,1.18-.78.47-.19,1.02-.29,1.66-.29s1.18.09,1.65.27c.48.18.88.42,1.2.73.32.31.56.67.73,1.07.16.4.25.83.25,1.27,0,.4-.07.77-.2,1.12-.13.34-.29.66-.48.94-.19.29-.38.56-.57.83l-2.46,3.42s-.09.11-.16.17-.18.11-.32.11h-1.3ZM526.95,385.44c.34,0,.64-.07.92-.22.28-.15.5-.35.66-.62.16-.27.25-.58.25-.95s-.08-.69-.25-.96-.38-.47-.67-.62c-.28-.14-.58-.22-.91-.22s-.64.07-.92.22c-.28.15-.5.35-.66.62s-.25.59-.25.96.08.68.25.95c.16.27.38.47.66.62.28.14.58.22.92.22Z"/>
    <path class="cls-2" d="M531.36,391.25c-.08,0-.15-.03-.2-.08-.05-.06-.07-.13-.06-.21l.38-2.38c.02-.12.06-.23.13-.32.07-.09.18-.13.32-.13h1.29c.07,0,.13.03.18.08.05.05.07.11.07.19,0,.07-.01.13-.04.18l-.9,2.32c-.04.09-.09.17-.16.25-.07.07-.17.1-.3.1h-.71Z"/>
    <path class="cls-2" d="M539.59,390.2c-.09,0-.17-.03-.24-.1s-.1-.14-.1-.24v-1.79h-4.44c-.1,0-.18-.03-.25-.1s-.09-.14-.09-.24v-.95c0-.06.01-.12.04-.2s.06-.15.12-.22l4.13-5.73c.12-.16.29-.24.52-.24h1.53c.09,0,.17.03.24.1.06.07.1.14.1.24v5.68h1.25c.11,0,.2.03.26.09.06.06.09.14.09.25v.98c0,.09-.03.17-.1.24s-.14.1-.24.1h-1.26v1.79c0,.09-.03.17-.1.24-.07.07-.15.1-.24.1h-1.22ZM536.42,386.48h2.87v-4.05l-2.87,4.05Z"/>
  </g>
  <g class="cls-5">
    <path class="cls-2" d="M572.75,242.6c-.09,0-.17-.03-.24-.1s-.1-.14-.1-.24v-1.79h-4.44c-.1,0-.18-.03-.25-.1s-.09-.14-.09-.24v-.95c0-.06.01-.12.04-.2s.06-.15.12-.22l4.13-5.73c.12-.16.29-.24.52-.24h1.53c.09,0,.17.03.24.1.06.07.1.14.1.24v5.68h1.25c.11,0,.2.03.26.09.06.06.09.14.09.25v.98c0,.09-.03.17-.1.24s-.14.1-.24.1h-1.26v1.79c0,.09-.03.17-.1.24-.07.07-.15.1-.24.1h-1.22ZM569.58,238.88h2.87v-4.05l-2.87,4.05Z"/>
    <path class="cls-2" d="M580.81,242.74c-.8,0-1.49-.15-2.07-.46-.58-.3-1.03-.71-1.34-1.23-.32-.52-.48-1.1-.48-1.74,0-.29.04-.57.11-.84.08-.27.17-.53.29-.77.12-.24.24-.46.36-.65.12-.19.22-.34.32-.46l2.56-3.51s.09-.11.17-.18c.08-.07.18-.1.31-.1h1.3c.08,0,.15.03.21.09s.08.13.08.22c0,.04,0,.07-.02.11-.01.03-.03.06-.05.08l-1.96,2.72c.08-.03.18-.05.29-.06.11,0,.21-.01.31-.01.47,0,.91.1,1.33.27.42.17.79.41,1.11.71s.57.65.75,1.05.27.84.27,1.32c0,.62-.15,1.19-.46,1.72-.31.53-.75.95-1.32,1.27s-1.26.48-2.07.48ZM580.8,241.13c.34,0,.65-.07.93-.21.29-.14.52-.35.69-.62.18-.27.27-.61.27-1.01s-.09-.72-.27-.99c-.18-.27-.41-.48-.69-.62-.28-.14-.59-.21-.93-.21s-.65.07-.93.21c-.29.14-.52.35-.69.62-.18.27-.27.6-.27.99s.09.74.27,1.01c.18.27.41.48.69.62.28.14.59.21.93.21Z"/>
    <path class="cls-2" d="M585.96,243.65c-.08,0-.15-.03-.2-.08-.05-.06-.07-.13-.06-.21l.38-2.38c.02-.12.06-.23.13-.32.07-.09.18-.13.32-.13h1.29c.07,0,.13.03.18.08.05.05.07.11.07.19,0,.07-.01.13-.04.18l-.9,2.32c-.04.09-.09.17-.16.25-.07.07-.17.1-.3.1h-.71Z"/>
    <path class="cls-2" d="M594.2,242.6c-.09,0-.17-.03-.24-.1s-.1-.14-.1-.24v-1.79h-4.44c-.1,0-.18-.03-.25-.1s-.09-.14-.09-.24v-.95c0-.06.01-.12.04-.2s.06-.15.12-.22l4.13-5.73c.12-.16.29-.24.52-.24h1.53c.09,0,.17.03.24.1.06.07.1.14.1.24v5.68h1.25c.11,0,.2.03.26.09.06.06.09.14.09.25v.98c0,.09-.03.17-.1.24s-.14.1-.24.1h-1.26v1.79c0,.09-.03.17-.1.24-.07.07-.15.1-.24.1h-1.22ZM591.03,238.88h2.87v-4.05l-2.87,4.05Z"/>
  </g>
  <g class="cls-5">
    <path class="cls-2" d="M330,339.8c-.09,0-.17-.03-.24-.1s-.1-.14-.1-.24v-.71c0-.08.02-.18.06-.3.04-.12.14-.24.29-.36l2.21-2.2c.62-.49,1.11-.9,1.49-1.24s.65-.65.83-.94c.17-.28.26-.57.26-.85,0-.42-.11-.76-.34-1.02-.23-.26-.59-.39-1.08-.39-.33,0-.6.07-.83.2-.22.13-.4.31-.52.54-.13.22-.21.47-.26.74-.02.12-.07.21-.15.25-.08.05-.17.07-.25.07h-1.25c-.08,0-.15-.03-.21-.08-.06-.06-.08-.12-.08-.2,0-.4.09-.79.25-1.17.16-.38.39-.71.69-1.01.3-.29.67-.53,1.11-.71.44-.18.93-.27,1.48-.27.77,0,1.42.13,1.92.39.51.26.89.62,1.15,1.06.26.45.38.95.38,1.51,0,.44-.08.84-.25,1.21-.17.37-.41.72-.73,1.06s-.7.69-1.15,1.04l-1.99,2.02h3.99c.1,0,.18.03.25.09.06.06.09.14.09.25v.99c0,.09-.03.17-.09.24-.06.07-.14.1-.25.1h-6.69Z"/>
    <path class="cls-2" d="M338.67,339.8c-.09,0-.17-.03-.24-.1s-.1-.14-.1-.24v-.71c0-.08.02-.18.06-.3.04-.12.14-.24.29-.36l2.21-2.2c.62-.49,1.11-.9,1.49-1.24s.65-.65.83-.94c.17-.28.26-.57.26-.85,0-.42-.11-.76-.34-1.02-.23-.26-.59-.39-1.08-.39-.33,0-.6.07-.83.2-.22.13-.4.31-.52.54-.13.22-.21.47-.26.74-.02.12-.07.21-.15.25-.08.05-.17.07-.25.07h-1.25c-.08,0-.15-.03-.21-.08-.06-.06-.08-.12-.08-.2,0-.4.09-.79.25-1.17.16-.38.39-.71.69-1.01.3-.29.67-.53,1.11-.71.44-.18.93-.27,1.48-.27.77,0,1.42.13,1.92.39.51.26.89.62,1.15,1.06.26.45.38.95.38,1.51,0,.44-.08.84-.25,1.21-.17.37-.41.72-.73,1.06s-.7.69-1.15,1.04l-1.99,2.02h3.99c.1,0,.18.03.25.09.06.06.09.14.09.25v.99c0,.09-.03.17-.09.24-.06.07-.14.1-.25.1h-6.69Z"/>
    <path class="cls-2" d="M347.21,340.85c-.08,0-.15-.03-.2-.08-.05-.06-.07-.13-.06-.21l.38-2.38c.02-.12.06-.23.13-.32.07-.09.18-.13.32-.13h1.29c.07,0,.13.03.18.08.05.05.07.11.07.19,0,.07-.01.13-.04.18l-.9,2.32c-.04.09-.09.17-.16.25-.07.07-.17.1-.3.1h-.71Z"/>
    <path class="cls-2" d="M353.02,339.8c-.1,0-.18-.03-.25-.1s-.09-.14-.09-.24v-7.25l-2.13,1.64c-.08.06-.17.08-.25.06-.08-.01-.16-.06-.22-.15l-.59-.76c-.06-.08-.08-.17-.06-.27.01-.09.06-.17.15-.22l3.14-2.42c.06-.05.11-.07.17-.08.06,0,.12-.01.18-.01h1.23c.09,0,.17.03.24.1s.1.14.1.24v9.13c0,.09-.03.17-.1.24s-.14.1-.24.1h-1.27Z"/>
  </g>
  <g class="cls-5">
    <path class="cls-2" d="M766.59,390.2c-.08,0-.15-.03-.21-.09-.06-.06-.08-.13-.08-.22,0-.05,0-.08.02-.11.02-.03.03-.05.04-.07l2.06-2.84c-.18.05-.37.07-.57.06-.48,0-.92-.1-1.32-.27s-.76-.41-1.06-.7-.54-.63-.71-1.02c-.17-.39-.26-.81-.26-1.27,0-.42.08-.83.24-1.24.16-.41.39-.77.71-1.1.31-.33.7-.59,1.18-.78.47-.19,1.02-.29,1.66-.29s1.18.09,1.65.27c.48.18.88.42,1.2.73.32.31.56.67.73,1.07.16.4.24.83.24,1.27,0,.4-.06.77-.2,1.12-.13.34-.29.66-.48.94-.19.29-.38.56-.57.83l-2.46,3.42s-.09.11-.16.17c-.07.07-.18.11-.31.11h-1.3ZM768.27,385.44c.34,0,.64-.07.92-.22.28-.15.49-.35.66-.62.16-.27.24-.58.24-.95s-.08-.69-.24-.96c-.16-.27-.38-.47-.67-.62-.28-.14-.58-.22-.91-.22s-.64.07-.92.22c-.28.15-.5.35-.66.62-.16.27-.25.59-.25.96s.08.68.25.95c.16.27.38.47.66.62.28.14.58.22.92.22Z"/>
    <path class="cls-2" d="M772.68,391.25c-.08,0-.15-.03-.2-.08-.05-.06-.07-.13-.06-.21l.38-2.38c.02-.12.06-.23.13-.32.07-.09.18-.13.31-.13h1.29c.07,0,.13.03.18.08.05.05.07.11.07.19,0,.07-.01.13-.04.18l-.9,2.32c-.04.09-.09.17-.16.25-.07.07-.17.1-.3.1h-.71Z"/>
    <path class="cls-2" d="M779.82,390.35c-.8,0-1.48-.13-2.03-.4-.55-.27-.97-.61-1.25-1.04-.29-.43-.44-.89-.46-1.37,0-.08.02-.15.08-.2.06-.05.13-.08.22-.08h1.3c.1,0,.19.02.26.06.07.04.12.11.16.22.09.28.23.51.4.69.17.18.37.31.6.39.23.08.47.13.72.13.34,0,.64-.07.92-.2.28-.13.5-.34.67-.61.17-.27.25-.6.25-.99,0-.35-.08-.64-.24-.9-.16-.25-.38-.45-.65-.59s-.59-.22-.94-.22c-.26,0-.48.03-.64.1s-.31.14-.43.22-.22.16-.31.22c-.09.07-.19.1-.3.1h-1.29c-.08,0-.16-.03-.22-.09s-.09-.13-.09-.22l.49-4.79c0-.12.05-.21.13-.28.07-.07.16-.1.27-.1h5.26c.09,0,.17.03.24.1.06.07.1.14.1.24v.94c0,.09-.03.17-.1.24-.07.07-.14.1-.24.1h-4.04l-.22,2.28c.17-.11.39-.22.67-.32.28-.1.67-.15,1.16-.15.45,0,.88.07,1.28.22s.77.35,1.08.63c.32.28.57.61.75.99s.27.83.27,1.32c0,.68-.16,1.27-.48,1.78-.32.5-.76.9-1.33,1.18-.57.28-1.24.42-2.02.42Z"/>
  </g>
  <g class="cls-5">
    <path class="cls-2" d="M813.3,302.34c-.65,0-1.22-.08-1.69-.24-.48-.16-.87-.37-1.18-.62s-.55-.54-.71-.84c-.16-.3-.24-.6-.25-.9,0-.08.03-.15.09-.2.06-.05.13-.08.22-.08h1.26c.09,0,.17.02.24.06.06.04.12.11.17.22.08.25.22.45.41.6.19.15.41.25.67.32s.52.09.8.09c.56,0,1.01-.13,1.34-.4.33-.27.5-.65.5-1.14s-.15-.85-.46-1.07c-.31-.22-.74-.33-1.29-.33h-1.44c-.1,0-.19-.03-.25-.09-.07-.06-.1-.14-.1-.25v-.59c0-.09.02-.17.06-.25.04-.07.09-.13.13-.17l2.51-2.45h-4c-.1,0-.18-.03-.24-.1-.06-.07-.09-.14-.09-.24v-.92c0-.1.03-.19.09-.25.06-.07.14-.1.24-.1h6.01c.1,0,.19.03.25.1.07.07.1.15.1.25v.84c0,.08-.02.16-.05.22-.04.07-.08.12-.13.17l-2.42,2.49h.17c.57.06,1.08.19,1.52.4s.79.52,1.04.92c.25.4.37.91.37,1.51s-.17,1.18-.5,1.63c-.33.45-.79.8-1.37,1.04-.58.24-1.24.36-1.99.36Z"/>
    <path class="cls-2" d="M821.42,302.2c-.1,0-.18-.03-.24-.1s-.09-.14-.09-.24v-7.25l-2.13,1.64c-.08.06-.17.08-.25.06-.08-.01-.16-.06-.22-.15l-.59-.76c-.06-.08-.08-.17-.06-.27.01-.09.06-.17.15-.22l3.14-2.42c.05-.05.11-.07.17-.08.05,0,.12-.01.18-.01h1.23c.09,0,.17.03.24.1.07.07.1.14.1.24v9.13c0,.09-.03.17-.1.24-.06.07-.14.1-.24.1h-1.28Z"/>
    <path class="cls-2" d="M824.86,303.25c-.08,0-.15-.03-.2-.08-.04-.06-.06-.13-.05-.21l.38-2.38c.02-.12.06-.23.13-.32.07-.09.18-.13.32-.13h1.29c.07,0,.13.03.18.08.05.05.07.11.07.19,0,.07-.01.13-.04.18l-.9,2.32c-.04.09-.09.17-.16.25-.07.07-.17.1-.3.1h-.71Z"/>
    <path class="cls-2" d="M832,302.35c-.8,0-1.48-.13-2.03-.4-.55-.27-.97-.61-1.25-1.04-.29-.43-.44-.89-.46-1.37,0-.08.02-.15.08-.2.06-.05.13-.08.22-.08h1.3c.1,0,.19.02.26.06s.12.11.16.22c.09.28.23.51.4.69.17.18.37.31.6.39s.47.13.72.13c.34,0,.64-.07.92-.2.28-.13.5-.34.66-.61.17-.27.25-.6.25-.99,0-.35-.08-.64-.24-.9-.16-.25-.38-.45-.65-.59s-.59-.22-.95-.22c-.26,0-.48.03-.64.1s-.31.14-.43.22-.22.16-.31.22-.19.1-.3.1h-1.29c-.08,0-.16-.03-.22-.09s-.09-.13-.09-.22l.49-4.79c0-.12.05-.21.12-.28s.16-.1.27-.1h5.27c.09,0,.17.03.24.1.07.07.1.14.1.24v.94c0,.09-.03.17-.1.24-.06.07-.14.1-.24.1h-4.05l-.22,2.28c.17-.11.39-.22.67-.32.28-.1.67-.15,1.16-.15.45,0,.88.07,1.28.22s.77.35,1.09.63c.32.28.57.61.75.99s.27.83.27,1.32c0,.68-.16,1.27-.48,1.78-.32.5-.76.9-1.33,1.18-.57.28-1.24.42-2.02.42Z"/>
  </g>
</svg>