<?xml version="1.0" encoding="UTF-8"?>
<svg id="Layer_1" data-name="Layer 1" xmlns="http://www.w3.org/2000/svg" width="1200" height="503.18" viewBox="0 0 1200 503.18">
  <defs>
    <style>
      .cls-1 {
        fill: #8567a8;
      }

      .cls-1, .cls-2, .cls-3, .cls-4, .cls-5 {
        stroke-width: 0px;
      }

      .cls-2 {
        fill: #f3c55a;
      }

      .cls-3 {
        fill: #000;
      }

      .cls-6 {
        fill: none;
        stroke: #000;
        stroke-miterlimit: 10;
      }

      .cls-4 {
        fill: #d67199;
      }

      .cls-7 {
        isolation: isolate;
      }

      .cls-5 {
        fill: #5ea642;
      }
    </style>
  </defs>
  <g>
    <rect id="Not_Repatriated_-_DG" data-name="Not_Repatriated - DG" class="cls-5" x="324.79" y="163.21" width="72.92" height="30.06"/>
    <rect id="Repatriated_-_DG" data-name="Repatriated - DG" class="cls-5" x="501.52" y="163.21" width="264.23" height="30.06"/>
    <g class="cls-7">
      <path class="cls-3" d="M439.24,183.08c-.11,0-.2-.04-.28-.12s-.12-.17-.12-.28v-10.75c0-.12.04-.22.12-.3.08-.08.17-.12.28-.12h4.03c1.11,0,2.03.17,2.75.51s1.27.85,1.63,1.52c.37.67.56,1.49.57,2.46.02.49.03.91.03,1.29s-.01.8-.03,1.27c-.02,1.02-.21,1.87-.56,2.54-.35.67-.88,1.16-1.59,1.49-.71.33-1.62.49-2.72.49h-4.11ZM441.14,181.18h2.13c.62,0,1.12-.09,1.5-.26s.67-.46.85-.85c.18-.39.28-.91.29-1.54.01-.33.02-.62.02-.87,0-.25,0-.5,0-.74,0-.25-.01-.53-.02-.85-.02-.9-.25-1.57-.68-2-.43-.43-1.11-.64-2.05-.64h-2.05v7.76Z"/>
      <path class="cls-3" d="M454.95,183.24c-1.01,0-1.87-.18-2.59-.53-.71-.35-1.26-.86-1.65-1.53-.39-.67-.6-1.46-.64-2.39-.01-.47-.02-.98-.02-1.53s0-1.06.02-1.54c.03-.91.24-1.7.64-2.35s.95-1.15,1.67-1.5,1.58-.53,2.57-.53c.8,0,1.51.11,2.11.32s1.11.49,1.51.83c.4.34.7.7.91,1.08.2.39.31.74.32,1.07.01.1-.02.18-.08.25s-.16.1-.26.1h-1.7c-.11,0-.19-.02-.25-.07s-.1-.11-.15-.2c-.09-.23-.23-.46-.41-.69-.19-.23-.44-.42-.76-.57-.32-.15-.73-.23-1.24-.23-.75,0-1.35.2-1.79.59-.45.4-.69,1.05-.72,1.97-.03.96-.03,1.93,0,2.91.03.94.28,1.61.74,2.01.46.41,1.06.61,1.81.61.5,0,.94-.09,1.33-.26.39-.18.7-.45.92-.83.23-.37.34-.85.34-1.44v-.51h-2.01c-.11,0-.2-.04-.28-.12s-.12-.18-.12-.3v-.88c0-.12.04-.22.12-.3.08-.08.17-.12.28-.12h3.95c.12,0,.22.04.29.12.07.08.11.18.11.3v1.73c0,.93-.2,1.72-.6,2.4-.4.67-.97,1.19-1.72,1.55-.74.36-1.62.55-2.64.55Z"/>
    </g>
    <g class="cls-7">
      <path class="cls-3" d="M790.51,183.24c-.77,0-1.44-.09-2-.28-.56-.19-1.03-.43-1.4-.74s-.65-.63-.83-.99c-.19-.36-.29-.71-.3-1.07,0-.1.04-.18.11-.24.07-.06.16-.09.26-.09h1.49c.11,0,.2.02.28.07.08.04.14.13.2.26.1.3.26.53.49.71s.49.3.78.37.61.11.94.11c.66,0,1.19-.16,1.58-.47.39-.31.59-.76.59-1.35s-.18-1-.54-1.26c-.36-.26-.87-.39-1.52-.39h-1.7c-.12,0-.22-.04-.3-.11s-.12-.17-.12-.29v-.69c0-.11.02-.21.07-.29.05-.08.1-.15.16-.21l2.96-2.89h-4.72c-.12,0-.22-.04-.29-.12-.07-.08-.11-.17-.11-.28v-1.09c0-.12.04-.22.11-.3.07-.08.17-.12.29-.12h7.09c.12,0,.22.04.3.12.08.08.12.18.12.3v.99c0,.1-.02.19-.06.26-.04.08-.09.14-.15.2l-2.86,2.94.2.02c.67.06,1.27.21,1.79.45s.93.61,1.22,1.08c.29.47.44,1.07.44,1.78s-.2,1.39-.59,1.92-.93.94-1.61,1.23c-.68.29-1.47.43-2.35.43Z"/>
      <path class="cls-3" d="M800.91,183.24c-.77,0-1.44-.09-2-.28-.56-.19-1.03-.43-1.4-.74s-.65-.63-.83-.99c-.19-.36-.29-.71-.3-1.07,0-.1.04-.18.11-.24.07-.06.16-.09.26-.09h1.49c.11,0,.2.02.28.07.08.04.14.13.2.26.1.3.26.53.49.71s.49.3.78.37.61.11.94.11c.66,0,1.19-.16,1.58-.47.39-.31.59-.76.59-1.35s-.18-1-.54-1.26c-.36-.26-.87-.39-1.52-.39h-1.7c-.12,0-.22-.04-.3-.11s-.12-.17-.12-.29v-.69c0-.11.02-.21.07-.29.05-.08.1-.15.16-.21l2.96-2.89h-4.72c-.12,0-.22-.04-.29-.12-.07-.08-.11-.17-.11-.28v-1.09c0-.12.04-.22.11-.3.07-.08.17-.12.29-.12h7.09c.12,0,.22.04.3.12.08.08.12.18.12.3v.99c0,.1-.02.19-.06.26-.04.08-.09.14-.15.2l-2.86,2.94.2.02c.67.06,1.27.21,1.79.45s.93.61,1.22,1.08c.29.47.44,1.07.44,1.78s-.2,1.39-.59,1.92-.93.94-1.61,1.23c-.68.29-1.47.43-2.35.43Z"/>
      <path class="cls-3" d="M807.17,184.32c-.1,0-.18-.03-.23-.1s-.08-.15-.07-.25l.45-2.81c.02-.14.07-.27.16-.37s.21-.16.37-.16h1.52c.09,0,.16.03.22.09.05.06.08.13.08.22,0,.08-.02.15-.05.21l-1.06,2.74c-.04.11-.11.21-.19.29-.08.08-.2.12-.36.12h-.84Z"/>
      <path class="cls-3" d="M812.44,183.08c-.1,0-.18-.04-.25-.11-.07-.07-.1-.16-.1-.26,0-.04.01-.09.03-.15l3.98-9.08h-5.19c-.12,0-.22-.04-.29-.12-.07-.08-.11-.17-.11-.28v-1.16c0-.12.04-.22.11-.3.07-.08.17-.12.29-.12h7.25c.12,0,.22.04.29.12.07.08.11.18.11.3v1.02c0,.15-.02.28-.04.39-.03.1-.06.21-.11.32l-3.95,9.02c-.03.08-.09.16-.17.26-.08.09-.2.14-.36.14h-1.5Z"/>
    </g>
    <g class="cls-7">
      <path class="cls-3" d="M279.47,183.08c-.1,0-.18-.04-.25-.11-.07-.07-.1-.16-.1-.26,0-.05,0-.1.02-.13.02-.03.03-.06.04-.08l2.43-3.35c-.21.06-.44.08-.68.07-.56-.01-1.08-.12-1.56-.32-.48-.2-.9-.48-1.25-.83s-.64-.75-.84-1.21c-.2-.46-.31-.96-.31-1.49,0-.5.09-.98.28-1.46s.47-.91.84-1.3c.37-.39.83-.69,1.39-.92.56-.23,1.21-.34,1.96-.34s1.39.11,1.95.31c.56.21,1.03.5,1.41.87.38.37.67.79.86,1.26s.29.97.29,1.5c0,.47-.08.91-.23,1.32-.16.41-.34.78-.57,1.11-.23.34-.45.66-.67.98l-2.91,4.03c-.04.06-.11.12-.19.21-.08.08-.21.12-.37.12h-1.54ZM281.46,177.46c.4,0,.76-.09,1.08-.26s.58-.41.78-.73c.19-.31.29-.69.29-1.11s-.1-.82-.29-1.13c-.19-.31-.46-.56-.78-.73-.33-.17-.69-.26-1.07-.26s-.76.09-1.08.26-.58.41-.78.73-.29.69-.29,1.13.1.8.29,1.11c.19.31.45.56.78.73s.69.26,1.08.26Z"/>
      <path class="cls-3" d="M286.66,184.32c-.1,0-.18-.03-.23-.1s-.08-.15-.07-.25l.45-2.81c.02-.14.07-.27.16-.37s.21-.16.37-.16h1.52c.09,0,.16.03.22.09.05.06.08.13.08.22,0,.08-.02.15-.05.21l-1.06,2.74c-.04.11-.11.21-.19.29-.08.08-.2.12-.36.12h-.84Z"/>
      <path class="cls-3" d="M295.17,183.24c-.77,0-1.44-.09-2-.28-.56-.19-1.03-.43-1.4-.74s-.65-.63-.83-.99c-.19-.36-.29-.71-.3-1.07,0-.1.04-.18.11-.24.07-.06.16-.09.26-.09h1.49c.11,0,.2.02.28.07.08.04.14.13.2.26.1.3.26.53.49.71s.49.3.78.37.61.11.94.11c.66,0,1.19-.16,1.58-.47.39-.31.59-.76.59-1.35s-.18-1-.54-1.26c-.36-.26-.87-.39-1.52-.39h-1.7c-.12,0-.22-.04-.3-.11s-.12-.17-.12-.29v-.69c0-.11.02-.21.07-.29.05-.08.1-.15.16-.21l2.96-2.89h-4.72c-.12,0-.22-.04-.29-.12-.07-.08-.11-.17-.11-.28v-1.09c0-.12.04-.22.11-.3.07-.08.17-.12.29-.12h7.09c.12,0,.22.04.3.12.08.08.12.18.12.3v.99c0,.1-.02.19-.06.26-.04.08-.09.14-.15.2l-2.86,2.94.2.02c.67.06,1.27.21,1.79.45s.93.61,1.22,1.08c.29.47.44,1.07.44,1.78s-.2,1.39-.59,1.92-.93.94-1.61,1.23c-.68.29-1.47.43-2.35.43Z"/>
    </g>
  </g>
  <g>
    <rect id="Not_Repatriated_-_FT" data-name="Not_Repatriated - FT" class="cls-4" x="313.03" y="240.9" width="84.68" height="30.06"/>
    <rect id="Repatriated_-_FT" data-name="Repatriated - FT" class="cls-4" x="501.52" y="240.9" width="47.83" height="30.06"/>
    <g class="cls-7">
      <path class="cls-3" d="M575.99,260.93c-.95,0-1.76-.18-2.44-.54-.68-.36-1.21-.84-1.59-1.45-.38-.61-.56-1.3-.56-2.06,0-.34.04-.67.13-.99.09-.32.2-.62.35-.91.14-.29.28-.54.42-.77.14-.23.26-.4.37-.54l3.02-4.15c.04-.06.11-.12.2-.21.09-.08.21-.12.36-.12h1.54c.1,0,.18.04.25.11s.1.16.1.26c0,.04,0,.09-.02.12-.02.04-.04.07-.06.09l-2.31,3.2c.1-.03.22-.06.35-.07s.25-.02.36-.02c.55.01,1.07.12,1.57.32.5.2.93.48,1.3.83.38.35.67.77.88,1.24.22.47.32.99.32,1.55,0,.73-.18,1.4-.54,2.02-.36.62-.88,1.12-1.56,1.49-.68.37-1.49.56-2.44.56ZM575.97,259.03c.4,0,.76-.08,1.1-.25s.61-.41.82-.73.31-.72.31-1.19-.1-.85-.31-1.17-.48-.56-.82-.73c-.34-.17-.7-.25-1.1-.25s-.76.08-1.1.25c-.34.16-.61.41-.82.73s-.31.71-.31,1.17.1.87.31,1.19.48.56.82.73c.34.17.7.25,1.1.25Z"/>
      <path class="cls-3" d="M582.06,262c-.1,0-.18-.03-.23-.1s-.08-.15-.07-.25l.45-2.81c.02-.14.07-.27.16-.37s.21-.16.37-.16h1.52c.09,0,.16.03.22.09.05.06.08.13.08.22,0,.08-.02.15-.05.21l-1.06,2.74c-.04.11-.11.21-.19.29-.08.08-.2.12-.36.12h-.84Z"/>
      <path class="cls-3" d="M588.92,260.76c-.12,0-.22-.04-.29-.12-.07-.08-.11-.17-.11-.28v-8.56l-2.51,1.93c-.1.07-.2.09-.3.07-.1-.02-.19-.07-.26-.17l-.69-.89c-.07-.1-.09-.2-.08-.31s.08-.2.17-.26l3.7-2.86c.07-.05.13-.09.2-.1.07-.01.14-.02.22-.02h1.45c.11,0,.2.04.28.12.08.08.12.17.12.28v10.77c0,.11-.04.2-.12.28s-.17.12-.28.12h-1.5Z"/>
    </g>
    <g class="cls-7">
      <path class="cls-3" d="M440.87,260.76c-.11,0-.2-.04-.28-.12s-.12-.17-.12-.28v-10.75c0-.12.04-.22.12-.3.08-.08.17-.12.28-.12h7.17c.12,0,.22.04.3.12.08.08.12.18.12.3v1.16c0,.12-.04.22-.12.29s-.18.11-.3.11h-5.3v3.14h4.97c.12,0,.22.04.3.12s.12.18.12.3v1.16c0,.11-.04.2-.12.28-.08.08-.18.12-.3.12h-4.97v4.1c0,.11-.04.2-.12.28s-.18.12-.3.12h-1.45Z"/>
      <path class="cls-3" d="M453.35,260.76c-.11,0-.2-.04-.28-.12s-.12-.17-.12-.28v-9.13h-3.06c-.11,0-.2-.04-.28-.12s-.12-.17-.12-.28v-1.22c0-.12.04-.22.12-.3.08-.08.17-.12.28-.12h8.42c.12,0,.22.04.3.12.08.08.12.18.12.3v1.22c0,.11-.04.2-.12.28s-.18.12-.3.12h-3.04v9.13c0,.11-.04.2-.12.28s-.18.12-.3.12h-1.52Z"/>
    </g>
    <g class="cls-7">
      <path class="cls-3" d="M265.01,260.76c-.12,0-.22-.04-.29-.12-.07-.08-.11-.17-.11-.28v-8.56l-2.51,1.93c-.1.07-.2.09-.3.07-.1-.02-.19-.07-.26-.17l-.69-.89c-.07-.1-.09-.2-.08-.31s.08-.2.17-.26l3.7-2.86c.07-.05.13-.09.2-.1.07-.01.14-.02.22-.02h1.45c.11,0,.2.04.28.12.08.08.12.17.12.28v10.77c0,.11-.04.2-.12.28s-.17.12-.28.12h-1.5Z"/>
      <path class="cls-3" d="M273.5,260.93c-.78,0-1.45-.12-2-.35-.55-.23-1-.55-1.35-.96-.35-.41-.62-.88-.79-1.41s-.28-1.1-.31-1.71c-.01-.3-.02-.62-.02-.98,0-.36,0-.72,0-1.08,0-.36.01-.7.02-1.01.02-.61.13-1.18.31-1.71.19-.53.46-1,.82-1.4.36-.4.81-.71,1.36-.94.55-.23,1.21-.35,1.97-.35s1.43.12,1.98.35c.55.23,1.01.55,1.36.94.36.4.63.86.81,1.4.18.53.28,1.1.3,1.71.02.31.03.64.03,1.01v1.08c0,.36-.01.69-.03.98-.02.61-.12,1.18-.3,1.71-.18.53-.44,1-.79,1.41s-.81.73-1.36.96c-.56.23-1.22.35-2.01.35ZM273.5,259.03c.72,0,1.24-.23,1.58-.7.34-.47.51-1.1.52-1.91.02-.32.03-.64.03-.97v-.98c0-.33-.01-.64-.03-.94-.01-.78-.18-1.41-.52-1.89-.34-.48-.86-.72-1.58-.72s-1.23.24-1.56.72-.52,1.11-.54,1.89c0,.3,0,.61,0,.94,0,.33,0,.66,0,.98,0,.33,0,.65,0,.97.02.8.2,1.44.54,1.91.34.47.86.7,1.55.7Z"/>
      <path class="cls-3" d="M279.74,262c-.1,0-.18-.03-.23-.1s-.08-.15-.07-.25l.45-2.81c.02-.14.07-.27.16-.37s.21-.16.37-.16h1.52c.09,0,.16.03.22.09.05.06.08.13.08.22,0,.08-.02.15-.05.21l-1.06,2.74c-.04.11-.11.21-.19.29-.08.08-.2.12-.36.12h-.84Z"/>
      <path class="cls-3" d="M288.41,260.93c-.73,0-1.38-.09-1.95-.26-.57-.18-1.05-.42-1.45-.74-.39-.32-.69-.69-.89-1.12-.2-.43-.31-.91-.31-1.44,0-.64.16-1.19.47-1.66.31-.47.72-.83,1.23-1.08-.41-.25-.72-.58-.95-.97-.23-.4-.34-.86-.34-1.39,0-.64.16-1.2.49-1.68.33-.48.8-.86,1.42-1.13.62-.27,1.38-.41,2.27-.41s1.65.14,2.26.41,1.08.64,1.4,1.12c.32.48.48,1.04.48,1.68,0,.53-.11.99-.33,1.39-.22.4-.53.73-.92.99.52.24.93.6,1.24,1.08.31.48.46,1.04.46,1.68,0,.69-.18,1.31-.54,1.84-.36.53-.88.95-1.57,1.26-.69.3-1.52.45-2.49.45ZM288.41,259.21c.43,0,.82-.07,1.16-.22.35-.15.62-.36.83-.64.2-.28.31-.6.31-.97s-.1-.71-.31-.98c-.2-.27-.48-.48-.83-.63-.35-.15-.74-.22-1.16-.22s-.82.07-1.16.22c-.35.15-.62.36-.83.63-.2.27-.31.6-.31.98s.1.7.31.97c.2.28.48.49.83.64.35.15.74.22,1.16.22ZM288.41,253.91c.36-.01.7-.08,1-.22.3-.13.54-.31.73-.55.18-.23.27-.5.27-.81s-.09-.6-.26-.83-.41-.42-.71-.55-.65-.2-1.03-.2-.73.07-1.03.2-.54.32-.71.55-.26.52-.26.83.09.59.26.83.41.41.71.55.65.2,1.03.2Z"/>
    </g>
  </g>
  <g>
    <rect id="Not_Repatriated_-_UNC" data-name="Not_Repatriated - UNC" class="cls-1" x="103.68" y="318.58" width="294.03" height="30.06"/>
    <rect id="Repatriated_-_UNC" data-name="Repatriated - UNC" class="cls-1" x="501.52" y="318.58" width="591.98" height="30.06"/>
    <g class="cls-7">
      <path class="cls-3" d="M437.67,338.62c-.96,0-1.79-.16-2.49-.49-.71-.32-1.25-.83-1.64-1.5-.38-.68-.58-1.54-.58-2.6v-6.72c0-.12.04-.22.12-.3.08-.08.17-.12.28-.12h1.5c.12,0,.22.04.29.12.07.08.11.18.11.3v6.72c0,.9.22,1.57.64,2.01.43.44,1.02.65,1.77.65s1.33-.22,1.76-.65c.42-.44.64-1.1.64-2.01v-6.72c0-.12.04-.22.12-.3.08-.08.18-.12.3-.12h1.49c.12,0,.22.04.29.12.07.08.11.18.11.3v6.72c0,1.06-.19,1.92-.57,2.6s-.92,1.18-1.62,1.5-1.53.49-2.5.49Z"/>
      <path class="cls-3" d="M445.23,338.45c-.11,0-.2-.04-.28-.12s-.12-.17-.12-.28v-10.75c0-.12.04-.22.12-.3.08-.08.17-.12.28-.12h1.27c.15,0,.27.04.34.11.07.07.12.12.14.16l4.76,7.4v-7.25c0-.12.04-.22.11-.3.07-.08.17-.12.29-.12h1.39c.12,0,.22.04.3.12.08.08.12.18.12.3v10.74c0,.12-.04.22-.12.3s-.17.12-.28.12h-1.29c-.16,0-.26-.04-.33-.12s-.12-.13-.15-.15l-4.74-7.23v7.1c0,.11-.04.2-.12.28s-.18.12-.3.12h-1.39Z"/>
      <path class="cls-3" d="M460.97,338.62c-1.02,0-1.89-.18-2.6-.54-.71-.36-1.25-.87-1.63-1.54-.37-.67-.58-1.47-.63-2.4-.01-.45-.02-.94-.02-1.45s0-1.01.02-1.49c.04-.93.26-1.72.64-2.4.38-.67.92-1.19,1.63-1.54.71-.36,1.57-.54,2.59-.54.75,0,1.42.1,2.01.3.6.2,1.1.47,1.52.82.42.35.74.75.97,1.21.23.46.35.96.36,1.5.01.1-.02.18-.09.25-.07.07-.16.1-.26.1h-1.57c-.12,0-.22-.03-.3-.09-.08-.06-.13-.16-.16-.31-.18-.73-.48-1.22-.91-1.49-.43-.26-.96-.4-1.6-.4-.74,0-1.33.21-1.77.62-.44.41-.68,1.09-.71,2.04-.03.9-.03,1.83,0,2.78.03.95.27,1.63.71,2.04.44.41,1.03.62,1.77.62.64,0,1.18-.13,1.61-.4.43-.27.74-.76.9-1.48.03-.15.09-.26.16-.31.08-.05.18-.08.3-.08h1.57c.1,0,.18.03.26.1.07.07.1.15.09.25-.01.54-.13,1.04-.36,1.5-.23.46-.56.87-.97,1.21-.42.35-.93.62-1.52.82-.59.2-1.27.3-2.01.3Z"/>
    </g>
    <g class="cls-7">
      <path class="cls-3" d="M1120.67,338.45c-.1,0-.18-.04-.25-.11-.07-.07-.1-.16-.1-.26,0-.04.01-.09.03-.15l3.98-9.08h-5.19c-.12,0-.22-.04-.29-.12-.07-.08-.11-.17-.11-.28v-1.16c0-.12.04-.22.11-.3.07-.08.17-.12.29-.12h7.25c.12,0,.22.04.29.12.07.08.11.18.11.3v1.02c0,.15-.02.28-.04.39-.03.1-.06.21-.11.32l-3.95,9.02c-.03.08-.09.16-.17.26-.08.09-.2.14-.36.14h-1.5Z"/>
      <path class="cls-3" d="M1132.3,338.63c-.95,0-1.75-.16-2.4-.47-.65-.31-1.14-.72-1.48-1.23-.34-.51-.52-1.05-.54-1.62-.01-.1.02-.18.09-.24.07-.06.16-.09.26-.09h1.54c.12,0,.22.02.31.07.08.05.15.14.19.26.11.33.27.6.47.81.2.21.44.36.71.46.27.1.55.15.85.15.4,0,.76-.08,1.08-.24.33-.16.59-.4.79-.72s.3-.71.3-1.17c0-.41-.09-.76-.28-1.06-.19-.3-.44-.53-.77-.7s-.7-.26-1.11-.26c-.31,0-.56.04-.76.12s-.37.17-.5.26c-.14.1-.26.19-.36.26-.1.08-.22.12-.36.12h-1.52c-.1,0-.18-.04-.26-.11-.07-.07-.11-.16-.11-.26l.58-5.65c.01-.14.06-.25.15-.33.09-.08.19-.12.31-.12h6.21c.11,0,.2.04.28.12.08.08.12.17.12.28v1.11c0,.11-.04.2-.12.28-.08.08-.17.12-.28.12h-4.77l-.26,2.69c.2-.13.46-.26.79-.38.33-.12.79-.18,1.37-.18.53,0,1.03.09,1.51.26.48.17.91.42,1.28.74.37.32.67.72.88,1.17.21.46.32.98.32,1.56,0,.8-.19,1.5-.56,2.1-.37.6-.9,1.06-1.57,1.39-.67.33-1.47.5-2.38.5Z"/>
      <path class="cls-3" d="M1138.36,339.69c-.1,0-.18-.03-.23-.1s-.08-.15-.07-.25l.45-2.81c.02-.14.07-.27.16-.37s.21-.16.37-.16h1.52c.09,0,.16.03.22.09.05.06.08.13.08.22,0,.08-.02.15-.05.21l-1.06,2.74c-.04.11-.11.21-.19.29-.08.08-.2.12-.36.12h-.84Z"/>
      <path class="cls-3" d="M1146.78,338.63c-.95,0-1.75-.16-2.4-.47-.65-.31-1.14-.72-1.48-1.23-.34-.51-.52-1.05-.54-1.62-.01-.1.02-.18.09-.24.07-.06.16-.09.26-.09h1.54c.12,0,.22.02.31.07.08.05.15.14.19.26.11.33.27.6.47.81.2.21.44.36.71.46.27.1.55.15.85.15.4,0,.76-.08,1.08-.24.33-.16.59-.4.79-.72s.3-.71.3-1.17c0-.41-.09-.76-.28-1.06-.19-.3-.44-.53-.77-.7s-.7-.26-1.11-.26c-.31,0-.56.04-.76.12s-.37.17-.5.26c-.14.1-.26.19-.36.26-.1.08-.22.12-.36.12h-1.52c-.1,0-.18-.04-.26-.11-.07-.07-.11-.16-.11-.26l.58-5.65c.01-.14.06-.25.15-.33.09-.08.19-.12.31-.12h6.21c.11,0,.2.04.28.12.08.08.12.17.12.28v1.11c0,.11-.04.2-.12.28-.08.08-.17.12-.28.12h-4.77l-.26,2.69c.2-.13.46-.26.79-.38.33-.12.79-.18,1.37-.18.53,0,1.03.09,1.51.26.48.17.91.42,1.28.74.37.32.67.72.88,1.17.21.46.32.98.32,1.56,0,.8-.19,1.5-.56,2.1-.37.6-.9,1.06-1.57,1.39-.67.33-1.47.5-2.38.5Z"/>
    </g>
    <g class="cls-7">
      <path class="cls-3" d="M52.02,338.62c-.77,0-1.44-.09-2-.28-.56-.19-1.03-.43-1.4-.74s-.65-.63-.83-.99c-.19-.36-.29-.71-.3-1.07,0-.1.04-.18.11-.24.07-.06.16-.09.26-.09h1.49c.11,0,.2.02.28.07.08.04.14.13.2.26.1.3.26.53.49.71s.49.3.78.37.61.11.94.11c.66,0,1.19-.16,1.58-.47.39-.31.59-.76.59-1.35s-.18-1-.54-1.26c-.36-.26-.87-.39-1.52-.39h-1.7c-.12,0-.22-.04-.3-.11s-.12-.17-.12-.29v-.69c0-.11.02-.21.07-.29.05-.08.1-.15.16-.21l2.96-2.89h-4.72c-.12,0-.22-.04-.29-.12-.07-.08-.11-.17-.11-.28v-1.09c0-.12.04-.22.11-.3.07-.08.17-.12.29-.12h7.09c.12,0,.22.04.3.12.08.08.12.18.12.3v.99c0,.1-.02.19-.06.26-.04.08-.09.14-.15.2l-2.86,2.94.2.02c.67.06,1.27.21,1.79.45s.93.61,1.22,1.08c.29.47.44,1.07.44,1.78s-.2,1.39-.59,1.92-.93.94-1.61,1.23c-.68.29-1.47.43-2.35.43Z"/>
      <path class="cls-3" d="M59.68,338.45c-.1,0-.18-.04-.25-.11-.07-.07-.1-.16-.1-.26,0-.04.01-.09.03-.15l3.98-9.08h-5.19c-.12,0-.22-.04-.29-.12-.07-.08-.11-.17-.11-.28v-1.16c0-.12.04-.22.11-.3.07-.08.17-.12.29-.12h7.25c.12,0,.22.04.29.12.07.08.11.18.11.3v1.02c0,.15-.02.28-.04.39-.03.1-.06.21-.11.32l-3.95,9.02c-.03.08-.09.16-.17.26-.08.09-.2.14-.36.14h-1.5Z"/>
      <path class="cls-3" d="M66.24,339.69c-.1,0-.18-.03-.23-.1s-.08-.15-.07-.25l.45-2.81c.02-.14.07-.27.16-.37s.21-.16.37-.16h1.52c.09,0,.16.03.22.09.05.06.08.13.08.22,0,.08-.02.15-.05.21l-1.06,2.74c-.04.11-.11.21-.19.29-.08.08-.2.12-.36.12h-.84Z"/>
      <path class="cls-3" d="M74.66,338.63c-.95,0-1.75-.16-2.4-.47-.65-.31-1.14-.72-1.48-1.23-.34-.51-.52-1.05-.54-1.62-.01-.1.02-.18.09-.24.07-.06.16-.09.26-.09h1.54c.12,0,.22.02.31.07.08.05.15.14.19.26.11.33.27.6.47.81.2.21.44.36.71.46.27.1.55.15.85.15.4,0,.76-.08,1.08-.24.33-.16.59-.4.79-.72s.3-.71.3-1.17c0-.41-.09-.76-.28-1.06-.19-.3-.44-.53-.77-.7s-.7-.26-1.11-.26c-.31,0-.56.04-.76.12s-.37.17-.5.26c-.14.1-.26.19-.36.26-.1.08-.22.12-.36.12h-1.52c-.1,0-.18-.04-.26-.11-.07-.07-.11-.16-.11-.26l.58-5.65c.01-.14.06-.25.15-.33.09-.08.19-.12.31-.12h6.21c.11,0,.2.04.28.12.08.08.12.17.12.28v1.11c0,.11-.04.2-.12.28-.08.08-.17.12-.28.12h-4.77l-.26,2.69c.2-.13.46-.26.79-.38.33-.12.79-.18,1.37-.18.53,0,1.03.09,1.51.26.48.17.91.42,1.28.74.37.32.67.72.88,1.17.21.46.32.98.32,1.56,0,.8-.19,1.5-.56,2.1-.37.6-.9,1.06-1.57,1.39-.67.33-1.47.5-2.38.5Z"/>
    </g>
  </g>
  <g>
    <rect id="Not_Repatriated_-_WH" data-name="Not_Repatriated - WH" class="cls-2" x="304.4" y="396.27" width="93.31" height="30.06"/>
    <rect id="Repatriated_-_WH" data-name="Repatriated - WH" class="cls-2" x="501.52" y="396.27" width="432.81" height="30.06"/>
    <g class="cls-7">
      <path class="cls-3" d="M439.57,416.14c-.16,0-.3-.05-.39-.14-.09-.09-.16-.21-.19-.36l-1.97-10.59s0-.06,0-.08c0-.02,0-.04,0-.05,0-.1.04-.18.11-.25.07-.06.15-.1.24-.1h1.45c.28,0,.43.11.46.33l1.37,7.48,1.49-4.84c.03-.09.09-.18.17-.27.08-.09.21-.14.37-.14h.89c.18,0,.3.05.38.14.08.09.13.18.15.27l1.5,4.82,1.37-7.47c.03-.22.19-.33.46-.33h1.45c.09,0,.17.03.23.1.07.07.1.15.1.25v.05s0,.05-.02.08l-1.97,10.59c-.02.14-.08.26-.18.36-.1.09-.23.14-.4.14h-1.11c-.16,0-.29-.04-.39-.13s-.16-.18-.19-.28l-1.85-5.52-1.85,5.52c-.04.1-.11.19-.2.28-.09.09-.22.13-.4.13h-1.11Z"/>
      <path class="cls-3" d="M451.55,416.14c-.11,0-.2-.04-.28-.11-.08-.07-.12-.17-.12-.29v-10.75c0-.12.04-.22.12-.3s.17-.12.28-.12h1.5c.12,0,.22.04.29.12s.11.18.11.3v4.26h4.87v-4.26c0-.12.04-.22.12-.3s.17-.12.28-.12h1.49c.12,0,.22.04.3.12s.12.18.12.3v10.75c0,.11-.04.2-.12.28s-.18.12-.3.12h-1.49c-.11,0-.2-.04-.28-.12s-.12-.17-.12-.28v-4.43h-4.87v4.43c0,.11-.04.2-.11.28s-.17.12-.29.12h-1.5Z"/>
    </g>
    <g class="cls-7">
      <path class="cls-3" d="M254.4,416.14c-.12,0-.22-.04-.29-.12-.07-.08-.11-.17-.11-.28v-8.56l-2.51,1.93c-.1.07-.2.09-.3.07-.1-.02-.19-.07-.26-.17l-.69-.89c-.07-.1-.09-.2-.08-.31.02-.11.08-.2.17-.26l3.7-2.86c.07-.06.13-.09.2-.1s.14-.02.22-.02h1.45c.11,0,.2.04.28.12s.12.17.12.28v10.77c0,.11-.04.2-.12.28s-.17.12-.28.12h-1.5Z"/>
      <path class="cls-3" d="M262.05,416.14c-.12,0-.22-.04-.29-.12-.07-.08-.11-.17-.11-.28v-8.56l-2.51,1.93c-.1.07-.2.09-.3.07-.1-.02-.19-.07-.26-.17l-.69-.89c-.07-.1-.09-.2-.08-.31.02-.11.08-.2.17-.26l3.7-2.86c.07-.06.13-.09.2-.1s.14-.02.22-.02h1.45c.11,0,.2.04.28.12s.12.17.12.28v10.77c0,.11-.04.2-.12.28s-.17.12-.28.12h-1.5Z"/>
      <path class="cls-3" d="M266.11,417.38c-.1,0-.18-.03-.23-.1s-.08-.15-.07-.25l.45-2.81c.02-.14.07-.27.16-.37s.21-.16.37-.16h1.52c.09,0,.16.03.22.09.05.06.08.14.08.22,0,.08-.02.15-.05.22l-1.06,2.74c-.04.11-.11.21-.19.29-.08.08-.2.12-.36.12h-.84Z"/>
      <path class="cls-3" d="M271.81,416.14c-.1,0-.18-.04-.25-.11-.07-.07-.1-.16-.1-.26,0-.06,0-.1.02-.13l.04-.08,2.43-3.35c-.21.05-.44.08-.68.07-.56-.01-1.08-.12-1.56-.32-.48-.2-.9-.48-1.25-.83s-.64-.75-.84-1.21c-.2-.46-.31-.95-.31-1.49,0-.5.09-.98.28-1.46.19-.48.47-.91.84-1.3.37-.39.83-.69,1.39-.92.56-.23,1.21-.34,1.96-.34s1.39.1,1.95.31,1.03.5,1.41.87c.38.37.67.79.86,1.26.19.47.29.97.29,1.5,0,.47-.08.91-.23,1.32-.16.41-.34.78-.57,1.11-.23.34-.45.66-.67.98l-2.91,4.03c-.04.06-.11.12-.19.21-.08.08-.21.12-.37.12h-1.54ZM273.79,410.52c.4,0,.76-.08,1.08-.26.32-.17.58-.41.78-.73.19-.31.29-.69.29-1.11s-.1-.82-.29-1.13c-.19-.31-.46-.56-.78-.73-.33-.17-.69-.26-1.07-.26s-.76.08-1.08.26-.58.41-.78.73-.29.69-.29,1.13.1.8.29,1.11.45.56.78.73c.32.17.69.26,1.08.26Z"/>
    </g>
    <g class="cls-7">
      <path class="cls-3" d="M960.33,416.32c-.95,0-1.75-.16-2.4-.47-.65-.31-1.14-.72-1.48-1.23-.34-.51-.52-1.05-.54-1.62-.01-.1.02-.18.09-.24.07-.06.16-.09.26-.09h1.54c.12,0,.22.02.31.08.08.05.15.13.19.26.11.33.27.6.47.81.2.21.44.36.71.46.27.1.55.15.85.15.4,0,.76-.08,1.08-.24.33-.16.59-.4.79-.72s.3-.71.3-1.17c0-.41-.09-.76-.28-1.06-.19-.3-.44-.53-.77-.7s-.7-.26-1.11-.26c-.31,0-.56.04-.76.12s-.37.16-.5.26c-.14.1-.26.19-.36.26s-.22.12-.36.12h-1.52c-.1,0-.18-.04-.26-.11s-.11-.16-.11-.26l.58-5.65c.01-.14.06-.25.15-.33s.19-.12.31-.12h6.21c.11,0,.2.04.28.12s.12.17.12.28v1.11c0,.11-.04.2-.12.28s-.17.12-.28.12h-4.77l-.26,2.69c.2-.13.46-.26.79-.38s.79-.18,1.37-.18c.53,0,1.03.08,1.51.26.48.17.91.42,1.28.74s.67.72.88,1.17c.21.46.32.98.32,1.56,0,.8-.19,1.5-.56,2.1-.37.59-.9,1.06-1.57,1.39-.67.33-1.47.5-2.38.5Z"/>
      <path class="cls-3" d="M970.57,416.32c-.95,0-1.75-.16-2.4-.47-.65-.31-1.14-.72-1.48-1.23-.34-.51-.52-1.05-.54-1.62-.01-.1.02-.18.09-.24.07-.06.16-.09.26-.09h1.54c.12,0,.22.02.31.08.08.05.15.13.19.26.11.33.27.6.47.81.2.21.44.36.71.46.27.1.55.15.85.15.4,0,.76-.08,1.08-.24.33-.16.59-.4.79-.72s.3-.71.3-1.17c0-.41-.09-.76-.28-1.06-.19-.3-.44-.53-.77-.7s-.7-.26-1.11-.26c-.31,0-.56.04-.76.12s-.37.16-.5.26c-.14.1-.26.19-.36.26s-.22.12-.36.12h-1.52c-.1,0-.18-.04-.26-.11s-.11-.16-.11-.26l.58-5.65c.01-.14.06-.25.15-.33s.19-.12.31-.12h6.21c.11,0,.2.04.28.12s.12.17.12.28v1.11c0,.11-.04.2-.12.28s-.17.12-.28.12h-4.77l-.26,2.69c.2-.13.46-.26.79-.38s.79-.18,1.37-.18c.53,0,1.03.08,1.51.26.48.17.91.42,1.28.74s.67.72.88,1.17c.21.46.32.98.32,1.56,0,.8-.19,1.5-.56,2.1-.37.59-.9,1.06-1.57,1.39-.67.33-1.47.5-2.38.5Z"/>
      <path class="cls-3" d="M976.63,417.38c-.1,0-.18-.03-.23-.1s-.08-.15-.07-.25l.45-2.81c.02-.14.07-.27.16-.37s.21-.16.37-.16h1.52c.09,0,.16.03.22.09.05.06.08.14.08.22,0,.08-.02.15-.05.22l-1.06,2.74c-.04.11-.11.21-.19.29-.08.08-.2.12-.36.12h-.84Z"/>
      <path class="cls-3" d="M981.14,416.14c-.11,0-.2-.04-.28-.12-.08-.08-.12-.17-.12-.28v-.84c0-.1.02-.22.08-.36.05-.14.16-.28.34-.42l2.61-2.59c.73-.57,1.31-1.06,1.76-1.46.45-.4.77-.77.97-1.11.2-.34.3-.67.3-1,0-.5-.13-.9-.4-1.21-.27-.31-.7-.46-1.28-.46-.39,0-.71.08-.97.24s-.47.37-.62.64c-.15.26-.25.56-.3.88-.02.14-.08.24-.18.3-.1.06-.2.08-.3.08h-1.47c-.1,0-.18-.03-.25-.1s-.1-.14-.1-.23c.01-.47.11-.93.3-1.38s.46-.84.82-1.19c.36-.35.8-.63,1.31-.84.52-.21,1.1-.31,1.75-.31.91,0,1.67.16,2.27.46s1.05.73,1.35,1.25c.3.53.45,1.12.45,1.78,0,.52-.1.99-.3,1.43-.2.44-.48.85-.86,1.26-.37.4-.83.81-1.35,1.23l-2.35,2.38h4.71c.12,0,.22.04.29.11.07.07.11.17.11.29v1.17c0,.11-.04.2-.11.28-.07.08-.17.12-.29.12h-7.9Z"/>
    </g>
  </g>
  <g>
    <path class="cls-3" d="M503.21,98.52c-.11,0-.2-.04-.28-.12s-.12-.17-.12-.28v-10.75c0-.12.04-.22.12-.3.08-.08.17-.12.28-.12h4.28c1.33,0,2.38.31,3.15.93s1.16,1.51,1.16,2.69c0,.82-.2,1.49-.6,2.03-.4.54-.94.93-1.61,1.17l2.41,4.21c.03.07.05.13.05.18,0,.1-.04.18-.11.25-.07.07-.15.1-.24.1h-1.5c-.19,0-.33-.05-.43-.15-.1-.1-.18-.2-.23-.3l-2.13-3.91h-2.3v3.96c0,.11-.04.2-.11.28s-.17.12-.29.12h-1.5ZM505.1,92.29h2.33c.67,0,1.17-.15,1.5-.45.33-.3.5-.73.5-1.28s-.16-.98-.49-1.3-.83-.47-1.51-.47h-2.33v3.5Z"/>
    <path class="cls-3" d="M517.43,98.68c-1.22,0-2.19-.35-2.91-1.06-.72-.7-1.1-1.71-1.16-3.01-.01-.11-.02-.25-.02-.42s0-.31.02-.4c.04-.84.23-1.56.57-2.16.34-.6.8-1.06,1.4-1.39.6-.32,1.29-.49,2.1-.49.89,0,1.64.18,2.25.55s1.06.88,1.37,1.54c.31.66.46,1.41.46,2.27v.35c0,.11-.04.2-.12.28s-.18.12-.3.12h-5.49v.13c.01.39.09.74.22,1.07.14.32.34.59.61.78.27.2.59.3.97.3.31,0,.57-.05.78-.14.21-.09.38-.2.51-.32.13-.12.23-.22.28-.3.1-.13.18-.21.24-.24.06-.03.15-.04.27-.04h1.42c.11,0,.2.03.27.1.07.07.1.15.09.25-.01.18-.1.39-.27.64-.17.25-.42.5-.73.74-.32.24-.72.44-1.2.6-.48.16-1.03.24-1.64.24ZM515.61,93.48h3.65v-.05c0-.43-.07-.81-.21-1.13-.14-.33-.35-.58-.63-.76-.28-.18-.6-.27-.99-.27s-.72.09-.99.27c-.28.18-.48.43-.62.76-.14.32-.21.7-.21,1.13v.05Z"/>
    <path class="cls-3" d="M523.67,101.66c-.11,0-.2-.04-.28-.12s-.12-.17-.12-.28v-10.93c0-.11.04-.2.12-.28.08-.08.17-.12.28-.12h1.31c.12,0,.22.04.29.12.07.08.11.17.11.28v.66c.26-.35.61-.64,1.04-.88.43-.23.96-.35,1.6-.35.58,0,1.09.09,1.52.28.43.19.79.45,1.07.8s.51.76.66,1.23c.16.47.24,1,.26,1.57.01.19.02.38.02.58s0,.4-.02.6c-.01.55-.09,1.06-.25,1.53s-.38.88-.67,1.22-.65.62-1.08.82c-.43.2-.94.3-1.52.3s-1.1-.11-1.52-.32-.76-.5-1.02-.85v3.75c0,.11-.04.2-.11.28-.07.08-.17.12-.29.12h-1.4ZM527.4,96.92c.47,0,.84-.1,1.11-.31s.46-.47.58-.8c.12-.33.19-.69.21-1.09.01-.33.01-.66,0-.99-.02-.4-.09-.76-.21-1.09-.12-.33-.31-.6-.58-.8s-.63-.31-1.11-.31-.82.1-1.1.31c-.28.21-.48.48-.61.8-.13.33-.2.66-.22,1-.01.2-.02.41-.02.63s0,.44.02.64c.01.33.09.65.23.95s.35.55.63.75c.28.2.63.3,1.07.3Z"/>
    <path class="cls-3" d="M535.89,98.68c-.57,0-1.09-.11-1.55-.34-.46-.23-.83-.53-1.1-.91-.27-.38-.4-.81-.4-1.28,0-.77.31-1.38.94-1.84s1.45-.76,2.46-.92l2.26-.33v-.35c0-.46-.12-.82-.35-1.07-.23-.25-.63-.38-1.19-.38-.4,0-.72.08-.97.24-.25.16-.43.37-.55.64-.09.14-.22.21-.38.21h-1.31c-.12,0-.21-.03-.27-.1s-.09-.15-.09-.26c.01-.18.08-.39.22-.64.14-.25.35-.5.63-.74.28-.24.65-.44,1.1-.6.45-.16,1-.25,1.64-.25.69,0,1.28.09,1.76.26.48.17.86.4,1.15.69.29.29.5.62.63,1.01.13.39.2.79.2,1.22v5.19c0,.11-.04.2-.12.28s-.17.12-.28.12h-1.34c-.12,0-.22-.04-.29-.12-.07-.08-.11-.17-.11-.28v-.64c-.14.2-.34.39-.58.58-.24.19-.54.34-.88.45-.35.12-.76.17-1.23.17ZM536.46,97.11c.39,0,.74-.08,1.05-.25s.56-.42.74-.77c.18-.35.27-.79.27-1.31v-.35l-1.65.26c-.65.1-1.13.26-1.45.48-.32.22-.48.49-.48.81,0,.24.07.45.22.62s.34.3.57.38c.23.08.47.12.73.12Z"/>
    <path class="cls-3" d="M546.71,98.52c-.66,0-1.22-.12-1.67-.35-.45-.23-.79-.58-1.01-1.03-.22-.46-.33-1.03-.33-1.71v-3.75h-1.3c-.11,0-.2-.04-.28-.12s-.12-.18-.12-.3v-.94c0-.11.04-.2.12-.28.08-.08.17-.12.28-.12h1.3v-2.74c0-.11.04-.2.11-.28s.17-.12.29-.12h1.34c.11,0,.2.04.28.12.08.08.12.17.12.28v2.74h2.07c.11,0,.2.04.28.12.08.08.12.17.12.28v.94c0,.12-.04.22-.12.3s-.17.12-.28.12h-2.07v3.58c0,.45.08.8.24,1.06.16.25.44.38.83.38h1.14c.11,0,.2.04.28.12.08.08.12.17.12.28v1.02c0,.11-.04.2-.12.28s-.17.12-.28.12h-1.34Z"/>
    <path class="cls-3" d="M550.31,98.52c-.11,0-.2-.04-.28-.12s-.12-.17-.12-.28v-7.78c0-.12.04-.22.12-.3.08-.08.17-.12.28-.12h1.34c.11,0,.21.04.29.12.08.08.12.18.12.3v.68c.25-.35.58-.62.98-.81.4-.19.87-.28,1.4-.28h.68c.12,0,.22.04.29.12.07.08.11.17.11.28v1.19c0,.11-.04.2-.11.28-.07.08-.17.12-.29.12h-1.29c-.53,0-.94.15-1.23.44-.29.29-.44.7-.44,1.23v4.54c0,.11-.04.2-.12.28-.08.08-.18.12-.3.12h-1.44Z"/>
    <path class="cls-3" d="M557.14,88.51c-.11,0-.2-.04-.28-.12s-.12-.17-.12-.28v-1.19c0-.11.04-.2.12-.28s.17-.12.28-.12h1.5c.12,0,.22.04.3.12.08.08.12.17.12.28v1.19c0,.11-.04.2-.12.28-.08.08-.18.12-.3.12h-1.5ZM557.2,98.52c-.11,0-.2-.04-.28-.12s-.12-.17-.12-.28v-7.8c0-.11.04-.2.12-.28.08-.08.17-.12.28-.12h1.37c.12,0,.22.04.29.12.07.08.11.17.11.28v7.8c0,.11-.04.2-.11.28-.07.08-.17.12-.29.12h-1.37Z"/>
    <path class="cls-3" d="M563.66,98.68c-.57,0-1.09-.11-1.55-.34-.46-.23-.83-.53-1.1-.91-.27-.38-.4-.81-.4-1.28,0-.77.31-1.38.94-1.84s1.45-.76,2.46-.92l2.26-.33v-.35c0-.46-.12-.82-.35-1.07-.23-.25-.63-.38-1.19-.38-.4,0-.72.08-.97.24-.25.16-.43.37-.55.64-.09.14-.22.21-.38.21h-1.31c-.12,0-.21-.03-.27-.1s-.09-.15-.09-.26c.01-.18.08-.39.22-.64.14-.25.35-.5.63-.74.28-.24.65-.44,1.1-.6.45-.16,1-.25,1.64-.25.69,0,1.28.09,1.76.26.48.17.86.4,1.15.69.29.29.5.62.63,1.01.13.39.2.79.2,1.22v5.19c0,.11-.04.2-.12.28s-.17.12-.28.12h-1.34c-.12,0-.22-.04-.29-.12-.07-.08-.11-.17-.11-.28v-.64c-.14.2-.34.39-.58.58-.24.19-.54.34-.88.45-.35.12-.76.17-1.23.17ZM564.22,97.11c.39,0,.74-.08,1.05-.25s.56-.42.74-.77c.18-.35.27-.79.27-1.31v-.35l-1.65.26c-.65.1-1.13.26-1.45.48-.32.22-.48.49-.48.81,0,.24.07.45.22.62s.34.3.57.38c.23.08.47.12.73.12Z"/>
    <path class="cls-3" d="M574.48,98.52c-.66,0-1.22-.12-1.67-.35-.45-.23-.79-.58-1.01-1.03-.22-.46-.33-1.03-.33-1.71v-3.75h-1.3c-.11,0-.2-.04-.28-.12s-.12-.18-.12-.3v-.94c0-.11.04-.2.12-.28.08-.08.17-.12.28-.12h1.3v-2.74c0-.11.04-.2.11-.28s.17-.12.29-.12h1.34c.11,0,.2.04.28.12.08.08.12.17.12.28v2.74h2.07c.11,0,.2.04.28.12.08.08.12.17.12.28v.94c0,.12-.04.22-.12.3s-.17.12-.28.12h-2.07v3.58c0,.45.08.8.24,1.06.16.25.44.38.83.38h1.14c.11,0,.2.04.28.12.08.08.12.17.12.28v1.02c0,.11-.04.2-.12.28s-.17.12-.28.12h-1.34Z"/>
    <path class="cls-3" d="M581.39,98.68c-1.22,0-2.19-.35-2.91-1.06-.72-.7-1.1-1.71-1.16-3.01-.01-.11-.02-.25-.02-.42s0-.31.02-.4c.04-.84.23-1.56.57-2.16.34-.6.8-1.06,1.4-1.39.6-.32,1.29-.49,2.1-.49.89,0,1.64.18,2.25.55s1.06.88,1.37,1.54c.31.66.46,1.41.46,2.27v.35c0,.11-.04.2-.12.28s-.18.12-.3.12h-5.49v.13c.01.39.09.74.22,1.07.14.32.34.59.61.78.27.2.59.3.97.3.31,0,.57-.05.78-.14.21-.09.38-.2.51-.32.13-.12.23-.22.28-.3.1-.13.18-.21.24-.24.06-.03.15-.04.27-.04h1.42c.11,0,.2.03.27.1.07.07.1.15.09.25-.01.18-.1.39-.27.64-.17.25-.42.5-.73.74-.32.24-.72.44-1.2.6-.48.16-1.03.24-1.64.24ZM579.57,93.48h3.65v-.05c0-.43-.07-.81-.21-1.13-.14-.33-.35-.58-.63-.76-.28-.18-.6-.27-.99-.27s-.72.09-.99.27c-.28.18-.48.43-.62.76-.14.32-.21.7-.21,1.13v.05Z"/>
    <path class="cls-3" d="M590.4,98.68c-.57,0-1.08-.1-1.51-.29-.44-.19-.8-.47-1.08-.82-.29-.35-.51-.77-.66-1.25s-.24-1-.26-1.58c-.01-.2-.02-.38-.02-.54s0-.34.02-.54c.02-.55.11-1.06.26-1.54.15-.47.37-.89.66-1.25.29-.36.66-.64,1.09-.83s.94-.3,1.51-.3,1.1.1,1.51.31c.41.2.76.47,1.03.78v-3.67c0-.11.04-.2.11-.28.07-.08.17-.12.29-.12h1.4c.11,0,.2.04.28.12.08.08.12.17.12.28v10.93c0,.11-.04.2-.12.28-.08.08-.17.12-.28.12h-1.31c-.12,0-.22-.04-.29-.12-.07-.08-.11-.17-.11-.28v-.61c-.28.34-.63.62-1.05.84-.42.22-.96.33-1.59.33ZM591.01,96.92c.46,0,.83-.1,1.11-.31s.48-.48.61-.8c.13-.32.2-.66.21-1,.01-.2.02-.41.02-.64s0-.44-.02-.64c-.01-.33-.09-.65-.23-.95s-.35-.55-.63-.75c-.28-.2-.63-.3-1.07-.3s-.83.1-1.1.31c-.27.2-.46.47-.59.8s-.19.69-.22,1.09c-.01.33-.01.66,0,.99.02.4.09.76.22,1.09.12.33.32.6.59.8.27.2.64.31,1.1.31Z"/>
  </g>
  <g>
    <path class="cls-3" d="M276.57,98.52c-.11,0-.2-.04-.28-.12s-.12-.17-.12-.28v-10.75c0-.12.04-.22.12-.3.08-.08.17-.12.28-.12h1.27c.15,0,.27.04.34.11.07.07.12.12.14.16l4.76,7.4v-7.25c0-.12.04-.22.11-.3.07-.08.17-.12.29-.12h1.39c.12,0,.22.04.3.12.08.08.12.18.12.3v10.74c0,.12-.04.22-.12.3s-.17.12-.28.12h-1.29c-.16,0-.26-.04-.33-.12s-.12-.13-.15-.15l-4.74-7.23v7.1c0,.11-.04.2-.12.28s-.18.12-.3.12h-1.39Z"/>
    <path class="cls-3" d="M291.45,98.68c-.88,0-1.62-.15-2.22-.46-.6-.31-1.06-.74-1.37-1.3-.31-.56-.49-1.22-.54-1.97-.01-.2-.02-.44-.02-.73s0-.53.02-.73c.04-.76.23-1.42.55-1.97s.79-.99,1.39-1.3,1.33-.46,2.19-.46,1.59.15,2.19.46c.6.31,1.06.74,1.39,1.3s.51,1.21.55,1.97c.01.2.02.44.02.73s0,.53-.02.73c-.04.75-.22,1.4-.54,1.97-.31.56-.77,1-1.37,1.3-.6.31-1.34.46-2.22.46ZM291.45,97.05c.58,0,1.03-.18,1.35-.55.32-.37.5-.91.53-1.63.01-.17.02-.38.02-.64s0-.48-.02-.64c-.03-.72-.21-1.26-.53-1.63s-.77-.55-1.35-.55-1.03.18-1.35.55c-.32.37-.5.91-.53,1.63-.01.16-.02.38-.02.64s0,.48.02.64c.03.72.21,1.26.53,1.63.32.37.77.55,1.35.55Z"/>
    <path class="cls-3" d="M301.31,98.52c-.66,0-1.22-.12-1.67-.35-.45-.23-.79-.58-1.01-1.03-.22-.46-.33-1.03-.33-1.71v-3.75h-1.3c-.11,0-.2-.04-.28-.12s-.12-.18-.12-.3v-.94c0-.11.04-.2.12-.28.08-.08.17-.12.28-.12h1.3v-2.74c0-.11.04-.2.11-.28s.17-.12.29-.12h1.34c.11,0,.2.04.28.12.08.08.12.17.12.28v2.74h2.07c.11,0,.2.04.28.12.08.08.12.17.12.28v.94c0,.12-.04.22-.12.3s-.17.12-.28.12h-2.07v3.58c0,.45.08.8.24,1.06.16.25.44.38.83.38h1.14c.11,0,.2.04.28.12.08.08.12.17.12.28v1.02c0,.11-.04.2-.12.28s-.17.12-.28.12h-1.34Z"/>
    <path class="cls-3" d="M308.69,98.52c-.11,0-.2-.04-.28-.12s-.12-.17-.12-.28v-7.78c0-.12.04-.22.12-.3.08-.08.17-.12.28-.12h1.34c.11,0,.21.04.29.12.08.08.12.18.12.3v.68c.25-.35.58-.62.98-.81.4-.19.87-.28,1.4-.28h.68c.12,0,.22.04.29.12.07.08.11.17.11.28v1.19c0,.11-.04.2-.11.28-.07.08-.17.12-.29.12h-1.29c-.53,0-.94.15-1.23.44-.29.29-.44.7-.44,1.23v4.54c0,.11-.04.2-.12.28-.08.08-.18.12-.3.12h-1.44Z"/>
    <path class="cls-3" d="M318.88,98.68c-1.22,0-2.19-.35-2.91-1.06-.72-.7-1.1-1.71-1.16-3.01-.01-.11-.02-.25-.02-.42s0-.31.02-.4c.04-.84.23-1.56.57-2.16.34-.6.8-1.06,1.4-1.39.6-.32,1.29-.49,2.1-.49.89,0,1.64.18,2.25.55s1.06.88,1.37,1.54c.31.66.46,1.41.46,2.27v.35c0,.11-.04.2-.12.28s-.18.12-.3.12h-5.49v.13c.01.39.09.74.22,1.07.14.32.34.59.61.78.27.2.59.3.97.3.31,0,.57-.05.78-.14.21-.09.38-.2.51-.32.13-.12.23-.22.28-.3.1-.13.18-.21.24-.24.06-.03.15-.04.27-.04h1.42c.11,0,.2.03.27.1.07.07.1.15.09.25-.01.18-.1.39-.27.64-.17.25-.42.5-.73.74-.32.24-.72.44-1.2.6-.48.16-1.03.24-1.64.24ZM317.07,93.48h3.65v-.05c0-.43-.07-.81-.21-1.13-.14-.33-.35-.58-.63-.76-.28-.18-.6-.27-.99-.27s-.72.09-.99.27c-.28.18-.48.43-.62.76-.14.32-.21.7-.21,1.13v.05Z"/>
    <path class="cls-3" d="M325.13,101.66c-.11,0-.2-.04-.28-.12s-.12-.17-.12-.28v-10.93c0-.11.04-.2.12-.28.08-.08.17-.12.28-.12h1.31c.12,0,.22.04.29.12.07.08.11.17.11.28v.66c.26-.35.61-.64,1.04-.88.43-.23.96-.35,1.6-.35.58,0,1.09.09,1.52.28.43.19.79.45,1.07.8s.51.76.66,1.23c.16.47.24,1,.26,1.57.01.19.02.38.02.58s0,.4-.02.6c-.01.55-.09,1.06-.25,1.53s-.38.88-.67,1.22-.65.62-1.08.82c-.43.2-.94.3-1.52.3s-1.1-.11-1.52-.32-.76-.5-1.02-.85v3.75c0,.11-.04.2-.11.28-.07.08-.17.12-.29.12h-1.4ZM328.86,96.92c.47,0,.84-.1,1.11-.31s.46-.47.58-.8c.12-.33.19-.69.21-1.09.01-.33.01-.66,0-.99-.02-.4-.09-.76-.21-1.09-.12-.33-.31-.6-.58-.8s-.63-.31-1.11-.31-.82.1-1.1.31c-.28.21-.48.48-.61.8-.13.33-.2.66-.22,1-.01.2-.02.41-.02.63s0,.44.02.64c.01.33.09.65.23.95s.35.55.63.75c.28.2.63.3,1.07.3Z"/>
    <path class="cls-3" d="M337.35,98.68c-.57,0-1.09-.11-1.55-.34-.46-.23-.83-.53-1.1-.91-.27-.38-.4-.81-.4-1.28,0-.77.31-1.38.94-1.84s1.45-.76,2.46-.92l2.26-.33v-.35c0-.46-.12-.82-.35-1.07-.23-.25-.63-.38-1.19-.38-.4,0-.72.08-.97.24-.25.16-.43.37-.55.64-.09.14-.22.21-.38.21h-1.31c-.12,0-.21-.03-.27-.1s-.09-.15-.09-.26c.01-.18.08-.39.22-.64.14-.25.35-.5.63-.74.28-.24.65-.44,1.1-.6.45-.16,1-.25,1.64-.25.69,0,1.28.09,1.76.26.48.17.86.4,1.15.69.29.29.5.62.63,1.01.13.39.2.79.2,1.22v5.19c0,.11-.04.2-.12.28s-.17.12-.28.12h-1.34c-.12,0-.22-.04-.29-.12-.07-.08-.11-.17-.11-.28v-.64c-.14.2-.34.39-.58.58-.24.19-.54.34-.88.45-.35.12-.76.17-1.23.17ZM337.91,97.11c.39,0,.74-.08,1.05-.25s.56-.42.74-.77c.18-.35.27-.79.27-1.31v-.35l-1.65.26c-.65.1-1.13.26-1.45.48-.32.22-.48.49-.48.81,0,.24.07.45.22.62s.34.3.57.38c.23.08.47.12.73.12Z"/>
    <path class="cls-3" d="M348.17,98.52c-.66,0-1.22-.12-1.67-.35-.45-.23-.79-.58-1.01-1.03-.22-.46-.33-1.03-.33-1.71v-3.75h-1.3c-.11,0-.2-.04-.28-.12s-.12-.18-.12-.3v-.94c0-.11.04-.2.12-.28.08-.08.17-.12.28-.12h1.3v-2.74c0-.11.04-.2.11-.28s.17-.12.29-.12h1.34c.11,0,.2.04.28.12.08.08.12.17.12.28v2.74h2.07c.11,0,.2.04.28.12.08.08.12.17.12.28v.94c0,.12-.04.22-.12.3s-.17.12-.28.12h-2.07v3.58c0,.45.08.8.24,1.06.16.25.44.38.83.38h1.14c.11,0,.2.04.28.12.08.08.12.17.12.28v1.02c0,.11-.04.2-.12.28s-.17.12-.28.12h-1.34Z"/>
    <path class="cls-3" d="M351.77,98.52c-.11,0-.2-.04-.28-.12s-.12-.17-.12-.28v-7.78c0-.12.04-.22.12-.3.08-.08.17-.12.28-.12h1.34c.11,0,.21.04.29.12.08.08.12.18.12.3v.68c.25-.35.58-.62.98-.81.4-.19.87-.28,1.4-.28h.68c.12,0,.22.04.29.12.07.08.11.17.11.28v1.19c0,.11-.04.2-.11.28-.07.08-.17.12-.29.12h-1.29c-.53,0-.94.15-1.23.44-.29.29-.44.7-.44,1.23v4.54c0,.11-.04.2-.12.28-.08.08-.18.12-.3.12h-1.44Z"/>
    <path class="cls-3" d="M358.6,88.51c-.11,0-.2-.04-.28-.12s-.12-.17-.12-.28v-1.19c0-.11.04-.2.12-.28s.17-.12.28-.12h1.5c.12,0,.22.04.3.12.08.08.12.17.12.28v1.19c0,.11-.04.2-.12.28-.08.08-.18.12-.3.12h-1.5ZM358.66,98.52c-.11,0-.2-.04-.28-.12s-.12-.17-.12-.28v-7.8c0-.11.04-.2.12-.28.08-.08.17-.12.28-.12h1.37c.12,0,.22.04.29.12.07.08.11.17.11.28v7.8c0,.11-.04.2-.11.28-.07.08-.17.12-.29.12h-1.37Z"/>
    <path class="cls-3" d="M365.12,98.68c-.57,0-1.09-.11-1.55-.34-.46-.23-.83-.53-1.1-.91-.27-.38-.4-.81-.4-1.28,0-.77.31-1.38.94-1.84s1.45-.76,2.46-.92l2.26-.33v-.35c0-.46-.12-.82-.35-1.07-.23-.25-.63-.38-1.19-.38-.4,0-.72.08-.97.24-.25.16-.43.37-.55.64-.09.14-.22.21-.38.21h-1.31c-.12,0-.21-.03-.27-.1s-.09-.15-.09-.26c.01-.18.08-.39.22-.64.14-.25.35-.5.63-.74.28-.24.65-.44,1.1-.6.45-.16,1-.25,1.64-.25.69,0,1.28.09,1.76.26.48.17.86.4,1.15.69.29.29.5.62.63,1.01.13.39.2.79.2,1.22v5.19c0,.11-.04.2-.12.28s-.17.12-.28.12h-1.34c-.12,0-.22-.04-.29-.12-.07-.08-.11-.17-.11-.28v-.64c-.14.2-.34.39-.58.58-.24.19-.54.34-.88.45-.35.12-.76.17-1.23.17ZM365.68,97.11c.39,0,.74-.08,1.05-.25s.56-.42.74-.77c.18-.35.27-.79.27-1.31v-.35l-1.65.26c-.65.1-1.13.26-1.45.48-.32.22-.48.49-.48.81,0,.24.07.45.22.62s.34.3.57.38c.23.08.47.12.73.12Z"/>
    <path class="cls-3" d="M375.94,98.52c-.66,0-1.22-.12-1.67-.35-.45-.23-.79-.58-1.01-1.03-.22-.46-.33-1.03-.33-1.71v-3.75h-1.3c-.11,0-.2-.04-.28-.12s-.12-.18-.12-.3v-.94c0-.11.04-.2.12-.28.08-.08.17-.12.28-.12h1.3v-2.74c0-.11.04-.2.11-.28s.17-.12.29-.12h1.34c.11,0,.2.04.28.12.08.08.12.17.12.28v2.74h2.07c.11,0,.2.04.28.12.08.08.12.17.12.28v.94c0,.12-.04.22-.12.3s-.17.12-.28.12h-2.07v3.58c0,.45.08.8.24,1.06.16.25.44.38.83.38h1.14c.11,0,.2.04.28.12.08.08.12.17.12.28v1.02c0,.11-.04.2-.12.28s-.17.12-.28.12h-1.34Z"/>
    <path class="cls-3" d="M382.84,98.68c-1.22,0-2.19-.35-2.91-1.06-.72-.7-1.1-1.71-1.16-3.01-.01-.11-.02-.25-.02-.42s0-.31.02-.4c.04-.84.23-1.56.57-2.16.34-.6.8-1.06,1.4-1.39.6-.32,1.29-.49,2.1-.49.89,0,1.64.18,2.25.55s1.06.88,1.37,1.54c.31.66.46,1.41.46,2.27v.35c0,.11-.04.2-.12.28s-.18.12-.3.12h-5.49v.13c.01.39.09.74.22,1.07.14.32.34.59.61.78.27.2.59.3.97.3.31,0,.57-.05.78-.14.21-.09.38-.2.51-.32.13-.12.23-.22.28-.3.1-.13.18-.21.24-.24.06-.03.15-.04.27-.04h1.42c.11,0,.2.03.27.1.07.07.1.15.09.25-.01.18-.1.39-.27.64-.17.25-.42.5-.73.74-.32.24-.72.44-1.2.6-.48.16-1.03.24-1.64.24ZM381.02,93.48h3.65v-.05c0-.43-.07-.81-.21-1.13-.14-.33-.35-.58-.63-.76-.28-.18-.6-.27-.99-.27s-.72.09-.99.27c-.28.18-.48.43-.62.76-.14.32-.21.7-.21,1.13v.05Z"/>
    <path class="cls-3" d="M391.86,98.68c-.57,0-1.08-.1-1.51-.29-.44-.19-.8-.47-1.08-.82-.29-.35-.51-.77-.66-1.25s-.24-1-.26-1.58c-.01-.2-.02-.38-.02-.54s0-.34.02-.54c.02-.55.11-1.06.26-1.54.15-.47.37-.89.66-1.25.29-.36.66-.64,1.09-.83s.94-.3,1.51-.3,1.1.1,1.51.31c.41.2.76.47,1.03.78v-3.67c0-.11.04-.2.11-.28.07-.08.17-.12.29-.12h1.4c.11,0,.2.04.28.12.08.08.12.17.12.28v10.93c0,.11-.04.2-.12.28-.08.08-.17.12-.28.12h-1.31c-.12,0-.22-.04-.29-.12-.07-.08-.11-.17-.11-.28v-.61c-.28.34-.63.62-1.05.84-.42.22-.96.33-1.59.33ZM392.47,96.92c.46,0,.83-.1,1.11-.31s.48-.48.61-.8c.13-.32.2-.66.21-1,.01-.2.02-.41.02-.64s0-.44-.02-.64c-.01-.33-.09-.65-.23-.95s-.35-.55-.63-.75c-.28-.2-.63-.3-1.07-.3s-.83.1-1.1.31c-.27.2-.46.47-.59.8s-.19.69-.22,1.09c-.01.33-.01.66,0,.99.02.4.09.76.22,1.09.12.33.32.6.59.8.27.2.64.31,1.1.31Z"/>
  </g>
  <line class="cls-6" x1="501.52" y1="117.88" x2="1093.5" y2="117.88"/>
  <line class="cls-6" x1="103.68" y1="117.88" x2="396.6" y2="117.88"/>
</svg>